<svg xmlns="http://www.w3.org/2000/svg" viewBox="0 0 150 150"><defs><style>.cls-1{fill:#10302b;}</style></defs><g id="Capa_2" data-name="Capa 2"><g id="Capa_1-2" data-name="Capa 1"><path class="cls-1" d="M113.94,74.17,63.73,60.72a3.72,3.72,0,0,0-1.36-.15c-1.51.21-2.11,1.46-1.62,3.28l11.1,41.46c.81,3,1.64,6,2.45,9.07.24.89.72,1.6,1.69,1.68a2.07,2.07,0,0,0,2-1.36c.14-.28.26-.58.38-.88,3.16-7.74,6.34-15.48,9.47-23.23a4.51,4.51,0,0,1,2.67-2.7c3.78-1.49,7.52-3,11.28-4.58,4.14-1.7,8.29-3.41,12.44-5.1a2.55,2.55,0,0,0,1.84-2C116.05,75.19,115.37,74.56,113.94,74.17Z"/><path class="cls-1" d="M75,0a75,75,0,1,0,75,75A75,75,0,0,0,75,0ZM61.82,27.08a3.43,3.43,0,0,1,3.35,3.56c0,1.67,0,3.35,0,5s0,3.42,0,5.13a3.42,3.42,0,1,1-6.83,0c0-3.38,0-6.77,0-10.16A3.42,3.42,0,0,1,61.82,27.08Zm-21,38.08c-1.74,0-3.49,0-5.23,0s-3.35,0-5,0a3.42,3.42,0,1,1,0-6.83q5.13,0,10.26,0a3.42,3.42,0,1,1,0,6.83Zm8.62-15.74a3.39,3.39,0,0,1-4.88,0c-2.5-2.45-5-4.92-7.41-7.41a3.23,3.23,0,0,1-.67-3.76c.57-1.34,1.66-2,3.62-2a7.55,7.55,0,0,1,2,1.1c2.48,2.36,4.88,4.8,7.28,7.24A3.42,3.42,0,0,1,49.48,49.42Zm68,34.8c-5.49,2.37-11.05,4.57-16.58,6.84-2,.84-4.09,1.64-6.1,2.54a2.48,2.48,0,0,0-1.18,1.19c-3.08,7.39-6.08,14.81-9.14,22.21a9.09,9.09,0,0,1-8.38,5.92,8.74,8.74,0,0,1-8.31-6.63c-1.5-5.42-2.92-10.86-4.38-16.29Q58.73,82.72,54.1,65.46C52.68,60.15,55.38,55.18,60.48,54A9.86,9.86,0,0,1,65,54c11.36,2.94,22.69,6,34,9l16.7,4.47c4.5,1.21,7.35,4.61,7.15,8.77A8.56,8.56,0,0,1,117.43,84.22Z"/></g></g></svg>