<svg xmlns="http://www.w3.org/2000/svg" viewBox="0 0 383.26 336.86"><defs><style>.cls-1{fill:#c5c5c5;}</style></defs><g id="Capa_2" data-name="Capa 2"><g id="Capa_1-2" data-name="Capa 1"><path class="cls-1" d="M383.26,48.66V220.82a5.15,5.15,0,0,0-.65,1.28c-5.28,28.64-27.66,47.37-56.68,47.37-47.9,0-95.8.16-143.7-.19-6.45,0-9.09,1.84-11.81,7.66-16,34.19-42.77,54.46-80.38,59-12.3,1.5-24.89.59-37.35.75-.15,0-.3-.31-.61-.66,6.08-6.07,12.48-11.85,18.15-18.29a103,103,0,0,0,12.46-17.14c5.34-9.45,7.2-20,7.08-31.17-11.63,0-23,0-34.28,0C25.17,269.39,0,244.28,0,214Q0,134.8,0,55.65A55.89,55.89,0,0,1,55.74,0Q191.6,0,327.43,0a55.89,55.89,0,0,1,53.64,40.46C381.85,43.19,382.53,45.93,383.26,48.66Z"/></g></g></svg>