<svg xmlns="http://www.w3.org/2000/svg" viewBox="0 0 333.62 333.43"><defs><style>.cls-1{fill:#fff;}</style></defs><g id="Capa_2" data-name="Capa 2"><g id="Capa_1-2" data-name="Capa 1"><path class="cls-1" d="M253.27,3h7.67c6.59,2.27,11.83,6.08,14.28,13,5.44-2.51,10.7-2.93,16-.8s8.89,6.3,11.11,11.65l2.32-.82A18.93,18.93,0,0,1,328,34.61a58.18,58.18,0,0,1,2.62,6.11v88.22c-2.37,4.36-4.67,8.75-7.14,13.06-2.37,4.15-5,8.14-7.3,12.34a13.37,13.37,0,0,0-1.7,6c-.14,16.49,0,33-.13,49.48a4.21,4.21,0,0,0,2.28,4.05,18.28,18.28,0,0,1,8.36,13c.86,5.09-.8,9.55-3.28,14,4.89,2.82,7.12,7.35,8.91,12.19v7.67c-2.27,6.59-6.08,11.83-13,14.28,2.53,5.45,3,10.71.82,16s-6.32,8.87-11.54,11.06a5.88,5.88,0,0,0,.24,1.19c6.3,13.43-5.09,27.44-18.81,27.22-26.2-.42-52.41-.17-78.61-.08a21.13,21.13,0,0,1-11.48-3.2q-9.66-5.89-19.46-11.59a9.46,9.46,0,0,0-4.45-1.4q-25.56-.15-51.13,0a3.73,3.73,0,0,0-2.61,1.22c-7.85,10.37-16.08,12.27-27.56,6.12-4.4,6.34-10.47,9.6-18.25,8.73s-13.06-5.61-16.14-12.92a19.08,19.08,0,0,1-15.94.81c-5.43-2.16-8.89-6.3-11.06-11.54a6,6,0,0,0-1.19.23C16.86,313.14,3,301.56,3.19,288c.44-26.2.17-52.41.08-78.62a21.59,21.59,0,0,1,3.31-11.76q5.85-9.51,11.47-19.17A9.58,9.58,0,0,0,19.46,174q.15-25.58,0-51.13a3.78,3.78,0,0,0-1.18-2.65c-10.4-8-12.26-16-6.22-27.41C-1.29,80.71.13,68.42,16.22,58.07a18.85,18.85,0,0,1-.7-15.7c2.15-5.44,6.3-8.9,11.71-11.15-3.63-8.07-3-15.62,3.08-21.74C33.16,6.6,37.41,5.12,41,3h88.22c4.17,2.27,8.38,4.48,12.51,6.84,4.33,2.48,8.51,5.24,12.9,7.61a13.5,13.5,0,0,0,6,1.7c16.5.13,33,.05,49.5.1a3.87,3.87,0,0,0,3.84-2,18.14,18.14,0,0,1,13.16-8.6c5.09-.84,9.55.76,13.77,3.2C245,6.75,245.47,6.41,253.27,3ZM210.36,30.42h-3.69c-14.92,0-29.83-.09-44.74,0a24.37,24.37,0,0,1-13.58-3.79q-9.19-5.76-18.63-11.12A12.14,12.14,0,0,0,124,14c-25.89-.1-51.77-.07-77.65,0a15.59,15.59,0,0,0-4.09.5,8.14,8.14,0,0,0-6.15,8.27A7.81,7.81,0,0,0,43.66,30c3.39.24,6.81.13,10.21.16,5,0,10-.09,15,.12a5.24,5.24,0,0,1,5.36,5.54c-.06,3-2.33,5.21-5.57,5.45-1,.06-1.91,0-2.87,0-10.76,0-21.52-.05-32.28,0a8.43,8.43,0,0,0-8.31,7.38A8.08,8.08,0,0,0,30.89,57a13.57,13.57,0,0,0,3.78.37c7.56,0,15.12,0,22.68,0,3.51,0,5.89,2.28,6,5.34s-2.06,5.4-5.59,5.76a34.21,34.21,0,0,1-3.51.06c-10.76,0-21.52,0-32.27.12a7.83,7.83,0,0,0-7.69,7.16c-.4,3.36,2.12,7.18,5.73,8.29a15.82,15.82,0,0,0,4.7.63c10.65.06,21.3,0,32,0,4.25,0,6.74,2.09,6.68,5.54s-2.46,5.33-6.55,5.34c-9,0-17.9,0-26.85,0a17.57,17.57,0,0,0-4.1.43,7.72,7.72,0,0,0-6,8.27,8.12,8.12,0,0,0,6.87,7.31,31.45,31.45,0,0,0,4.45.24q28.29,0,56.56,0a22.09,22.09,0,0,1,3.82.22c2.92.51,4.8,2.75,4.35,5.66a10.14,10.14,0,0,1-2.15,4.45c-4.49,5.68-9.15,11.22-13.69,16.86a6.43,6.43,0,0,0-.56,7.74,5.88,5.88,0,0,0,6.82,3,11.36,11.36,0,0,0,4.75-3c16.85-16.59,33.72-33.16,50.36-50,4.76-4.81,10.05-7.19,16.77-6.91,4.86.2,9.74,0,14.62,0a43.7,43.7,0,0,1-.4-6.71c.68-6.92,4.21-12,10.67-14.68s12.71-1.78,18.33,2.46c2.93,2.21,5.71,4.6,8.92,7.21ZM123.58,302.89h3.83c15,0,30,.06,45.06,0a23,23,0,0,1,12.68,3.54c6.23,3.88,12.52,7.67,18.91,11.27a12.78,12.78,0,0,0,6,1.67q38.66.17,77.33.05a16.26,16.26,0,0,0,4.71-.62,8.11,8.11,0,0,0,5.68-8.29,7.87,7.87,0,0,0-7.31-7.18,41.64,41.64,0,0,0-4.47-.15c-6.92,0-13.85.07-20.76-.11-3.56-.09-5.67-2.51-5.53-5.71.13-3,2.4-5.11,5.69-5.3.85,0,1.71,0,2.56,0,10.55,0,21.09,0,31.63,0,5.25,0,9.25-3.65,9.18-8.19s-3.69-7.86-9-7.89c-6.92,0-13.84,0-20.77,0-.74,0-1.49,0-2.23,0-3.71-.15-6.15-2.32-6.19-5.51s2.25-5.4,6-5.66c1-.06,1.92,0,2.88,0,10.54,0,21.09.05,31.63,0,4.92,0,8.34-3.27,8.55-7.68.19-4.06-3.47-7.92-8-8.43a25.12,25.12,0,0,0-2.88-.07h-31c-4.66,0-7.12-1.84-7.19-5.36s2.44-5.53,7.31-5.54c8.74,0,17.47,0,26.2,0a17.08,17.08,0,0,0,4.1-.47,7.66,7.66,0,0,0,5.89-8,8.07,8.07,0,0,0-6.66-7.48,33.15,33.15,0,0,0-4.78-.27q-28.28,0-56.56,0a19.37,19.37,0,0,1-3.81-.24,5.34,5.34,0,0,1-3.55-8.17,21.48,21.48,0,0,1,1.94-2.53c4.44-5.45,9-10.83,13.29-16.36a6.6,6.6,0,0,0-.57-9,6.71,6.71,0,0,0-9.25.09c-.65.55-1.23,1.18-1.84,1.78-16.72,16.56-33.52,33.05-50.11,49.75a20.62,20.62,0,0,1-16.26,6.59c-4.15-.16-8.31,0-12.46,0-.8,0-1.59.16-2.54.26,1.21,5.22.76,10-2,14.36A18,18,0,0,1,132.36,262c-2.85-2.23-5.63-4.56-8.78-7.13ZM303.2,210.05v-3.72c0-15.34-.18-30.69.14-46a25.58,25.58,0,0,1,3-10.84c3.53-6.78,7.86-13.15,11.61-19.82a13.52,13.52,0,0,0,1.73-6.28c.12-25.68.09-51.35.05-77a16.59,16.59,0,0,0-.68-5,8,8,0,0,0-8.48-5.39,7.76,7.76,0,0,0-6.93,7.18,35,35,0,0,0-.15,3.83c0,6.93.06,13.85-.05,20.78-.06,4-2.33,6.34-5.72,6.22-3.2-.12-5.26-2.54-5.36-6.3,0-.75,0-1.5,0-2.24q0-15.35,0-30.68c0-5.83-3.4-10-8.18-9.8-4.25.13-8.39,3.33-7.95,9.57.19,2.65,0,5.32,0,8,0,4.79.06,9.58,0,14.38-.06,3.7-2.31,6.15-5.49,6.2S265.29,60.8,265,57c-.07-1.16,0-2.34,0-3.51,0-10.44.05-20.88-.07-31.32A8,8,0,0,0,257.59,14c-3.62-.35-7.32,2.45-8.37,6.49a17,17,0,0,0-.41,4.1c0,10.65,0,21.31,0,32,0,4-2.06,6.48-5.39,6.52s-5.49-2.38-5.5-6.4c0-9,0-18.11,0-27.17a16.58,16.58,0,0,0-.48-4.09,7.66,7.66,0,0,0-8.07-5.84,8.1,8.1,0,0,0-7.44,6.72,31.77,31.77,0,0,0-.25,4.78q0,28.13,0,56.25a21,21,0,0,1-.26,4.13A5.3,5.3,0,0,1,213.4,95a20.34,20.34,0,0,1-2.81-2.1c-5.37-4.37-10.69-8.8-16.1-13.12a6.57,6.57,0,0,0-8-.42A5.75,5.75,0,0,0,183.68,86a11.53,11.53,0,0,0,3,4.74c16.67,16.93,33.32,33.88,50.18,50.61,4.73,4.7,7,10,6.71,16.54-.18,5,0,10,0,14.92,3.46,0,6.65-.59,9.54.1,12.75,3,17.63,17.54,9.58,28-2.29,3-4.73,5.86-7.4,9.15ZM30.73,123.27c0,16.44-.07,32.52,0,48.6a23.8,23.8,0,0,1-3.72,13.28c-3.79,6-7.47,12.13-11,18.34a13.63,13.63,0,0,0-1.8,6.28c-.12,25.78-.09,51.56,0,77.34a16,16,0,0,0,.72,5,8.1,8.1,0,0,0,8.25,5.3,7.82,7.82,0,0,0,7.09-7,32.63,32.63,0,0,0,.17-3.83c0-6.82,0-13.63,0-20.45,0-4.41,2-6.74,5.55-6.73s5.51,2.54,5.55,6.75c0,2.13,0,4.26,0,6.39,0,9.16,0,18.32,0,27.48,0,4.74,3.91,8.56,8.25,8.42s7.72-3.59,7.79-8.42c.06-4.26,0-8.52,0-12.79,0-3.62-.06-7.24,0-10.86s2.4-6.1,5.6-6.09,5.24,2.25,5.54,5.83c.08.95,0,1.92,0,2.87,0,10.66-.06,21.31,0,32,0,4.77,3.17,8.11,7.46,8.42,3.84.28,7.65-2.9,8.5-7.2a17.75,17.75,0,0,0,.2-3.5c0-10.65,0-21.3,0-32,0-4,2.11-6.44,5.47-6.42s5.4,2.41,5.41,6.48c0,8.95,0,17.9,0,26.85a16.32,16.32,0,0,0,.5,4.41,7.79,7.79,0,0,0,13.2,3.38c2.27-2.23,2.55-5,2.55-7.94q0-23.34,0-46.66c0-4.48-.11-8.95.05-13.42.15-4.23,3.32-6.73,7-5.6a11.37,11.37,0,0,1,3.46,2.19c5.64,4.55,11.21,9.18,16.86,13.7a6.31,6.31,0,0,0,7.74.33,5.94,5.94,0,0,0,2.76-6.92,11,11,0,0,0-2.88-4.45c-16.75-17-33.49-34-50.41-50.82a20.43,20.43,0,0,1-6.53-16c.16-5,0-9.95,0-14.56-3.73-.24-7.22.09-10.39-.77-12.32-3.35-16.72-18-8.64-28.21,2.31-2.92,4.7-5.78,7.34-9ZM169.5,101.35c-5.55,0-9.28.11-13,0a7.83,7.83,0,0,0-6.25,2.52c-15.61,15.58-31.3,31.07-46.87,46.69a6.54,6.54,0,0,0-1.64,4.14c-.16,7.56-.24,15.14,0,22.69a9.55,9.55,0,0,0,2.41,5.86q23.13,23.64,46.6,47a6.59,6.59,0,0,0,4.12,1.7c7.56.16,15.12,0,22.69.12a8.05,8.05,0,0,0,6.19-2.66c15.47-15.42,31-30.77,46.42-46.24a7.52,7.52,0,0,0,2-4.64c.2-7.34,0-14.7.13-22.05a8.62,8.62,0,0,0-2.8-6.77c-12.82-12.8-25.86-25.38-38.19-38.64C184.67,103.85,178,98.54,169.5,101.35Z"/><path class="cls-1" d="M288.61,333.43h-.36c-21.11-.34-42.59-.24-63.36-.14l-15.19.06a24.14,24.14,0,0,1-13-3.64c-7-4.25-13.31-8-19.4-11.56a6.68,6.68,0,0,0-3-1c-15.42-.09-31.66-.1-51.11,0a1.52,1.52,0,0,0-.31.14c-8.17,10.73-17.43,13.31-29,8a21.3,21.3,0,0,1-19.47,7.93c-7.69-.86-13.5-4.9-17.3-12a21.68,21.68,0,0,1-15.56-.28A22.09,22.09,0,0,1,30,310.22a20.93,20.93,0,0,1-19-2.14A23.71,23.71,0,0,1,.19,288c.35-21.17.25-42.71.14-63.54l-.06-15A24.59,24.59,0,0,1,4,196.06c4.11-6.7,7.85-12.95,11.42-19.11a6.54,6.54,0,0,0,1-2.95c.09-15.22.1-31.46,0-51.1a1.27,1.27,0,0,0-.13-.37c-10.84-8.42-13.34-17.45-8-29C2.35,87.45-.46,81.25.06,75,.6,68.5,4.78,62.43,12.5,57a21.5,21.5,0,0,1,.23-15.7A21.91,21.91,0,0,1,23.4,29.71c-2.94-8.53-1.32-16.21,4.78-22.35a29.3,29.3,0,0,1,8-5.18c1.18-.6,2.3-1.16,3.34-1.77L40.22,0H130l.68.37,3.81,2.06c2.88,1.55,5.85,3.15,8.75,4.81,1.83,1,3.66,2.16,5.42,3.23,2.42,1.47,4.92,3,7.42,4.34a10.34,10.34,0,0,0,4.56,1.34c10.45.08,21.08.08,31.36.08q9.06,0,18.12,0c.88,0,.92,0,1.27-.61a21.12,21.12,0,0,1,15.23-10A22,22,0,0,1,240.14,8c3.19-3.74,4.8-4.63,11.93-7.75l.57-.25h8.8l.48.16c7.16,2.47,12.07,6.4,14.9,12a21.53,21.53,0,0,1,15.55.29,22.18,22.18,0,0,1,11.55,10.69,21.88,21.88,0,0,1,26.7,10,35.28,35.28,0,0,1,2,4.54c.24.63.49,1.26.75,1.87l.23.56V129.7l-.36.67-2.15,4c-1.62,3-3.29,6.11-5,9.14-1,1.79-2.11,3.57-3.16,5.28-1.4,2.28-2.84,4.64-4.11,7a10.49,10.49,0,0,0-1.34,4.56c-.08,9.33-.08,18.81-.09,28,0,7.16,0,14.33,0,21.49,0,.79,0,.94.9,1.5a21.25,21.25,0,0,1,9.7,15,22.07,22.07,0,0,1-2.35,13.49c4.11,3.27,6.21,7.72,7.84,12.12l.18.5v8.71l-.16.48c-2.47,7.16-6.4,12.07-12,14.9a21.51,21.51,0,0,1-.28,15.56,22.21,22.21,0,0,1-10.66,11.54,20.91,20.91,0,0,1-2.13,19A23.76,23.76,0,0,1,288.61,333.43ZM255,327.2c11.13,0,22.31.05,33.4.23a17.67,17.67,0,0,0,15-8.09,15.06,15.06,0,0,0,1-14.85A5.28,5.28,0,0,1,304,303a4.07,4.07,0,0,0-.06-.41l-.47-2.4,2.25-.94c5-2.08,8.22-5.16,9.91-9.4,1.77-4.43,1.53-8.78-.75-13.68l-1.39-3,3.12-1.09c5.24-1.85,8.75-5.65,11-12V253.5c-1.72-4.52-3.68-8-7.41-10.14l-2.56-1.48,1.45-2.58c2.67-4.77,3.55-8.36,2.94-12a15.28,15.28,0,0,0-7-10.94,7.16,7.16,0,0,1-3.67-6.59c0-7.15,0-14.31,0-21.46,0-9.19,0-18.69.09-28a16.56,16.56,0,0,1,2.06-7.35c1.34-2.5,2.83-4.93,4.27-7.28,1-1.68,2.09-3.41,3.07-5.13,1.69-3,3.34-6,4.94-9l1.8-3.33V41.31l-.57-1.46a30.71,30.71,0,0,0-1.66-3.77,16,16,0,0,0-19.68-7.22l-1.45.51-3.57,1.27L299.6,28c-2.09-5-5.18-8.31-9.45-10s-8.76-1.53-13.68.74l-3,1.38L272.39,17c-1.85-5.23-5.65-8.74-12-11H253.9c-6.88,3-7.05,3.21-10.68,7.7l-1.61,2-2.22-1.28c-4.45-2.57-8.08-3.45-11.79-2.84a15.14,15.14,0,0,0-11.09,7.21,6.8,6.8,0,0,1-6.36,3.47h0q-9,0-18.1,0c-10.29,0-20.94,0-31.41-.08a16.58,16.58,0,0,1-7.36-2.06c-2.63-1.42-5.2-3-7.69-4.49-1.73-1.06-3.52-2.14-5.28-3.15-2.83-1.62-5.77-3.21-8.61-4.74L128.49,6H41.82c-1,.54-2,1-3,1.54a24.57,24.57,0,0,0-6.44,4.05C27.53,16.53,26.7,22.72,30,30l1.27,2.81L28.39,34c-5.17,2.15-8.37,5.16-10.08,9.48a15.8,15.8,0,0,0,.61,13.3l1.15,2.39L17.84,60.6C10.44,65.36,6.47,70.38,6,75.53c-.4,4.8,2.31,9.87,8.05,15.08l1.73,1.57-1.09,2.06c-5.34,10.06-3.88,16.47,5.4,23.63a6.72,6.72,0,0,1,2.35,5c.08,19.66.07,35.91,0,51.16A12.36,12.36,0,0,1,20.64,180c-3.59,6.2-7.36,12.5-11.5,19.24a18.52,18.52,0,0,0-2.87,10.18l.06,15c.11,20.86.21,42.44-.14,63.67a17.71,17.71,0,0,0,8.08,15,15,15,0,0,0,14.88,1,5.11,5.11,0,0,1,1.52-.41l.4-.06,2.39-.43.92,2.24c2.06,5,5.13,8.19,9.4,9.89a16.11,16.11,0,0,0,13.53-.72l2.84-1.36,1.22,2.9c2.85,6.76,7.34,10.39,13.71,11.1s11.48-1.73,15.46-7.46l1.52-2.2,2.36,1.26c10.11,5.42,16.77,3.94,23.74-5.28a6.67,6.67,0,0,1,5-2.41c19.47-.08,35.72-.07,51.16,0a12.56,12.56,0,0,1,5.93,1.8c6.13,3.55,12.52,7.35,19.52,11.64a18,18,0,0,0,9.91,2.75l15.18-.06C234.77,327.24,244.83,327.2,255,327.2Zm-3.69-4.79c-13.9,0-27.46,0-41.23-.08a15.84,15.84,0,0,1-7.44-2.06c-5.8-3.27-11.85-6.87-19-11.33a19.82,19.82,0,0,0-11.08-3.09c-10.89.08-22,.06-32.64,0H120.58V248.57l4.89,4,2.95,2.42c2,1.64,3.88,3.19,5.79,4.68a15.61,15.61,0,0,0,12.25,3.16,14.47,14.47,0,0,0,9.89-6.58c2.21-3.5,2.73-7.34,1.63-12.08l-.77-3.3,3.37-.36.81-.11a16,16,0,0,1,2-.17l3.07,0c3.11,0,6.33-.08,9.53,0a17.68,17.68,0,0,0,14-5.71c12.08-12.16,24.46-24.4,36.44-36.23l13.69-13.54.45-.46c.48-.48,1-1,1.53-1.46,4.06-3.51,9.51-3.52,13.26,0a9.6,9.6,0,0,1,.89,13c-3,3.84-6.14,7.65-9.18,11.35L243,212.24l-.47.57a14.74,14.74,0,0,0-1.23,1.61,2.51,2.51,0,0,0-.23,2.33,2.39,2.39,0,0,0,1.8,1.35,16.57,16.57,0,0,0,3.17.19h56.61a34.13,34.13,0,0,1,5.24.31,11.06,11.06,0,0,1,9.2,10.32A10.7,10.7,0,0,1,308.92,240a19.05,19.05,0,0,1-4.83.57q-8.55,0-17.11,0h-9.1c-1.87,0-3.28.35-3.87,1-.12.11-.47.47-.45,1.53,0,.9.05,2.41,4.19,2.41h31.6a19.54,19.54,0,0,1,2.6.09c6.17.69,11,5.87,10.7,11.55-.28,6.05-5.13,10.48-11.51,10.54-7.46.07-15,.06-22.36,0H278.64c-.65,0-1.27,0-1.84,0-2.17.14-3.26,1-3.23,2.61,0,2.19,2.32,2.52,3.3,2.56.48,0,.95,0,1.43,0h6.93q7.27,0,14.55,0c7,0,11.87,4.49,12,10.84a10.51,10.51,0,0,1-3.07,7.57,12.6,12.6,0,0,1-9.1,3.67c-7.41,0-14.83,0-22.24,0h-10.2c-.52,0-1.05,0-1.58,0s-2.78.33-2.88,2.44a2.51,2.51,0,0,0,.57,1.83,2.86,2.86,0,0,0,2,.75c4.66.12,9.42.12,14,.11h7.17a41.74,41.74,0,0,1,4.28.16,10.83,10.83,0,0,1,10,9.84,11.15,11.15,0,0,1-7.8,11.5,19.36,19.36,0,0,1-5.57.74Zm-78.61-22.56a25.93,25.93,0,0,1,14.08,4c7.1,4.42,13.08,8,18.8,11.2a9.89,9.89,0,0,0,4.52,1.29c25.34.11,50,.09,77.31.05a13.55,13.55,0,0,0,3.85-.49,5.13,5.13,0,0,0,3.57-5.09,4.91,4.91,0,0,0-4.65-4.53,36.1,36.1,0,0,0-3.67-.13h-7.14c-4.64,0-9.44,0-14.18-.11a8.79,8.79,0,0,1-6.28-2.65,8.45,8.45,0,0,1-2.17-6.19c.19-4.52,3.7-7.88,8.52-8.17.7,0,1.37,0,2,0h10.12c7.41,0,14.82,0,22.22,0a6.82,6.82,0,0,0,4.84-1.87,4.53,4.53,0,0,0,1.35-3.27c-.05-3-2.35-4.92-6-4.94-4.84,0-9.67,0-14.51,0h-6.89c-.57,0-1.14,0-1.71,0-5.27-.2-9-3.68-9.07-8.46s3.47-8.33,8.83-8.69c.8-.06,1.57-.05,2.31,0h10.08c7.31,0,14.87,0,22.29,0,3.25,0,5.44-1.92,5.58-4.82.12-2.5-2.4-5-5.38-5.31a14,14,0,0,0-1.87-.05H277.75c-6.29,0-10.09-3.11-10.19-8.3a7.91,7.91,0,0,1,2.16-5.85c1.79-1.82,4.53-2.75,8.15-2.75H287q8.55,0,17.08,0a14.06,14.06,0,0,0,3.36-.37,4.68,4.68,0,0,0,3.65-5,5.1,5.1,0,0,0-4.14-4.64,28.37,28.37,0,0,0-4.31-.24H246.06a22.36,22.36,0,0,1-4.4-.3,8.35,8.35,0,0,1-5.53-12.66,18.57,18.57,0,0,1,1.76-2.36l.43-.52,4.16-5.07c3-3.67,6.13-7.46,9.09-11.24a3.6,3.6,0,0,0-.26-4.94c-1.48-1.38-3.53-1.31-5.24.17-.39.33-.78.73-1.2,1.15l-.49.49-13.69,13.54c-12,11.83-24.35,24.06-36.4,36.19a23.61,23.61,0,0,1-18.5,7.48c-3-.12-6.19-.08-9.23,0l-2.16,0a20,20,0,0,1-3,13.23,20.43,20.43,0,0,1-13.94,9.3,21.62,21.62,0,0,1-17-4.36c-1.32-1-2.61-2.07-3.93-3.15v38.67h13.28c10.68,0,21.73,0,32.59,0Zm-95.74,22.5-.7,0c-6-.44-10.18-5.12-10.24-11.39-.08-7.51-.07-15.14-.06-22.52,0-3.16,0-6.31,0-9.46,0-.27,0-.55,0-.82a17.7,17.7,0,0,0,0-1.81c-.12-1.4-.66-3.07-2.56-3.08-2.35,0-2.57,2.42-2.59,3.16-.06,2.47,0,5,0,7.46,0,1.11,0,2.22,0,3.34,0,1.3,0,2.6,0,3.9,0,2.92,0,5.94,0,8.92-.09,6.41-4.59,11.2-10.69,11.38a10.65,10.65,0,0,1-7.76-3.07A11.71,11.71,0,0,1,38.66,300c-.07-6.51-.06-13.12,0-19.51,0-2.67,0-5.33,0-8v-2.07c0-1.43,0-2.86,0-4.29,0-3.77-1.94-3.77-2.56-3.78-.95,0-2.5,0-2.54,3.76,0,4.24,0,8.57,0,12.75q0,3.84,0,7.68a33.64,33.64,0,0,1-.2,4.18,10.74,10.74,0,0,1-9.73,9.66,11.15,11.15,0,0,1-11.42-7.33,18.87,18.87,0,0,1-.88-6c-.05-24.92-.08-51.43,0-77.36A16.67,16.67,0,0,1,13.47,202c3.23-5.75,6.84-11.8,11-18.48a20.68,20.68,0,0,0,3.26-11.66c-.08-11.61-.06-23.48-.05-35q0-6.8,0-13.66v-3H85.06l-4,4.9-2.48,3c-1.69,2.05-3.28,4-4.83,5.95A15.24,15.24,0,0,0,71,148.38a14,14,0,0,0,9.79,9.21,25.77,25.77,0,0,0,6.12.56c1.18,0,2.4,0,3.67.12l2.81.18v2.81c0,1.39,0,2.81,0,4.25,0,3.38.06,6.88,0,10.41a17.54,17.54,0,0,0,5.65,13.74c15.83,15.73,31.75,31.89,47.16,47.52l3.27,3.32a13.47,13.47,0,0,1,3.63,5.76,9,9,0,0,1-4.06,10.26,9.27,9.27,0,0,1-11.2-.54c-3.16-2.52-6.33-5.12-9.4-7.63-2.49-2-5-4.06-7.47-6.07l-.14-.11a9.07,9.07,0,0,0-2.32-1.55,2.28,2.28,0,0,0-2,.21,3.31,3.31,0,0,0-1.13,2.63c-.11,3.11-.09,6.32-.07,9.42,0,1.3,0,2.59,0,3.89V259q0,22.22,0,44.44c0,3.48-.42,7.11-3.45,10.09a11,11,0,0,1-10.59,2.91,10.81,10.81,0,0,1-7.6-7.63,19.57,19.57,0,0,1-.61-5.21c0-5,0-10,0-15,0-3.94,0-7.88,0-11.82,0-3.48-1.76-3.49-2.43-3.49a2.08,2.08,0,0,0-1.59.54,4.12,4.12,0,0,0-.86,2.89q0,8.34,0,16.7,0,7.62,0,15.25V309a17.63,17.63,0,0,1-.26,3.75C86.78,318.25,82,322.35,76.91,322.35Zm-13.6-55.1h0c4.66,0,8.09,3.47,8.52,8.58.07.84.06,1.62,0,2.38V279c0,3.16,0,6.32,0,9.47,0,7.37,0,15,.06,22.46,0,3.11,1.87,5.26,4.68,5.46,2.35.18,4.79-2,5.34-4.8a12.89,12.89,0,0,0,.14-2.57v-.34q0-7.63,0-15.25,0-8.36,0-16.71a9.75,9.75,0,0,1,2.63-7.13,8.08,8.08,0,0,1,5.86-2.29c5.08,0,8.38,3.75,8.39,9.47,0,3.95,0,7.89,0,11.84,0,5,0,10,0,15a14.09,14.09,0,0,0,.39,3.61,4.78,4.78,0,0,0,3.37,3.47,5,5,0,0,0,4.84-1.41c1.39-1.36,1.65-3.09,1.65-5.8q0-22.21,0-44.44v-2.22c0-1.28,0-2.56,0-3.85,0-3.16,0-6.43.07-9.68a9.18,9.18,0,0,1,3.65-7.3,8.26,8.26,0,0,1,7.26-1.06,13.24,13.24,0,0,1,4.33,2.62l.13.11q3.77,3,7.5,6.1c3.06,2.5,6.22,5.08,9.35,7.59a3.3,3.3,0,0,0,4.28.12,3,3,0,0,0,1.46-3.58,8.13,8.13,0,0,0-2.12-3.13l-3.28-3.32c-15.39-15.62-31.3-31.77-47.11-47.48a23.42,23.42,0,0,1-7.42-18.18c.11-3.41.08-6.85,0-10.17,0-.47,0-.94,0-1.4h-.59a30.24,30.24,0,0,1-7.6-.77,19.85,19.85,0,0,1-13.91-13.13A21.24,21.24,0,0,1,69,130.41c1.1-1.38,2.21-2.74,3.35-4.14H33.73c0,3.57,0,7.13,0,10.67,0,12,0,23.32.05,34.91a26.8,26.8,0,0,1-4.18,14.89c-4.15,6.6-7.71,12.56-10.89,18.22a10.67,10.67,0,0,0-1.41,4.82c-.12,25.91-.09,52.41,0,77.32a13.12,13.12,0,0,0,.57,4.06,5.08,5.08,0,0,0,5.06,3.28A4.82,4.82,0,0,0,27.33,290a28.6,28.6,0,0,0,.15-3.47q0-3.82,0-7.65c0-4.2,0-8.54,0-12.82.07-7.17,4.49-9.73,8.56-9.7,5.13,0,8.49,3.83,8.54,9.72,0,1.45,0,2.91,0,4.37v2.05q0,4,0,8c0,6.38,0,13,0,19.44A5.74,5.74,0,0,0,46.4,304a4.73,4.73,0,0,0,3.42,1.4c2.88-.09,4.84-2.29,4.88-5.48,0-2.92,0-5.92,0-8.81,0-1.31,0-2.62,0-3.93,0-1.1,0-2.2,0-3.3,0-2.49,0-5.07,0-7.63C54.87,271,58.47,267.25,63.31,267.25ZM177.76,235h-.21c-3.45-.06-7-.05-10.39,0-4,0-8.2,0-12.32-.08a9.59,9.59,0,0,1-6.17-2.58c-18.42-18.37-33.24-33.3-46.63-47a12.62,12.62,0,0,1-3.26-7.85c-.29-7.86-.19-15.63,0-22.86a9.47,9.47,0,0,1,2.51-6.2c9.3-9.32,18.79-18.75,28-27.87q9.47-9.41,18.91-18.82a10.9,10.9,0,0,1,8.48-3.4c2.45.09,4.9.08,8,.06l4.41,0c10-3,17.68,3.3,24.48,10.61,9.35,10.05,19.31,19.9,28.93,29.43q4.6,4.56,9.19,9.12a11.62,11.62,0,0,1,3.68,9c-.06,3.3-.05,6.67,0,9.94,0,4,0,8.08-.09,12.14a10.55,10.55,0,0,1-2.85,6.67c-9.69,9.73-19.6,19.58-29.18,29.1l-17.24,17.15A11,11,0,0,1,177.76,235ZM170.32,229c2.43,0,4.89,0,7.32.05a5.18,5.18,0,0,0,4-1.78q8.61-8.58,17.25-17.15c9.57-9.52,19.48-19.36,29.16-29.09a4.55,4.55,0,0,0,1.1-2.6c.11-4,.1-8,.09-12,0-3.29,0-6.7,0-10.06a5.68,5.68,0,0,0-1.92-4.6c-3-3-6.11-6.07-9.17-9.1-9.67-9.57-19.66-19.47-29.1-29.62-6.59-7.08-12-11-18.68-8.84l-.46.15h-.48l-4.84,0c-3.18,0-5.69,0-8.28-.05a4.83,4.83,0,0,0-4,1.64q-9.45,9.44-18.93,18.84c-9.17,9.11-18.65,18.54-27.94,27.85a3.63,3.63,0,0,0-.76,2.08c-.15,7.14-.25,14.81,0,22.52a6.56,6.56,0,0,0,1.55,3.87c13.37,13.67,28.17,28.58,46.58,46.93a3.58,3.58,0,0,0,2.06.83c4.05.09,8.19.08,12.19.08Zm135.88-15.9H248.93l4-4.88c.86-1.07,1.7-2.09,2.52-3.09,1.7-2.07,3.31-4,4.83-6a14.81,14.81,0,0,0,2.49-14.17,14.22,14.22,0,0,0-10.39-9.09,19.25,19.25,0,0,0-5.4-.15c-1.1.06-2.23.13-3.44.13h-3v-3c0-1.52,0-3,0-4.56,0-3.42-.07-7,.06-10.47a18.1,18.1,0,0,0-5.82-14.3c-15.89-15.76-31.84-32-47.26-47.65l-3-3a14.7,14.7,0,0,1-3.72-6.06,8.73,8.73,0,0,1,4.08-9.94,9.53,9.53,0,0,1,11.49.63c3.58,2.86,7.18,5.81,10.66,8.66l5.46,4.48L213,91a14.68,14.68,0,0,0,1.9,1.41,2.42,2.42,0,0,0,2.24.16,2.32,2.32,0,0,0,1.3-1.72,17.54,17.54,0,0,0,.2-3.35v-.17q0-13.94,0-27.87,0-14.19,0-28.38a33.84,33.84,0,0,1,.29-5.23,11.08,11.08,0,0,1,10.26-9.27,10.59,10.59,0,0,1,11.11,8.07,19.37,19.37,0,0,1,.58,4.85q0,7.32,0,14.63,0,6.27,0,12.54a4.16,4.16,0,0,0,.86,2.88,2.13,2.13,0,0,0,1.6.53c.6,0,2.42,0,2.43-3.52V43.4q0-9.42,0-18.83a19.4,19.4,0,0,1,.51-4.84c1.39-5.39,6.47-9.21,11.56-8.72A11,11,0,0,1,268,22.14c.09,7.4.08,14.92.07,22.19,0,3.06,0,6.11,0,9.16,0,.36,0,.71,0,1.06,0,.8,0,1.55,0,2.27.14,2.17,1,3.27,2.61,3.24,2.25,0,2.53-2.29,2.54-3.25.06-3.33,0-6.73,0-10,0-1.44,0-2.88,0-4.33,0-.84,0-1.69,0-2.54,0-1.82.06-3.54-.06-5.23a11.92,11.92,0,0,1,2.86-9.16,11.26,11.26,0,0,1,8-3.62,10.21,10.21,0,0,1,7.47,2.86,13.67,13.67,0,0,1,3.8,9.93q0,10.73,0,21.44V66.1c0,.48,0,1,0,1.46,0,1.5.5,3.31,2.47,3.38a2.32,2.32,0,0,0,1.73-.53,3.88,3.88,0,0,0,.88-2.74c.08-4.55.06-9.19.05-13.68,0-2.35,0-4.7,0-7.06a38.77,38.77,0,0,1,.17-4.15A10.7,10.7,0,0,1,310.13,33a11.11,11.11,0,0,1,11.73,7.45,19.3,19.3,0,0,1,.83,5.93c0,26,.07,51.41-.05,77.05a16.45,16.45,0,0,1-2.11,7.74c-1.6,2.85-3.32,5.66-5,8.38C313.3,143.19,311,147,309,150.85a22.64,22.64,0,0,0-2.62,9.52c-.24,11.19-.2,22.6-.16,33.63q0,6.17,0,12.33Zm-44.65-6H300.2v-.72q0-6.15,0-12.31c0-11.07-.08-22.51.16-33.77a28.24,28.24,0,0,1,3.3-12.17c2.1-4,4.48-7.93,6.79-11.71,1.63-2.67,3.32-5.44,4.87-8.19a10.53,10.53,0,0,0,1.34-4.83c.12-25.62.09-51,.05-77a13.4,13.4,0,0,0-.54-4.1,5.09,5.09,0,0,0-5.22-3.34,4.75,4.75,0,0,0-4.35,4.54,35,35,0,0,0-.13,3.51c0,2.34,0,4.68,0,7,0,4.51,0,9.18-.05,13.78a9.56,9.56,0,0,1-2.74,7,8.15,8.15,0,0,1-6.09,2.17c-4.8-.17-8.11-3.87-8.25-9.22,0-.55,0-1.1,0-1.65V56.15q0-10.71,0-21.43a7.78,7.78,0,0,0-2-5.62,4.07,4.07,0,0,0-3.1-1.18,5.2,5.2,0,0,0-3.73,1.64,6.25,6.25,0,0,0-1.32,4.72c.13,1.95.1,3.89.06,5.76,0,.81,0,1.62,0,2.44,0,1.43,0,2.86,0,4.3,0,3.31,0,6.74,0,10.13-.08,5.31-3.56,9.07-8.45,9.15s-8.34-3.48-8.69-8.85c-.06-1-.05-1.85,0-2.73,0-.32,0-.65,0-1,0-3.06,0-6.12,0-9.17,0-7.26,0-14.75-.07-22.12A5,5,0,0,0,257.3,17c-2.19-.21-4.51,1.69-5.17,4.25a14,14,0,0,0-.32,3.36q0,9.4,0,18.81V56.55c0,5.63-3.37,9.45-8.36,9.51a8.23,8.23,0,0,1-5.88-2.26,9.8,9.8,0,0,1-2.65-7.13q0-6.29,0-12.56,0-7.3,0-14.6a14,14,0,0,0-.38-3.34,4.67,4.67,0,0,0-5-3.61,5.11,5.11,0,0,0-4.61,4.18,28,28,0,0,0-.22,4.32q0,14.19,0,28.38,0,13.94,0,27.87v.17a22.17,22.17,0,0,1-.33,4.57,8.28,8.28,0,0,1-12.34,5.57,18.57,18.57,0,0,1-2.79-2l-.45-.37-5.48-4.49c-3.46-2.84-7-5.78-10.59-8.61a3.59,3.59,0,0,0-4.59-.22,2.75,2.75,0,0,0-1.45,3.27,8.64,8.64,0,0,0,2.21,3.42l2.94,3c15.42,15.66,31.36,31.86,47.21,47.59a24.05,24.05,0,0,1,7.6,18.78c-.13,3.38-.09,6.84-.06,10.2,0,.5,0,1,0,1.5h.11a24.46,24.46,0,0,1,7.13.3,20.11,20.11,0,0,1,14.65,12.92A21,21,0,0,1,265,202.73C263.88,204.18,262.74,205.6,261.55,207.05ZM84.7,153.14a8.92,8.92,0,0,1-7.76-4.67,9.4,9.4,0,0,1,.8-11.14c1.91-2.38,3.84-4.73,5.77-7.08,2.61-3.19,5.32-6.49,7.91-9.76a7.24,7.24,0,0,0,1.54-3,2,2,0,0,0-1.91-2.25,20,20,0,0,0-3.28-.17H31.19a35.3,35.3,0,0,1-4.89-.27,11.14,11.14,0,0,1-9.42-10.1,10.75,10.75,0,0,1,8.26-11.36A20.43,20.43,0,0,1,30,92.75q7.38,0,14.75,0h12.1c3.52,0,3.55-1.68,3.56-2.4a2,2,0,0,0-.51-1.58,4.61,4.61,0,0,0-3.17-.9H45.84c-7,0-14.08,0-21.12,0A19.09,19.09,0,0,1,19.15,87c-4.9-1.52-8.4-6.69-7.81-11.52A10.76,10.76,0,0,1,22,65.72c7.61-.11,15.34-.11,22.82-.11H55.21a20.84,20.84,0,0,0,2.27,0c1.11-.12,3-.61,2.89-2.65-.06-1.51-1.23-2.45-3-2.47-4.46,0-9,0-13.41,0-3.08,0-6.17,0-9.26,0a16.11,16.11,0,0,1-4.61-.5,11,11,0,0,1-7.8-11.52,11.46,11.46,0,0,1,11.27-10c7.64-.06,15.39-.05,22.89-.05H66.68c.64,0,1.24,0,1.79,0,1.69-.12,2.75-1.08,2.78-2.51a2.27,2.27,0,0,0-2.49-2.48c-3.32-.14-6.75-.13-10.06-.12H51.06c-2.48,0-5,0-7.61-.16A10.79,10.79,0,0,1,33.16,23a11.18,11.18,0,0,1,8.35-11.43,18.72,18.72,0,0,1,4.87-.6c24,0,51.2-.06,77.67,0a15.11,15.11,0,0,1,7.15,2c6.06,3.43,12.36,7.19,18.74,11.19a21.27,21.27,0,0,0,12,3.33c10.75-.1,21.67-.08,32.23-.06h19.23V84.7l-4.89-4c-1-.84-2-1.65-3-2.45-2-1.66-3.92-3.23-5.85-4.69-4.89-3.7-9.92-4.38-15.38-2.1s-8.25,6.24-8.83,12.22a19.27,19.27,0,0,0,.17,3.76c.09.78.17,1.6.23,2.45l.21,3.2h-3.2c-1.5,0-3,0-4.49,0-3.35,0-6.82.07-10.26-.07-5.67-.24-10.15,1.62-14.51,6-15.27,15.42-31,30.89-46.19,45.86l-4.2,4.13a14.26,14.26,0,0,1-6.09,3.73A9.16,9.16,0,0,1,84.7,153.14ZM41.33,98.73,30,98.75a14.9,14.9,0,0,0-3.39.34,4.72,4.72,0,0,0-3.73,5.17,5.09,5.09,0,0,0,4.3,4.53,29,29,0,0,0,4,.21H87.76a25.18,25.18,0,0,1,4.33.26c4.63.81,7.49,4.63,6.8,9.07a13.39,13.39,0,0,1-2.76,5.86c-2.63,3.32-5.35,6.63-8,9.84q-2.88,3.51-5.74,7a3.48,3.48,0,0,0-.3,4.35A2.9,2.9,0,0,0,85.58,147a8.44,8.44,0,0,0,3.4-2.21l4.2-4.13c15.19-15,30.89-30.41,46.14-45.8,5.5-5.55,11.71-8.1,19-7.8,3.29.14,6.68.1,9.95.07h1.25a19.92,19.92,0,0,1-.08-4C170.25,75,174.57,69.05,182,66s14.75-2.11,21.3,2.84c1.39,1,2.74,2.13,4.11,3.25V33.42H194.12c-10.55,0-21.45,0-32.16.06a27.38,27.38,0,0,1-15.2-4.25c-6.31-3.95-12.53-7.66-18.51-11A9.38,9.38,0,0,0,124,17c-26.46-.1-53.65-.07-77.64,0a12.71,12.71,0,0,0-3.3.39,5.17,5.17,0,0,0-4,5.11A4.81,4.81,0,0,0,43.86,27c2.35.16,4.7.16,7.18.15h2.85c1.6,0,3.2,0,4.8,0,3.37,0,6.86,0,10.32.12a8.27,8.27,0,0,1,8.24,8.6,8.63,8.63,0,0,1-8.35,8.38,22.34,22.34,0,0,1-2.3,0c-.86,0-1.72,0-2.58,0H56.4c-7.49,0-15.24,0-22.84.05A5.44,5.44,0,0,0,28.2,49.1a5.08,5.08,0,0,0,3.54,5,11.48,11.48,0,0,0,2.94.25c3.08,0,6.15,0,9.23,0,4.41,0,9,0,13.48,0,5,.05,8.78,3.51,9,8.22S63.15,71,58.08,71.53a26.82,26.82,0,0,1-2.94.08H44.77c-7.45,0-15.16,0-22.73.11a4.83,4.83,0,0,0-4.75,4.52,5.28,5.28,0,0,0,3.63,5.07,13.21,13.21,0,0,0,3.83.49q10.55.06,21.09,0H56.7a10.14,10.14,0,0,1,7.45,2.7,8,8,0,0,1,2.22,5.89c-.09,5-3.84,8.28-9.54,8.29H41.33Z"/></g></g></svg>