<svg xmlns="http://www.w3.org/2000/svg" viewBox="0 0 247.38 389.45"><defs><style>.cls-1{fill:#bc955b;}</style></defs><g id="Capa_2" data-name="Capa 2"><g id="Capa_1-2" data-name="Capa 1"><path class="cls-1" d="M134.1,3c7.3,1.44,14.79,2.24,21.86,4.42,48.15,14.91,77.92,47,86.56,96.78,6.37,36.76-3.92,69.69-28.61,97.65-12.41,14.05-20.73,29.68-23.42,48.28-.34,2.29,0,3.42,2.21,4.63,8.43,4.68,12.87,11.94,12.61,21.71-.25,9.6-5.05,16.37-13.37,20.94a6.31,6.31,0,0,0-3.06,3.62c-3.27,17.92-12.21,32.21-27,42.74-2.24,1.59-2.88,3.23-2.9,5.84-.17,19.18-11.61,33-30,36.33-19.47,3.57-39.72-12.18-40.4-32-.2-5.69-1.82-9.29-6.46-12.85C69,331,61.2,317.35,58.37,300.92a5.17,5.17,0,0,0-2.5-3.2c-8.66-4.55-13.74-11.42-13.95-21.36s4.38-17.17,13-21.83c1.72-.92,2.23-1.88,2-3.76-2.51-17.48-9.2-33-21.24-46.07-15.87-17.16-26.36-37-30.62-60.06a115.94,115.94,0,0,1,8.06-69.39c1.55-3.5,4.52-4.9,7.48-3.74C24,72.83,25.17,76,23.46,79.93a104.29,104.29,0,0,0-9.06,43.91c.49,26.23,9,49.66,26.47,69.33,11.28,12.69,20.36,26.4,24.63,43,1.27,4.93,2.11,10,3.22,15.33H117.5V200.61c-3.66-3-7.51-5.23-10.07-8.49-2-2.55-2.76-6.29-3.42-9.63-.6-3.1-1.15-6-4.42-7.17s-5.66.06-8.14,2.21c-7.93,6.88-18,6.17-25.81-1.55-8-8-9-18.19-2.22-26.06,2.21-2.57,3.62-5.13,2.38-8.44s-4.38-4-7.62-4.33c-8.62-.92-14.38-5.89-16.42-14-2.24-8.88.58-17.91,7.58-22.18,2.85-1.74,6.43-2.51,9.78-3.14,3-.57,5.67-1.38,6.74-4.46s0-5.45-2.07-7.84c-6.91-7.9-6.22-17.79.86-25.61,8.54-9.44,20.1-8.41,26.37-2.82,2.62,2.34,5.25,3.9,8.73,2.53,3.64-1.42,3.94-4.73,4.29-8a18,18,0,0,1,15.84-16.36c11.4-1.2,19.8,3.46,22.62,12.71a49.53,49.53,0,0,1,1,6.24c1,5.6,6.52,7.81,11,4.37,10.78-8.36,19.65-7.68,28.8,2.22a17.93,17.93,0,0,1,.88,23.88c-2.28,2.76-4.18,5.37-2.68,9s4.79,3.87,8.09,4.23a18,18,0,0,1,16.31,16.28c.88,11.56-3.91,19.77-13.15,22.35a25.49,25.49,0,0,1-5.17.75c-2.87.21-5.1,1.43-6.13,4.14a6.78,6.78,0,0,0,1.63,7.57,17.23,17.23,0,0,1,5.15,13.2c-.39,9-5.72,14.85-13.29,18.39-7,3.29-13.92,1.81-19.7-3.55a7,7,0,0,0-7.55-1.77c-2.9,1-4.14,3.41-4.29,6.42-.46,9-5.16,14.78-13.79,17.74V251.8c1.85,0,3.54,0,5.24,0,6.34,0,9,1.78,8.95,5.88s-2.72,5.7-8.8,5.7c-23.07,0-46.15-.06-69.23,0A12.33,12.33,0,0,0,54.85,282c2.26,4,5.73,6.28,10.35,6.28q58.38.06,116.76,0a12.42,12.42,0,0,0-.06-24.83c-5.36-.11-10.72,0-16.09-.05-4.6-.05-7.07-2.2-7-5.94.08-3.56,2.42-5.53,6.93-5.61,4.23-.07,8.47,0,12.46,0,1.76-7.11,3.14-14,5.21-20.75a87.42,87.42,0,0,1,19.71-34c16.14-17.45,26.17-37.85,28.93-61.47,5.73-49-21.54-94.69-67.2-113.29C121,4.46,69.54,17.55,39.68,54.15c-1,1.16-1.87,2.34-2.88,3.44-2.46,2.64-5.47,3-8,1a5.39,5.39,0,0,1-.7-8.24C34.55,43.48,40.75,36.18,48,30.19A116.63,116.63,0,0,1,111.47,3.65,6.87,6.87,0,0,0,113.14,3ZM77.86,144c0,4.36-1.5,8.18-5.08,12.53s-3.35,7.23.84,11.34c4,3.89,6.89,4.07,11.07.47,5.81-5,12.27-6.51,19.42-3.46s10.64,8.68,11.19,16.3c.38,5.16,2.87,7.39,8.29,7.4s8-2.21,8.35-7.33c.52-7.63,4-13.31,11.14-16.34s13.6-1.58,19.44,3.41c4.19,3.58,7.21,3.42,11.09-.39,4.16-4.08,4.46-7.15.86-11.35-5.11-5.94-6.6-12.51-3.42-19.76,3.11-7.08,8.86-10.47,16.48-11,4.81-.3,7.09-3,7.13-8.18,0-5.44-2.23-8.1-7.26-8.44-7.62-.5-13.34-4-16.4-11s-1.68-13.6,3.32-19.45c3.72-4.36,3.52-7.3-.55-11.36s-7-4.23-11.35-.5c-5.87,5-12.36,6.37-19.46,3.28s-10.53-8.79-11-16.42c-.33-5-3-7.23-8.47-7.19-5.25,0-7.82,2.25-8.14,7.13-.5,7.62-3.91,13.36-11,16.46-7.25,3.17-13.74,1.54-19.82-3.37a9.63,9.63,0,0,0-6.69-2.14,8.46,8.46,0,0,0-4.93,14.06c5,5.86,6.41,12.34,3.38,19.45-3,7-8.55,10.48-16,11.08-5.46.44-7.69,2.86-7.67,8.41s2.24,7.83,7.82,8.27C70.37,126.65,77.74,134.3,77.86,144Zm99.39,156.16H70A54.23,54.23,0,0,0,124,344.48C150.34,344.31,172.78,325.73,177.25,300.12Zm-77.71,51.4c.9,9.76,5.12,16.7,13.35,20.79,9,4.46,17.65,3.42,25.61-2.61,6-4.53,9.71-12.62,8.47-17.88C131.39,357.41,115.79,357.4,99.54,351.52Z"/><path class="cls-1" d="M123.32,389.45a38.14,38.14,0,0,1-23.79-8.64c-8.52-6.86-13.61-16.6-14-26.73-.17-5-1.51-7.68-5.29-10.59C66.8,333.13,58.43,319,55.42,301.43a2.65,2.65,0,0,0-.94-1.06c-10.1-5.3-15.33-13.36-15.55-23.94-.23-10.8,4.82-19.28,14.61-24.54a3.83,3.83,0,0,0,.44-.27c0-.09,0-.22,0-.42-2.55-17.77-9.25-32.32-20.48-44.46C16.9,188.8,6.34,168.09,2.11,145.19A119.4,119.4,0,0,1,10.38,74C12.54,69.14,17.2,67,21.7,68.72a8.47,8.47,0,0,1,4.9,4.62,9.79,9.79,0,0,1-.39,7.79,101.83,101.83,0,0,0-8.81,42.65c.49,26.08,9.14,48.75,25.71,67.39,13.35,15,21.39,29.07,25.3,44.22.88,3.43,1.55,6.84,2.25,10.45.17.87.34,1.74.52,2.62H114.5v-46.4c-.72-.56-1.46-1.1-2.17-1.63a36.23,36.23,0,0,1-7.26-6.46c-2.48-3.16-3.32-7.45-4-10.9-.63-3.22-1-4.38-2.51-4.93s-2.76-.41-5.15,1.66c-9,7.8-21,7.12-29.89-1.7C54.39,169,53.43,156.92,61.15,148c2.27-2.63,2.39-3.94,1.84-5.42s-1.63-2-5.13-2.41c-9.89-1-16.64-6.81-19-16.21-2.62-10.39,1-20.63,8.93-25.48,3.28-2,7.12-2.84,10.78-3.53,3-.56,4-1.12,4.46-2.49s.4-2.72-1.49-4.89c-7.73-8.84-7.38-20.46.9-29.59,9.5-10.51,23-9.8,30.59-3,2.75,2.46,4.06,2.6,5.64,2s2-2,2.38-5.43V51.3a21,21,0,0,1,18.51-19c12.91-1.37,22.57,4.17,25.81,14.81a27.37,27.37,0,0,1,.86,4.63c.08.67.16,1.33.27,2A4,4,0,0,0,148.84,57a3.9,3.9,0,0,0,3.83-.79c11.94-9.26,22.69-8.43,32.84,2.55a20.93,20.93,0,0,1,1,27.84c-2.3,2.77-3,4.1-2.22,6,.69,1.69,2,2,5.33,2.34l.31,0a21,21,0,0,1,19,19c1,13-4.74,22.51-15.33,25.47a28.25,28.25,0,0,1-5.76.85c-2.45.18-3.17,1.22-3.54,2.21a3.82,3.82,0,0,0,1,4.42,20.12,20.12,0,0,1,6,15.42c-.41,9.32-5.6,16.57-15,21-8,3.73-16.16,2.29-23-4.07-1.51-1.39-2.86-1.73-4.52-1.14-1.06.37-2.16,1.11-2.3,3.74-.47,9.42-5.11,16-13.78,19.65V248.8h2.24c4.73,0,7.85.94,9.81,2.94a8,8,0,0,1,2.14,6c-.11,5.73-4.08,8.64-11.8,8.64h-20.7c-15.91,0-32.35,0-48.52,0a9.6,9.6,0,0,0-8.4,4.72,9.29,9.29,0,0,0,.06,9.34c1.83,3.21,4.37,4.77,7.76,4.77,47.06.05,83.07.05,116.75,0a9.42,9.42,0,0,0-.12-18.83c-3-.06-6-.05-8.93,0-2.38,0-4.75,0-7.13,0-3.34,0-5.94-1-7.71-2.81a8.46,8.46,0,0,1-2.26-6.19c.11-5.24,3.8-8.44,9.88-8.54,3-.06,6,0,8.85,0h1.31c.34-1.44.68-2.87,1-4.3,1.1-4.72,2.23-9.61,3.68-14.32a90.51,90.51,0,0,1,20.37-35.12c16.08-17.38,25.55-37.49,28.16-59.79,5.59-47.69-20.68-92-65.35-110.17C121.1,7.73,71.05,20.46,42,56l-.61.76c-.75.94-1.53,1.9-2.4,2.83C35.48,63.41,30.76,64,27,61a8.78,8.78,0,0,1-3.44-6.15,8.55,8.55,0,0,1,2.38-6.51q2-2.15,4-4.32C35,38.49,40.18,32.76,46.09,27.88A119.87,119.87,0,0,1,111,.68l.28-.13L112,.22l.54-.22H134.4l.28.06c2.27.44,4.62.84,6.89,1.22a116.7,116.7,0,0,1,15.28,3.28c50.09,15.51,79.91,48.86,88.62,99.12,6.44,37.14-3.42,70.84-29.31,100.15-12.83,14.53-20.26,29.82-22.7,46.73a3,3,0,0,0-.06,1.08h0a4.91,4.91,0,0,0,.76.5c9.54,5.3,14.44,13.74,14.15,24.41-.27,10.3-5.3,18.21-14.93,23.49a4,4,0,0,0-1.55,1.57c-3.41,18.7-12.91,33.72-28.23,44.61-1.32.93-1.62,1.57-1.64,3.41-.18,20.58-12.61,35.62-32.45,39.26A33.93,33.93,0,0,1,123.32,389.45ZM18.56,74.11c-1.42,0-2.27,1.4-2.69,2.35A113.4,113.4,0,0,0,8,144.1c4,21.77,14.07,41.47,29.87,58.56,11.91,12.89,19.31,28.93,22,47.68a6.07,6.07,0,0,1-3.51,6.84c-7.89,4.23-11.64,10.49-11.46,19.12.18,8.35,4.22,14.49,12.35,18.76a8.25,8.25,0,0,1,4.06,5.35c2.75,16,10.36,28.91,22.61,38.33,5.18,4,7.4,8.37,7.63,15.13.29,8.39,4.56,16.5,11.72,22.26A31.28,31.28,0,0,0,128.43,383c17.08-3.14,27.37-15.63,27.53-33.41a9.24,9.24,0,0,1,4.16-8.25c14-10,22.68-23.69,25.81-40.83.45-2.47,2.62-4.65,4.56-5.72,7.74-4.24,11.61-10.26,11.82-18.39.23-8.41-3.5-14.8-11.07-19-3.94-2.19-4.09-5.11-3.72-7.68,2.62-18.11,10.52-34.41,24.14-49.84,24.63-27.88,34-59.9,27.9-95.15-8.29-47.87-36.72-79.63-84.49-94.42a110,110,0,0,0-14.5-3.09c-2.21-.38-4.5-.76-6.76-1.2h-20a5.92,5.92,0,0,1-2,.64A113.89,113.89,0,0,0,49.91,32.51c-5.58,4.61-10.67,10.18-15.59,15.57-1.34,1.46-2.67,2.92-4,4.36a2.52,2.52,0,0,0-.78,1.94,2.7,2.7,0,0,0,1.13,1.89c.47.36,1.9,1.47,4-.73.72-.77,1.4-1.61,2.12-2.5l.63-.79C68.05,14.64,120.94,1.19,166,19.54c47.2,19.23,75,66,69.05,116.42-2.76,23.58-12.75,44.83-29.71,63.16a84.66,84.66,0,0,0-19,32.81c-1.38,4.51-2.44,9.08-3.57,13.92-.51,2.2-1,4.43-1.58,6.67l-.57,2.28h-6c-2.86,0-5.8,0-8.72,0-3.93.07-4,1.7-4,2.67a2.37,2.37,0,0,0,.57,1.89,5,5,0,0,0,3.47,1c2.34,0,4.69,0,7,0,3,0,6,0,9.08,0A15.27,15.27,0,0,1,197,276a15.11,15.11,0,0,1-15,15.23c-33.68.05-69.7.05-116.77,0a14.54,14.54,0,0,1-13-7.79,15.23,15.23,0,0,1-.05-15.32,15.53,15.53,0,0,1,13.58-7.72c16.18-.06,32.63-.05,48.54,0H135c5.75,0,5.78-1.47,5.8-2.76s-.32-1.57-.43-1.68c-.42-.43-1.69-1.14-5.53-1.14h-8.23V197.32l2-.69c7.64-2.62,11.38-7.4,11.76-15,.23-4.52,2.46-7.74,6.29-9.1a10,10,0,0,1,10.59,2.4c3.5,3.25,9.19,6.41,16.39,3,7.37-3.45,11.26-8.76,11.56-15.8a14.3,14.3,0,0,0-4.29-11,9.75,9.75,0,0,1-2.29-10.73c1.36-3.61,4.45-5.76,8.72-6.07a23.31,23.31,0,0,0,4.57-.65c7.85-2.19,11.75-9,11-19.23a15,15,0,0,0-13.63-13.53l-.3,0c-3.44-.37-8.15-.87-10.25-6.05-2.26-5.56,1.13-9.64,3.15-12.08a15,15,0,0,0-.77-19.94C173,54.12,165.87,53.57,156.34,61a9.88,9.88,0,0,1-9.68,1.64,10,10,0,0,1-6.07-7.88c-.13-.75-.22-1.5-.32-2.26a21.47,21.47,0,0,0-.64-3.6c-2.37-7.8-9.46-11.66-19.44-10.61A15,15,0,0,0,107,51.93v.14c-.37,3.51-.88,8.32-6.17,10.39C95,64.73,90.82,61,89,59.37,83.71,54.63,74.14,53.93,66.87,62,60.59,68.9,60.28,77,66,83.58c3.08,3.52,3.95,7,2.66,10.79-1.75,5.07-6.48,6-9,6.44-3.11.59-6.35,1.28-8.77,2.75-5.7,3.48-8.2,11.07-6.23,18.89,1.74,6.88,6.52,10.93,13.83,11.72,3,.32,8.08.86,10.11,6.26,1.86,5-.58,8.74-2.92,11.45-5.7,6.62-4.91,15,2.06,22,6.72,6.67,15,7.21,21.73,1.42,2.38-2.07,6.12-4.59,11.13-2.77,4.85,1.76,5.71,6.16,6.34,9.37.56,2.87,1.25,6.37,2.84,8.4a31.61,31.61,0,0,0,6.11,5.34c1.14.84,2.32,1.72,3.5,2.68l1.1.9v55.27H66.28l-.5-2.39c-.35-1.72-.68-3.42-1-5.08-.68-3.52-1.33-6.84-2.17-10.11-3.66-14.18-11.28-27.44-24-41.72-17.56-19.74-26.72-43.72-27.23-71.27a107.73,107.73,0,0,1,9.31-45.16,4.15,4.15,0,0,0,.35-3.09A2.62,2.62,0,0,0,19.5,74.3,2.62,2.62,0,0,0,18.56,74.11ZM123.82,378.05A27.52,27.52,0,0,1,111.55,375c-8.94-4.45-14-12.25-15-23.2l-.44-4.71,4.45,1.61c15.49,5.6,30.34,5.7,45.4.29l3.16-1.13.77,3.27c1.54,6.52-2.67,15.73-9.58,21A27.06,27.06,0,0,1,123.82,378.05Zm-20.53-22.14a19.6,19.6,0,0,0,10.93,13.71c7.77,3.87,15.33,3.09,22.47-2.31A19.92,19.92,0,0,0,144,356,69.23,69.23,0,0,1,103.29,355.91Zm20.37-8.43A57.4,57.4,0,0,1,67,300.67l-.66-3.55H180.82l-.61,3.52c-4.72,27-28.34,46.66-56.17,46.84Zm-50-44.36a51.47,51.47,0,0,0,50,38.36H124c23.69-.15,44-16.08,49.54-38.36Zm49.92-111.58h0c-7,0-10.78-3.44-11.27-10.18s-3.56-11.28-9.38-13.76-11.1-1.49-16.29,3c-5.35,4.6-10,4.41-15.12-.6-5.31-5.22-5.63-9.82-1-15.39,3.12-3.8,4.43-7,4.39-10.59h0c-.1-8.11-6.27-14.48-14.68-15.14-7.1-.56-10.57-4.24-10.59-11.25S53,106.77,60,106.2c6.64-.54,11-3.57,13.49-9.27S75,85.81,70.61,80.61a11.7,11.7,0,0,1-2.19-11.72,11.25,11.25,0,0,1,8.92-7.25c3.22-.52,7,1.07,9,2.76,5.64,4.55,11,5.49,16.74,3s8.75-7.06,9.19-13.9c.3-4.5,2.47-9.88,11.12-9.94h.15c8.82,0,11,5.43,11.33,10,.45,6.82,3.47,11.36,9.24,13.86s11.12,1.59,16.32-2.82c5.58-4.74,10.19-4.54,15.41.67s5.4,9.93.71,15.43c-4.42,5.18-5.35,10.51-2.85,16.31s7,8.8,13.85,9.25c4.62.31,10.12,2.54,10.06,11.45,0,6.79-3.58,10.75-9.95,11.16-6.84.43-11.39,3.42-13.91,9.16s-1.61,11.3,2.94,16.6,4.27,10.25-1,15.44c-5,4.91-9.81,5.07-15.14.53s-10.54-5.41-16.31-2.94-8.86,7-9.33,13.8S130.66,191.54,123.62,191.54ZM96.93,160.29a21.11,21.11,0,0,1,8.35,1.79c7.86,3.35,12.36,9.86,13,18.85.24,3.18,1,4.6,5.3,4.61h0c4.29,0,5.11-1.4,5.33-4.54.62-9,5.1-15.54,13-18.89s15.66-2,22.57,3.88c3,2.55,4.23,2.51,7-.24,3.26-3.2,3.06-4.49.68-7.25-6-7-7.38-15-3.88-22.92,3.41-7.77,10-12.17,19-12.74,2.78-.18,4.29-1.06,4.32-5.21,0-4.33-1.48-5.22-4.46-5.42-9-.6-15.58-5-18.95-12.86s-2.1-15.69,3.79-22.59c2.67-3.13,2.61-4.29-.39-7.28s-4.13-3-7.29-.35c-6.92,5.87-14.73,7.17-22.59,3.76s-12.24-10-12.83-19c-.2-3-1.07-4.45-5.46-4.39-4.13,0-5,1.48-5.17,4.33-.59,9-5,15.61-12.78,19S90,75,82.62,69.07a6.85,6.85,0,0,0-4.32-1.51A5.26,5.26,0,0,0,74.05,71a5.76,5.76,0,0,0,1.13,5.76c5.87,6.9,7.2,14.71,3.84,22.57s-9.7,12.18-18.52,12.89c-3.92.31-4.93,1.43-4.91,5.41s1,5,5.06,5.29c11.57.91,20.07,9.76,20.21,21.05h0c.06,5.08-1.72,9.55-5.76,14.47-2.43,2.95-2.61,4.12.62,7.29,2.88,2.82,4.06,2.88,7,.34C87.17,162.21,92,160.29,96.93,160.29Z"/><path class="cls-1" d="M160.49,117.62a36.87,36.87,0,1,1-36.68-37A36.75,36.75,0,0,1,160.49,117.62Zm-11.37.25A25.5,25.5,0,1,0,123.47,143,25.43,25.43,0,0,0,149.12,117.87Z"/><path class="cls-1" d="M123.62,157.4h0a39.87,39.87,0,0,1-.1-79.74h.31a39.87,39.87,0,0,1-.21,79.74Zm-.1-73.74a33.87,33.87,0,1,0,.1,67.74h0a34,34,0,0,0,33.87-33.79h0a33.55,33.55,0,0,0-33.7-33.95Zm0,62.36h-.07a28.08,28.08,0,0,1-20-8.35,28.65,28.65,0,0,1-8.3-20.5,27.88,27.88,0,0,1,8.36-19.86A29,29,0,0,1,124.17,89c15.5.13,28,13.07,28,28.84A28.5,28.5,0,0,1,123.53,146Zm.37-51a22.88,22.88,0,0,0-16.2,6.55,22,22,0,0,0-6.57,15.62,22.66,22.66,0,0,0,6.56,16.25A22.17,22.17,0,0,0,123.47,140h.06a22.49,22.49,0,0,0,22.59-22.17h0c.07-12.47-9.8-22.71-22-22.81Z"/></g></g></svg>