<svg xmlns="http://www.w3.org/2000/svg" viewBox="0 0 152.5 190.54"><defs><style>.cls-1{fill:#bc955c;}</style></defs><g id="Capa_2" data-name="Capa 2"><g id="Capa_1-2" data-name="Capa 1"><path class="cls-1" d="M.09,95.17q0-41.55,0-83.11c0-7.24,4.78-12,12-12q47.4,0,94.81,0A5.52,5.52,0,0,1,111,1.56q19.63,18.2,39.37,36.3a6,6,0,0,1,2.12,4.81c-.05,45.16-.12,90.31,0,135.47a12.2,12.2,0,0,1-12.41,12.39q-63.77-.22-127.53,0A12.27,12.27,0,0,1,0,178.07C.21,150.44.08,122.8.09,95.17ZM104.82,6.37H12.59c-4.25,0-6.16,2-6.16,6.43V177.62c0,4.59,1.91,6.49,6.5,6.49H139.47c4.75,0,6.61-1.86,6.61-6.58q0-65.46,0-130.91V44.46H117c-7.5,0-12.21-4.71-12.22-12.23Zm6.4,4.17c0,7.93-.11,15.43.06,22.92.06,2.79,2.32,4.61,5.25,4.63,7.92,0,15.85,0,23.77,0,.09,0,.17-.15.36-.32Z"/><path class="cls-1" d="M51.08,84.25c1.29-1.34,2.32-2.46,3.4-3.53,1.71-1.69,3.66-1.83,5-.4s1.19,3.26-.42,4.9c-2.37,2.4-4.82,4.72-7.12,7.18a4.21,4.21,0,0,0-1.07,2.53c-.11,3.77,0,7.53,0,11.3a7.78,7.78,0,0,1-8,8q-11.1,0-22.2,0a7.75,7.75,0,0,1-7.91-7.88q0-11.2,0-22.41a7.73,7.73,0,0,1,7.82-7.77c7.07,0,14.14,0,21.21,0C47.29,76.2,50.07,78.53,51.08,84.25ZM38,97.1c6.69-6,6.69-6,6.55-12v-.4c0-1.48-.77-2.13-2.23-2.13h-21c-1.49,0-2.16.75-2.16,2.21q0,10.52,0,21c0,1.35.6,2.15,2,2.16,7.14,0,14.28,0,21.41-.07a2.64,2.64,0,0,0,1.9-1.71,45,45,0,0,0,.09-5.8c-.25-.06-.34-.1-.36-.08l-3.27,3.17c-1.91,1.84-3.48,1.88-5.33.08s-3.86-3.81-5.74-5.75c-1.49-1.54-1.58-3.43-.3-4.76s3.29-1.31,4.9.27C35.62,94.48,36.74,95.77,38,97.1Z"/><path class="cls-1" d="M31.82,57.15c-3.7,0-7.41,0-11.11,0a7.78,7.78,0,0,1-7.92-7.89q0-11.2,0-22.41a7.73,7.73,0,0,1,7.82-7.77q11.22,0,22.42,0a7.73,7.73,0,0,1,7.82,7.77q.06,11.31,0,22.62a7.74,7.74,0,0,1-7.73,7.67C39.36,57.18,35.59,57.15,31.82,57.15ZM19.12,38c0,3.43.05,6.86,0,10.29,0,1.89.78,2.59,2.62,2.58q10.09-.07,20.2,0c1.83,0,2.63-.7,2.62-2.57,0-6.8,0-13.6,0-20.4,0-1.77-.76-2.47-2.51-2.46q-10.2.06-20.39,0c-1.92,0-2.56.86-2.53,2.67C19.17,31.36,19.12,34.66,19.12,38Z"/><path class="cls-1" d="M31.94,133.33c3.71,0,7.41,0,11.11,0a7.74,7.74,0,0,1,7.8,7.8q.06,11.21,0,22.41a7.75,7.75,0,0,1-8,7.85q-11.1,0-22.21,0a7.75,7.75,0,0,1-7.9-7.9q0-11.1,0-22.21a7.77,7.77,0,0,1,8.05-8C24.54,133.32,28.24,133.33,31.94,133.33Zm12.58,19c0-3.43,0-6.86,0-10.29,0-1.66-.68-2.42-2.37-2.41q-10.29,0-20.59,0c-1.63,0-2.46.62-2.45,2.32q0,10.4,0,20.79c0,1.57.68,2.31,2.26,2.3,6.93,0,13.86,0,20.79,0,1.68,0,2.38-.77,2.36-2.42C44.49,159.23,44.52,155.79,44.52,152.36Z"/><path class="cls-1" d="M98.68,50.81h36.68a13.85,13.85,0,0,1,1.58,0,3.17,3.17,0,0,1,0,6.3,9.3,9.3,0,0,1-1.18,0H60.4a3.1,3.1,0,0,1-3.18-3.09,3,3,0,0,1,3.21-3.24c5.74,0,11.49,0,17.24,0Z"/><path class="cls-1" d="M98.69,107.94h36.67a14.06,14.06,0,0,1,1.59,0,3.17,3.17,0,0,1,0,6.3,9.42,9.42,0,0,1-1.19,0H61.19c-.27,0-.53,0-.8,0a3.1,3.1,0,0,1-3.17-3.09A3,3,0,0,1,60.43,108c5.88,0,11.76,0,17.64,0Z"/><path class="cls-1" d="M98.48,171.41H61.6a11.76,11.76,0,0,1-1.78,0,3.08,3.08,0,0,1-2.6-3.23,3,3,0,0,1,2.6-3,6.34,6.34,0,0,1,1.38,0h75.33a3.1,3.1,0,0,1,3.2,3.26,3.05,3.05,0,0,1-3.19,3.07c-4.63,0-9.25,0-13.88,0Z"/></g></g></svg>