<svg xmlns="http://www.w3.org/2000/svg" viewBox="0 0 57.69 57.74">
  <defs>
    <style>
      .cls-1 {
        fill: gray;
      }
    </style>
  </defs>
  <g id="Capa_2" data-name="Capa 2">
    <g id="Capa_1-2" data-name="Capa 1">
      <g id="Capa_2-2" data-name="Capa 2">
        <g id="Capa_1-2-2" data-name="Capa 1-2">
          <path class="cls-1" d="M56.68,57.74H1a2.35,2.35,0,0,1-1-2.38,47,47,0,0,1,.63-5.3C3,40.16,8.82,33.21,18.15,29.21c.78-.34,1.6-.6,2.45-.92L20.21,28a15,15,0,0,1-6.48-14.67A15.26,15.26,0,0,1,25.34.43C26,.26,26.72.14,27.42,0h3l1,.21A15.36,15.36,0,0,1,44.25,14.84a14.93,14.93,0,0,1-5.12,12c-.58.53-1.23,1-1.84,1.5a.07.07,0,0,0,.06.07l.15.06C48,32,54.53,39.19,57.14,50c.24,1,.37,2,.55,3v3.73ZM3.92,54.17h50a25.06,25.06,0,0,0-50,0Zm36.7-38.78A11.71,11.71,0,1,0,28.88,27.08,11.71,11.71,0,0,0,40.62,15.39Z"/>
        </g>
      </g>
    </g>
  </g>
</svg>
