<svg xmlns="http://www.w3.org/2000/svg" viewBox="0 0 32.86 57.72">
  <defs>
    <style>
      .cls-1 {
        fill: gray;
      }
    </style>
  </defs>
  <g id="Capa_2" data-name="Capa 2">
    <g id="Capa_1-2" data-name="Capa 1">
      <g id="Capa_2-2" data-name="Capa 2">
        <g id="Capa_1-2-2" data-name="Capa 1-2">
          <path class="cls-1" d="M29.4.11A5,5,0,0,1,32,1.77a4.11,4.11,0,0,1,.86,2.33v.62l-.21,48.45a4.21,4.21,0,0,1-2.44,4.14,4.37,4.37,0,0,1-1.78.41q-12.13,0-24.26-.1A4.21,4.21,0,0,1,0,53.48V53Q.11,28.8.21,4.57A4.27,4.27,0,0,1,2,.83,10.18,10.18,0,0,1,3.73,0Zm1.34,44.13L30.9,7.85,2.16,7.72,2,44.12ZM2,46.14v6.92a2.39,2.39,0,0,0,2.1,2.65,2.53,2.53,0,0,0,.55,0l23.51.1a2.39,2.39,0,0,0,2.66-2.09,2.44,2.44,0,0,0,0-.54V46.27ZM2.13,5.7,31,5.83V5c0-2.11-.88-3-2.94-3L7.47,1.94H4.6A2.33,2.33,0,0,0,2.15,4.15v0C2.11,4.68,2.14,5.17,2.13,5.7Z"/>
          <path class="cls-1" d="M20.17,51a3.84,3.84,0,1,1-3.8-3.88h0A3.87,3.87,0,0,1,20.17,51Zm-3.83,1.86A1.89,1.89,0,1,0,14.43,51h0a1.9,1.9,0,0,0,1.91,1.85Z"/>
          <path class="cls-1" d="M14.6,4.87H12.85A1,1,0,0,1,11.74,4a.57.57,0,0,1,0-.13,1,1,0,0,1,1-1h3.72a1,1,0,0,1,1.07.93v.07a1,1,0,0,1-1,1H16.4A13.53,13.53,0,0,1,14.6,4.87Z"/>
          <path class="cls-1" d="M19.91,4.9c-1,0-1.46-.35-1.44-1S19,2.9,19.91,3s1.47.36,1.45,1S20.85,4.9,19.91,4.9Z"/>
        </g>
      </g>
    </g>
  </g>
</svg>
