<svg xmlns="http://www.w3.org/2000/svg" viewBox="0 0 57.65 57.74"><defs><style>.cls-1{fill:#d4c19c;}</style></defs><g id="Capa_2" data-name="Capa 2"><g id="Capa_1-2" data-name="Capa 1"><path class="cls-1" d="M56.64,57.74H1a2.35,2.35,0,0,1-1-2.38,49.44,49.44,0,0,1,.63-5.3c2.29-9.9,8.15-16.85,17.48-20.85.78-.34,1.6-.6,2.45-.92L20.17,28c-5-3.65-7.19-8.55-6.48-14.67A15.26,15.26,0,0,1,25.3.43C26,.26,26.68.14,27.38,0h3l1,.21A15.36,15.36,0,0,1,44.21,14.84a14.93,14.93,0,0,1-5.12,12c-.58.53-1.23,1-1.84,1.5,0,0,0,.06.06.07l.15.06C47.92,32,54.49,39.19,57.1,50c.24,1,.37,2,.55,3v3.73ZM3.88,54.17h50a25.06,25.06,0,0,0-50,0Zm36.7-38.78A11.71,11.71,0,1,0,28.84,27.08,11.69,11.69,0,0,0,40.58,15.39Z"/></g></g></svg>