<svg xmlns="http://www.w3.org/2000/svg" viewBox="0 0 55.64 48.95"><defs><style>.cls-1{fill:#d4c19c;}</style></defs><g id="Capa_2" data-name="Capa 2"><g id="Capa_1-2" data-name="Capa 1"><path class="cls-1" d="M0,22.22c.17-.94.29-1.89.51-2.82a23.17,23.17,0,0,1,8-12.75A28.19,28.19,0,0,1,23.75.27,35,35,0,0,1,41,2.35,22.72,22.72,0,0,1,53.7,14.05a19.82,19.82,0,0,1,1.73,11.47c-1.29,8.64-6.36,14.34-14.21,17.74a31,31,0,0,1-9.87,2.31,38.21,38.21,0,0,1-12.43-.93.74.74,0,0,0-.61.16,14.15,14.15,0,0,1-8.5,4.06c-1.82.18-3.68,0-5.53,0a1.78,1.78,0,0,1,.23-.28l2.38-2.38a9.63,9.63,0,0,0,2.64-5,.78.78,0,0,0-.38-.94A20.22,20.22,0,0,1,.63,28.7c-.24-.92-.35-1.87-.52-2.81,0-.14-.07-.28-.11-.41ZM11.7,45.06l.45-.14a11.62,11.62,0,0,0,5-3.73.66.66,0,0,1,.82-.27,34,34,0,0,0,18,.61,21,21,0,0,0,12.32-7.36c4.52-5.79,5.39-12.16,2.38-18.88-2.22-4.95-6.22-8.07-11.19-10a29.67,29.67,0,0,0-9.08-1.9A29.66,29.66,0,0,0,17.42,5.17c-5.69,2.24-10.08,6-12.57,11.61C2.27,22.65,2.69,28.29,6.63,33.5a19.47,19.47,0,0,0,5.94,5.08.77.77,0,0,1,.44.81A14,14,0,0,1,11.7,45.06Z"/></g></g></svg>