<svg xmlns="http://www.w3.org/2000/svg" viewBox="0 0 32.87 57.72"><defs><style>.cls-1{fill:#d4c19c;}</style></defs><g id="Capa_2" data-name="Capa 2"><g id="Capa_1-2" data-name="Capa 1"><path class="cls-1" d="M29.4.11A5,5,0,0,1,32,1.77a4.13,4.13,0,0,1,.86,2.33c0,.21,0,.41,0,.62q-.1,24.23-.21,48.45a4.2,4.2,0,0,1-2.44,4.14,4.25,4.25,0,0,1-1.78.41q-12.14,0-24.26-.1A4.2,4.2,0,0,1,0,53.48V53Q.11,28.81.21,4.57A4.26,4.26,0,0,1,2,.83,10.51,10.51,0,0,1,3.73,0Zm1.34,44.13L30.9,7.85,2.16,7.72,2,44.12ZM2,46.14c0,2.35,0,4.64,0,6.92a2.39,2.39,0,0,0,2.65,2.65l23.51.1a2.39,2.39,0,0,0,2.66-2.63l0-6.36v-.55ZM2.13,5.7,31,5.83V5C31,2.89,30.12,2,28.06,2L7.47,1.94c-1,0-1.92,0-2.87,0A2.33,2.33,0,0,0,2.15,4.2C2.11,4.68,2.14,5.17,2.13,5.7Z"/><path class="cls-1" d="M20.17,51a3.84,3.84,0,1,1-3.77-3.88A3.86,3.86,0,0,1,20.17,51Zm-3.83,1.86A1.91,1.91,0,0,0,18.25,51a1.91,1.91,0,1,0-3.82,0A1.9,1.9,0,0,0,16.34,52.85Z"/><path class="cls-1" d="M14.6,4.87c-.59,0-1.17,0-1.75,0a1,1,0,0,1-1.12-1,1,1,0,0,1,1.07-1c1.22,0,2.44,0,3.65,0a1,1,0,0,1,1.07,1,1,1,0,0,1-1.12.95C15.8,4.89,15.2,4.88,14.6,4.87Z"/><path class="cls-1" d="M19.91,4.9c-1,0-1.46-.35-1.44-1s.49-1,1.44-.95,1.47.36,1.45,1S20.85,4.9,19.91,4.9Z"/></g></g></svg>