<svg xmlns="http://www.w3.org/2000/svg" viewBox="0 0 57.89 42.51">
  <defs>
    <style>
      .cls-1 {
        fill: gray;
      }
    </style>
  </defs>
  <g id="Capa_2" data-name="Capa 2">
    <g id="Capa_1-2" data-name="Capa 1">
      <g id="Capa_2-2" data-name="Capa 2">
        <g id="Capa_1-2-2" data-name="Capa 1-2">
          <path class="cls-1" d="M57.89,5.88V36.63a2,2,0,0,0-.11.32,6.76,6.76,0,0,1-6.6,5.56H6.7A6.74,6.74,0,0,1,0,35.81V6.7A6.74,6.74,0,0,1,6.7,0H51.18a6.36,6.36,0,0,1,5.67,3.22A17.25,17.25,0,0,1,57.89,5.88ZM53.36,8.19,28.94,26.35,4.52,8.19v27.2a2.19,2.19,0,0,0,1,2.11,3.65,3.65,0,0,0,1.7.5H50.57c1.94,0,2.79-.85,2.79-2.78v-27Zm-46-3.64c.19.16.3.26.41.34l20.8,15.48a.59.59,0,0,0,.83,0l0,0q10.4-7.76,20.8-15.48l.39-.34Z"/>
        </g>
      </g>
    </g>
  </g>
</svg>
