<svg xmlns="http://www.w3.org/2000/svg" viewBox="0 0 295.79 317.81"><defs><style>.cls-1{fill:#bc955b;}</style></defs><g id="Capa_2" data-name="Capa 2"><g id="Capa_1-2" data-name="Capa 1"><path class="cls-1" d="M36.54,295.07c1.37-7.32,4-9.12,11.44-7.89,29.45,4.86,58.92,9.61,88.34,14.66A64.45,64.45,0,0,0,176.74,296c32.08-15.73,64.23-31.32,96.34-47a21.79,21.79,0,0,0,4.61-2.89,9.56,9.56,0,0,0-8.48-16.49,26,26,0,0,0-5.12,1.88c-25.67,12.47-51.36,24.9-76.95,37.52a51.63,51.63,0,0,1-39,3.37c-15.88-4.76-31.68-9.82-47.52-14.71-3.57-1.1-6.12-3.17-6.48-7-.28-3,1-5.9,3.86-6.82a13.75,13.75,0,0,1,7.71,0c15.43,4.57,30.76,9.49,46.16,14.17,9.4,2.86,17.93-4.58,15.61-13.75a10.57,10.57,0,0,0-4.14-6.1c-12.17-7.17-24.22-14.68-36.95-20.71C105,207.25,82.61,207.5,60,213.61Q35.56,220.23,10.87,226c-2.63.62-5.74-.79-8.63-1.26L0,220.1c.67-5.54,4.23-7.73,9.33-8.94,20.45-4.83,40.71-10.53,61.28-14.77,22.37-4.62,44.21-1.32,64.68,8.74,11.78,5.79,23,12.71,34.4,19.29,9,5.2,15.56,15.44,12,30.83l3.76-1.83q37.64-18.34,75.29-36.66c10.47-5.07,23.54-1.89,29.9,7,7.8,10.91,6.61,24.05-3,33.39-.6.58-1.14,1.22-1.71,1.82L172.8,314.11a4.37,4.37,0,0,0-1.4,0c-11.9,4.16-24,4.53-36.36,2.47-29.44-4.91-58.89-9.73-88.33-14.66a70.57,70.57,0,0,1-7.93-2.26Z"/><path class="cls-1" d="M128.78,134.76c-7.47,1.82-14.87,3.35-22.11,5.45-15.73,4.58-24.19,15.63-25,32.51-.3,6.47,0,13,0,19.73H97.41c0-5.07,0-10,0-14.85,0-5.58,3-9.09,7.78-9.19,4.92-.11,8.11,3.47,8.16,9.21,0,4.9,0,9.8,0,14.85,3.27.2,6.18.21,9,.58,4.28.55,6.85,3.33,7.08,7.28.25,4.26-2,7.23-6.42,8.27a19.07,19.07,0,0,1-4.34.4q-21.15,0-42.31,0c-7.91,0-10.9-3-10.91-10.79,0-9.54,0-19.09,0-29-8.46,0-16.54-.08-24.62,0-19.13.23-20.69,1.06-19.92-20.33a53.27,53.27,0,0,1,2.86-16.33c4.68-12.68,14.45-20,27.38-23.2,3.35-.83,6.72-1.55,10-2.44.92-.25,2.24-.78,2.45-1.46a3.19,3.19,0,0,0-1.16-2.61C51.93,94.28,47.9,83,48.73,69.69c.52-8.19-.11-16.73,2.05-24.48,6.36-22.77,34.65-32.11,54-18.5.87.61,1.76,1.19,2.82,1.9C116.58,10.79,130.5,0,150.91,0s34.51,10.49,43.43,28.68A37.05,37.05,0,0,1,220,20.55c16.08.93,30.67,13.69,32.34,29.51,1.09,10.36.71,21-.11,31.4-.67,8.51-5.63,15.29-12.18,20.8a13.32,13.32,0,0,0-2.08,3.08A25,25,0,0,0,241.2,107c7.47,2.6,15.59,4,22.32,7.92,11.67,6.7,16.93,17.94,17.44,31.31.17,4.52.1,9.05,0,13.58-.11,6.21-3.22,9.34-9.37,9.37-11.56,0-23.12,0-35.06,0-.1,1.31-.25,2.44-.25,3.58,0,8.78,0,17.56,0,26.35,0,6.57-3.23,9.82-9.82,9.85q-22.76.1-45.51,0c-5.87,0-9.4-3.13-9.48-8s3.27-7.94,9.19-8.26c1.06-.06,2.12,0,3.19,0h4.58V179.51c0-7.41,2.57-11,7.87-11.1s8.08,3.67,8.1,11.29c0,4,0,8,.09,12,0,.23.24.46.55,1,4.18,0,8.55.08,12.91-.07.74,0,2.09-1.09,2.08-1.65-.2-10.44,1.6-21.1-2.45-31.18-4.33-10.79-12.61-17.19-23.7-20-6.8-1.74-13.66-3.22-20.89-4.91-1.72,3.83-3.46,7.65-5.16,11.49-2.89,6.55-5.85,13.08-8.6,19.7-1.62,3.88-4,6.79-8.42,6.73-4.23,0-6.53-2.86-8.11-6.59-3.84-9-7.86-18-11.82-27C130.25,137.77,129.54,136.36,128.78,134.76Zm36.32-84C152.44,62.56,137,64.94,120.59,63.68c0,4.16-.23,7.63,0,11.05A30.67,30.67,0,0,0,144.22,102c13.19,3,26.34-3,33.27-14.75,4.85-8.21,3.9-17.13,3.82-26,0-.59-.75-1.37-1.35-1.73C175.09,56.63,170.18,53.78,165.1,50.79Zm48.25,59.46c-.88,8.09-.88,8.09-17.27,13.11a15.56,15.56,0,0,0,2,.85c15.3,3.9,26.51,12.82,33.56,27,.5,1,2.42,1.85,3.7,1.89,6.63.19,13.28.09,19.92.09h9.27c1.54-16.4-4.6-25.07-19.81-28.68-5-1.19-10.07-2.28-15.09-3.51-5.47-1.35-7.28-3.53-7.78-9a10.65,10.65,0,0,0-.42-1.75Zm-132.94,0c-1.27,8.33-2,9.15-9.94,11.06q-7.34,1.77-14.65,3.62c-14.2,3.57-20.45,13.1-18.19,28.22,10.12,0,20.31.08,30.5-.13.92,0,2.06-1.77,2.65-2.94a47.47,47.47,0,0,1,21.14-21.5c4.31-2.22,9-3.61,13.59-5.39-6.78-2.84-17.19-.79-16.83-12.94ZM180.4,41c-.82-13.61-16.79-26.31-30.5-25-17.71,1.7-30.94,16-29,31.56,13.76,1.33,26.42-.59,36.34-11.58,3.69-4.09,6.93-4.33,11.76-1.62C172.68,36.4,176.3,38.57,180.4,41ZM65.23,70.91c-1.27,8.5,2.36,16.38,9.15,20.45a19.4,19.4,0,0,0,22-1.26c6.89-5.32,9.71-15.08,7-24.61C91.14,70.7,78.19,71.26,65.23,70.91Zm132.9-5.52c-.93,10.14-.85,19.57,8.61,25.6,6.89,4.4,14.09,4.47,21,.13,7.29-4.55,9.61-11.55,9.27-20.26C223.66,71.34,210.62,70.61,198.13,65.39Zm1.54-17.17c11.61,6.34,24.13,6.92,37,6.42-.77-9.46-7.41-16.67-16.22-18A19.19,19.19,0,0,0,199.67,48.22Zm-97.49,0A19,19,0,0,0,80.41,36.91c-9,2.17-15.51,9.89-14.73,17.79C78.28,55,90.72,54.57,102.18,48.22Zm48.73,95.45c3.09-8.5,9.62-15.64,9.33-25.14H141.61C141.46,128.05,147.83,135.18,150.91,143.67ZM110.77,99.49l.77-1.24c-1.76,1.58-3.58,3.09-5.26,4.75s-1.67,3.22,1,3.88l17.4,4.3-1.13,1.09Zm79.54-1.24,1.09,1.18-12.48,11.26c5-1.2,10.62-2.49,16.19-3.94,2.18-.57,2.28-2.07.78-3.53C194.11,101.48,192.18,99.9,190.31,98.25Z"/></g></g></svg>