<svg xmlns="http://www.w3.org/2000/svg" viewBox="0 0 203.17 201.28"><defs><style>.cls-1{fill:#bc955c;}</style></defs><g id="Capa_2" data-name="Capa 2"><g id="Capa_1-2" data-name="Capa 1"><path class="cls-1" d="M0,57.08c1.06-2.16,3-3.17,5.15-3.91,10-3.39,19.94-6.85,29.91-10.28.43-.15.84-.34,1.34-.54-.53-3.24-1.07-6.41-1.56-9.59s1.15-5.63,4.51-6.21L71.71,21c.24,0,.49-.12.93-.22,0-4.58,0-9.12,0-13.67C72.64,1.74,74.36,0,79.79,0Q125.9,0,172,0a8.27,8.27,0,0,1,6.17,2.5q11.31,11,22.82,21.76a6.37,6.37,0,0,1,2.16,5q-.09,63.68,0,127.34c0,4.56-1.78,6.37-6.31,6.37-8,0-16-.1-24,0a77.34,77.34,0,0,0-25.23,5.13q-44.94,16.32-90,32.41c-4.52,1.62-6.74.56-8.37-4Q38.17,165.81,27.11,135a16.65,16.65,0,0,1-.67-2.07,2.8,2.8,0,0,1,1.9-3.47,2.74,2.74,0,0,1,3.57,1.3,15.12,15.12,0,0,1,1,2.57q10.74,29.85,21.47,59.71c.2.56.44,1.09.79,1.93l63.88-23-.11-.41c-3.62.6-7.25,1.18-10.87,1.81q-21.24,3.66-42.49,7.33a5,5,0,0,1-6.09-4.23c-1.77-9.87-3.44-19.75-5.14-29.62q-3.66-21.34-7.31-42.69-3.48-20.28-7-40.55c-.85-4.93-1.69-9.86-2.61-15.22L6.26,59.15c1.58,4.4,3.1,8.66,4.63,12.91L27.3,117.63c1.09,3-.46,5.57-3.06,4.8a4.93,4.93,0,0,1-2.61-2.81c-4.78-13-9.42-26-14.1-39Q4.16,71.18.77,61.79A13.69,13.69,0,0,0,0,60.26Zm78.7,99.81H197.05V31.54c-1.31,0-2.5,0-3.68,0-5.75-.05-11.51.07-17.24-.22-4.52-.24-6.72-2.85-6.77-7.39-.07-5.16-.05-10.32-.06-15.47,0-.7,0-1.4,0-2.11H78.7V83a21,21,0,0,1-.07,2.38,3,3,0,0,1-3,2.84,3.13,3.13,0,0,1-3-2.9,17.62,17.62,0,0,1,0-1.78q0-27.07,0-54.15V27L40.88,32.42C49,79.91,57.11,127.13,65.26,174.66l66.23-11.35,0-.3H79.17c-4.73,0-6.53-1.83-6.53-6.61q0-27.87,0-55.73c0-3.15,1-4.65,3-4.66s3,1.5,3,4.64v56.24ZM175.35,8.18c0,5.55,0,10.57,0,15.58,0,1.41.72,1.64,1.86,1.63,4.62,0,9.24,0,13.86,0,.62,0,1.23-.07,2.22-.13Z"/><path class="cls-1" d="M138.49,49.44H97.67c-3.09,0-4.67-1-4.73-3s1.57-3.14,4.78-3.14h81.65c3.19,0,4.64.93,4.69,3s-1.49,3.16-4.74,3.16Z"/><path class="cls-1" d="M138.46,127.85h40.23c.53,0,1.05,0,1.58,0,2.44.06,3.82,1.19,3.79,3.09s-1.43,3-3.87,3q-41.71,0-83.43,0c-2.33,0-3.85-1.29-3.82-3.11s1.5-3,3.91-3Z"/><path class="cls-1" d="M138.66,64.49h40.86c3.09,0,4.48.9,4.54,2.9s-1.43,3.15-4.52,3.15H97.42a14,14,0,0,1-1.59,0,3.19,3.19,0,0,1-2.89-3,3,3,0,0,1,2.88-3,18.63,18.63,0,0,1,2-.05Z"/><path class="cls-1" d="M138.66,91.6h-42c-2.64,0-4.34-1.72-3.43-3.7.43-1,1.7-1.54,2.66-2.2.27-.19.77,0,1.17,0h82.92a8.33,8.33,0,0,1,1.58,0,3,3,0,0,1,0,5.87,10.54,10.54,0,0,1-1.78,0Z"/><path class="cls-1" d="M138.48,112.76H97.42c-3,0-4.48-1-4.48-3s1.56-3.07,4.45-3.07h82.32a7.58,7.58,0,0,1,2,.12A2.85,2.85,0,0,1,184,110a2.78,2.78,0,0,1-2.7,2.67,18.7,18.7,0,0,1-2,.05Z"/></g></g></svg>