<svg xmlns="http://www.w3.org/2000/svg" viewBox="0 0 105.07 105.09"><defs><style>.cls-1{fill:#6a1b32;}</style></defs><g id="Capa_2" data-name="Capa 2"><g id="Capa_1-2" data-name="Capa 1"><path class="cls-1" d="M5.54,104.46a7.41,7.41,0,0,1-3.63-2.41,6.48,6.48,0,0,1-1.24-4q0-13.64,0-27.26c0-21.15,0-42.3-.05-63.44A6.55,6.55,0,0,1,7.4.63C33.94.71,60.49.67,87,.68a6.07,6.07,0,0,1,6.32,4.75,2.7,2.7,0,0,1,.12.69c0,3.82,0,7.63,0,11.45a2,2,0,0,1-1.74,1.94,2,2,0,0,1-2.2-1.41,4,4,0,0,1-.09-1.1c0-3.18,0-6.35,0-9.53,0-2-.76-2.74-2.76-2.74H7.45c-1.94,0-2.72.77-2.72,2.68V97.7c0,1.93.77,2.71,2.7,2.71H86.76c1.91,0,2.68-.78,2.68-2.72,0-1.59,0-3.18,0-4.77a2,2,0,1,1,4,0c0,1.76,0,3.51,0,5.27a6.06,6.06,0,0,1-4.33,6c-.18.06-.35.16-.53.24Z"/><path class="cls-1" d="M88.77,105.09H5.42l-.11,0a8,8,0,0,1-3.92-2.63A7.15,7.15,0,0,1,0,98.07c0-6.81,0-13.74,0-20.44V70.82q0-8.11,0-16.22c0-15.48,0-31.48,0-47.22A7.32,7.32,0,0,1,2.09,2.1,7.4,7.4,0,0,1,7.38,0h0C27.11.06,47.14.05,66.52.05H87A6.74,6.74,0,0,1,94,5.27a3.53,3.53,0,0,1,.13.85V7.84c0,3.19,0,6.49,0,9.73a2.59,2.59,0,0,1-2.29,2.57,2.68,2.68,0,0,1-2.89-1.86,4.42,4.42,0,0,1-.12-1.23V7.47c0-1.63-.48-2.11-2.13-2.11H7.45c-1.6,0-2.09.48-2.09,2.05V97.7c0,1.59.49,2.07,2.07,2.07H86.76c1.56,0,2-.49,2-2.09V95.77c0-1,0-1.9,0-2.85a3,3,0,0,1,.84-2.17,2.6,2.6,0,0,1,1.88-.7,2.66,2.66,0,0,1,2.59,2.85c0,1.78,0,3.59,0,5.28a6.72,6.72,0,0,1-4.76,6.64,1.63,1.63,0,0,0-.29.12l-.18.1ZM5.66,103.83H88.48l0,0c.13-.06.28-.14.45-.2a5.43,5.43,0,0,0,3.9-5.43c0-1.69,0-3.49,0-5.26,0-1-.53-1.59-1.36-1.6a1.27,1.27,0,0,0-1,.35,1.78,1.78,0,0,0-.46,1.26c0,.94,0,1.89,0,2.83v1.93C90.07,100,89,101,86.76,101H7.43C5.15,101,4.09,100,4.09,97.7V7.41c0-2.26,1.07-3.32,3.36-3.32H86.68c2.35,0,3.39,1,3.4,3.38v9.58a3.45,3.45,0,0,0,.07.88,1.39,1.39,0,0,0,1.51.95,1.33,1.33,0,0,0,1.18-1.31c0-3.24,0-6.54,0-9.72V6.12a3,3,0,0,0-.09-.54A5.48,5.48,0,0,0,87,1.31H66.52c-19.38,0-39.41,0-59.12-.05h0A6.1,6.1,0,0,0,3,3,6,6,0,0,0,1.27,7.38c.06,15.74.05,31.74.05,47.22q0,8.11,0,16.22v6.81c0,6.7,0,13.63,0,20.45a5.93,5.93,0,0,0,1.12,3.6A6.75,6.75,0,0,0,5.66,103.83Z"/><path class="cls-1" d="M104.44,49.53a7.69,7.69,0,0,1-3.32,4.27,2.49,2.49,0,0,0-.81,1.72,6.33,6.33,0,0,1-2,4.49,5.73,5.73,0,0,1-3.77,1.48,3.2,3.2,0,0,0-3,3.21c0,5.81,0,11.62,0,17.43,0,1.06-.18,2-1.23,2.43a2.28,2.28,0,0,1-2.7-.83L83,79l-4.7,4.81a2.27,2.27,0,0,1-2.14.89,2.09,2.09,0,0,1-1.66-2.31c0-5.88,0-11.76,0-17.64a3.21,3.21,0,0,0-3.19-3.29,5.8,5.8,0,0,1-5.55-5.29c0-.5-.13-1-.21-1.6H26.6c-1.58,0-2.45-.75-2.43-2.06a2,2,0,0,1,1.79-2,8.56,8.56,0,0,1,1,0H61.83a6.53,6.53,0,0,1,.72-5.68h-36c-1.52,0-2.38-.73-2.39-2a2,2,0,0,1,1.83-2,8.56,8.56,0,0,1,1,0H61.43a14,14,0,0,1,.1-1.63,5.61,5.61,0,0,1,2.66-4.1,2.56,2.56,0,0,0,1.47-2.35,5.93,5.93,0,0,1,6.17-5.88c1,0,1.49-.64,2-1.37A5.83,5.83,0,0,1,80.58,23a2.53,2.53,0,0,1,.74.31,3,3,0,0,0,3.31,0,5.7,5.7,0,0,1,7.33,2,3.13,3.13,0,0,0,2.76,1.64,5.68,5.68,0,0,1,5.48,5.46,3.12,3.12,0,0,0,1.63,2.79A6.06,6.06,0,0,1,104.44,39v2.23c-.35.78-.76,1.54-1,2.35a2.27,2.27,0,0,0,0,1.34c.26.82.66,1.59,1,2.39ZM83,60.23a25.16,25.16,0,0,1,2.74.9c1.56.71,2.27.55,3.22-.91a5.78,5.78,0,0,1,4.88-2.78c1.63-.06,2.18-.62,2.29-2.28a6,6,0,0,1,2.86-5c1.46-.94,1.63-1.62.83-3.2a5.89,5.89,0,0,1,0-5.63c.8-1.57.62-2.24-.86-3.19a6,6,0,0,1-2.84-5c-.1-1.6-.54-2.16-2.11-2.24a6.16,6.16,0,0,1-5.3-3.16,1.81,1.81,0,0,0-2.61-.74,14.92,14.92,0,0,1-1.76.74,5.73,5.73,0,0,1-4.39-.6c-1.27-.66-2.1-.56-2.73.47A6.5,6.5,0,0,1,71.62,31c-1.3,0-1.82.68-1.86,1.93a6.18,6.18,0,0,1-3.05,5.37,1.83,1.83,0,0,0-.78,2.82,6.07,6.07,0,0,1,0,6.07,1.88,1.88,0,0,0,.79,2.91,6.16,6.16,0,0,1,3,5.2c.09,1.5.7,2.08,2.23,2.13a5.8,5.8,0,0,1,5,2.82c.93,1.44,1.63,1.57,3.23.86A24.52,24.52,0,0,1,83,60.23Zm4.33,17.59V66c-1.24-.44-2.36-.89-3.5-1.24a2.92,2.92,0,0,0-1.54-.12c-1.27.38-2.49.89-3.78,1.37V77.54c.09,0,.14,0,.15,0l2.46-2.4c1.29-1.25,2.31-1.26,3.58,0C85.58,76,86.38,76.81,87.37,77.82Z"/><path class="cls-1" d="M76.5,85.39a2.32,2.32,0,0,1-.51,0,2.71,2.71,0,0,1-2.18-2.93V64.77a2.58,2.58,0,0,0-2.57-2.65,6.45,6.45,0,0,1-6.17-5.87c0-.32-.07-.66-.12-1H26.6a3.28,3.28,0,0,1-2.38-.83,2.57,2.57,0,0,1-.69-1.88,2.61,2.61,0,0,1,2.37-2.59,5.79,5.79,0,0,1,.83,0H61a6.87,6.87,0,0,1,.49-4.41H26.56c-1.85,0-3-1-3-2.63a2.62,2.62,0,0,1,2.41-2.68,7.36,7.36,0,0,1,.81,0H60.82a8.26,8.26,0,0,1,.08-1.1,6.28,6.28,0,0,1,3-4.55A1.92,1.92,0,0,0,65,32.74a6.33,6.33,0,0,1,1.88-4.55,6.78,6.78,0,0,1,4.94-2c.62,0,.92-.31,1.43-1.08a6.49,6.49,0,0,1,7.49-2.75,3.51,3.51,0,0,1,.91.39,2.33,2.33,0,0,0,2.67,0,6.32,6.32,0,0,1,8.15,2.18,2.53,2.53,0,0,0,2.26,1.36,6.28,6.28,0,0,1,6.09,6,2.44,2.44,0,0,0,1.3,2.28,6.67,6.67,0,0,1,2.9,4.19l0,.1v2.46l0,.13c-.11.23-.22.46-.32.69a12.78,12.78,0,0,0-.68,1.6,1.59,1.59,0,0,0,0,.94,16,16,0,0,0,.67,1.63c.11.24.21.47.31.71l0,.12v2.46l0,.1a8.28,8.28,0,0,1-3.58,4.61,2,2,0,0,0-.52,1.24,6.86,6.86,0,0,1-2.23,4.9,6.43,6.43,0,0,1-4.18,1.65A2.56,2.56,0,0,0,92.1,64.7v3.77c0,4.48,0,9.11,0,13.66a2.93,2.93,0,0,1-1.61,3,3,3,0,0,1-3.4-1l-3.17-3.24-1-1-1,1-3.28,3.37A3.16,3.16,0,0,1,76.5,85.39ZM64.29,54h1.77l.07.55c0,.19.05.38.07.55.06.37.11.72.14,1.07a5.18,5.18,0,0,0,4.94,4.72,3.82,3.82,0,0,1,3.8,3.92V82.41c0,1.45.87,1.63,1.16,1.69.52.1,1-.1,1.56-.71L81.08,80l1.86-1.91,1.9,1.94L88,83.28c.78.8,1.31,1,2,.7s.86-.76.85-1.84c0-4.56,0-9.19,0-13.67V64.7a3.81,3.81,0,0,1,3.67-3.84,5.09,5.09,0,0,0,3.37-1.33,5.71,5.71,0,0,0,1.81-4.06,3.06,3.06,0,0,1,1.1-2.21,7,7,0,0,0,3-3.84v-2c-.08-.19-.16-.38-.25-.56-.25-.57-.52-1.15-.72-1.76a3,3,0,0,1,0-1.74,13.57,13.57,0,0,1,.74-1.74c.08-.19.17-.37.25-.55v-2a5.39,5.39,0,0,0-2.27-3.38,3.73,3.73,0,0,1-2-3.29,5,5,0,0,0-4.88-4.87,3.79,3.79,0,0,1-3.26-1.94,5,5,0,0,0-6.5-1.75,3.65,3.65,0,0,1-4,0,2.06,2.06,0,0,0-.57-.23,5.19,5.19,0,0,0-6.07,2.23,2.92,2.92,0,0,1-2.48,1.65h-.08a5.56,5.56,0,0,0-4,1.6,5.06,5.06,0,0,0-1.51,3.65,3.18,3.18,0,0,1-1.77,2.89,5.05,5.05,0,0,0-2.37,3.67,7.69,7.69,0,0,0-.07,1c0,.19,0,.37,0,.57l0,.6H26.73c-.23,0-.46,0-.67,0a1.33,1.33,0,0,0-1.26,1.4c0,.91.6,1.37,1.76,1.37H63.67l-.58,1a5.86,5.86,0,0,0-.65,5.15l.27.84h-36c-.24,0-.47,0-.68,0a1.33,1.33,0,0,0-1.23,1.35,1.26,1.26,0,0,0,.33,1A2.07,2.07,0,0,0,26.6,54H64.29ZM88,79.37l-1.09-1.11-.9-.92c-.59-.61-1.15-1.19-1.71-1.74-1-1-1.65-1-2.7,0l-1.27,1.24L79.14,78a.64.64,0,0,1-.59.17h0l-.59-.05V65.57l.41-.16L79.42,65c.88-.34,1.8-.69,2.73-1a3.29,3.29,0,0,1,1.91.11c.82.26,1.62.55,2.46.87l1.06.39.42.15Zm-5-5.8a3.27,3.27,0,0,1,2.23,1.12c.51.5,1,1,1.54,1.57V66.45l-.65-.24c-.83-.31-1.61-.6-2.39-.84a2.38,2.38,0,0,0-1.18-.12c-.88.26-1.73.59-2.64.94l-.68.26v9.74l.26-.25,1.27-1.24A3.31,3.31,0,0,1,83,73.57Zm-4.31-11.4c-.89,0-1.55-.5-2.24-1.56A5.17,5.17,0,0,0,72,58.07c-1.86-.06-2.74-.9-2.84-2.73a5.57,5.57,0,0,0-2.71-4.69,2.49,2.49,0,0,1-1-3.74,5.49,5.49,0,0,0,0-5.49,2.45,2.45,0,0,1,1-3.65,5.55,5.55,0,0,0,2.76-4.85,2.31,2.31,0,0,1,2.46-2.54,5.89,5.89,0,0,0,5.14-3,2.43,2.43,0,0,1,3.56-.7,5,5,0,0,0,3.92.55,8.36,8.36,0,0,0,1.23-.5l.45-.21a2.44,2.44,0,0,1,3.41,1,5.51,5.51,0,0,0,4.79,2.86c2.12.1,2.61,1.16,2.71,2.83a5.34,5.34,0,0,0,2.56,4.47c1.76,1.13,2,2.15,1.07,4a5.29,5.29,0,0,0,0,5.05c1,1.89.69,2.91-1,4A5.35,5.35,0,0,0,96.8,55.2c-.12,2-.94,2.8-2.9,2.87a5.14,5.14,0,0,0-4.37,2.5c-1.1,1.69-2.15,2-4,1.14a14.31,14.31,0,0,0-1.75-.6L83,60.89l-.73.2a12.8,12.8,0,0,0-1.87.61A4.54,4.54,0,0,1,78.65,62.17Zm0-34.74c-.41,0-.62.26-.82.58a7.11,7.11,0,0,1-6.17,3.63c-.91,0-1.21.36-1.24,1.32A6.84,6.84,0,0,1,67,38.85c-.92.57-1.05,1-.55,2a6.75,6.75,0,0,1,0,6.67c-.54,1-.41,1.45.57,2.07a6.81,6.81,0,0,1,3.3,5.7c.07,1.18.41,1.49,1.62,1.53a6.46,6.46,0,0,1,5.48,3.12c.73,1.13,1.07,1.22,2.44.62a12.91,12.91,0,0,1,2-.67l.88-.25.19-.06.19.06.9.28a13.57,13.57,0,0,1,1.92.66c1.29.58,1.66.48,2.41-.68a6.41,6.41,0,0,1,5.39-3.07c1.3-.05,1.6-.35,1.68-1.69a6.64,6.64,0,0,1,3.15-5.46c1.19-.76,1.27-1.07.61-2.38a6.55,6.55,0,0,1,0-6.2c.66-1.28.58-1.59-.63-2.37a6.64,6.64,0,0,1-3.14-5.46c-.08-1.34-.3-1.58-1.5-1.64a6.81,6.81,0,0,1-5.81-3.46c-.46-.76-.94-.88-1.81-.5l-.44.2a9.88,9.88,0,0,1-1.41.57,6.29,6.29,0,0,1-4.85-.65A2.53,2.53,0,0,0,78.63,27.43Z"/><path class="cls-1" d="M79.72,14.5H14.45V54a6.83,6.83,0,0,1,0,1.11,2,2,0,0,1-4,0,8.39,8.39,0,0,1,0-1.12V13.19c0-2.16.62-2.78,2.75-2.78H81c2.09,0,2.73.63,2.74,2.69,0,1.49,0,3,0,4.46a2,2,0,0,1-2,2.16,2,2,0,0,1-2-2.2C79.7,16.55,79.72,15.57,79.72,14.5Z"/><path class="cls-1" d="M12.43,57.45a2.66,2.66,0,0,1-2.62-2.21,5.32,5.32,0,0,1,0-1V13.19c0-2.52.88-3.42,3.38-3.42H81c2.46,0,3.37.9,3.37,3.33v1.19c0,1.07,0,2.18,0,3.28a2.64,2.64,0,0,1-2.65,2.79h0a2.68,2.68,0,0,1-2.64-2.83c0-.67,0-1.34,0-2.05v-.35h-64V54.26a6.45,6.45,0,0,1,0,1,2.65,2.65,0,0,1-2.61,2.22ZM47.09,11H13.15c-1.78,0-2.11.34-2.11,2.15v41.1a3.75,3.75,0,0,0,0,.76,1.36,1.36,0,0,0,1.36,1.13h0A1.36,1.36,0,0,0,13.79,55a4.69,4.69,0,0,0,0-.76V13.86H80.35v1.63c0,.7,0,1.36,0,2,0,1,.55,1.57,1.38,1.58h0a1.39,1.39,0,0,0,1.38-1.54c0-1.08,0-2.19,0-3.25V13.1c0-1.71-.35-2.06-2.1-2.06Z"/><path class="cls-1" d="M14.45,90.64H79.72c0-.79,0-1.56,0-2.32a2,2,0,0,1,2-2.1,2,2,0,0,1,2,2.07c0,1.46,0,2.91,0,4.36a2,2,0,0,1-2,2.07c-.27,0-.54,0-.81,0H13.24c-2.23,0-2.84-.59-2.84-2.79q0-10.74,0-21.49c0-1.7,1.17-2.7,2.63-2.27a2.1,2.1,0,0,1,1.41,2.3q0,9.48,0,19Z"/><path class="cls-1" d="M81.39,95.37H13.24c-2.59,0-3.47-.86-3.47-3.42V70.45a3.05,3.05,0,0,1,1.13-2.52,2.55,2.55,0,0,1,2.32-.35,2.68,2.68,0,0,1,1.87,2.9V90h64v-.1c0-.53,0-1.08,0-1.61a2.66,2.66,0,0,1,2.64-2.71h0a2.61,2.61,0,0,1,2.65,2.69c0,1.45,0,2.93,0,4.38a2.62,2.62,0,0,1-2.62,2.7Zm-69-26.65a1.15,1.15,0,0,0-.72.23,1.86,1.86,0,0,0-.61,1.5V91.94c0,1.85.31,2.15,2.2,2.15H81.7a1.36,1.36,0,0,0,1.42-1.45c0-1.44,0-2.9,0-4.33a1.36,1.36,0,0,0-1.38-1.45h0a1.38,1.38,0,0,0-1.37,1.48c0,.51,0,1,0,1.56v1.38H13.82V70.48c0-1.26-.55-1.57-1-1.69A1.71,1.71,0,0,0,12.37,68.72Z"/><path class="cls-1" d="M50.43,64.32c-3.71,0-7.43,0-11.14,0-1.49,0-2.41-.76-2.44-2s.93-2.07,2.46-2.07H61.8A2.07,2.07,0,0,1,64.06,62a2,2,0,0,1-1.3,2.16,3.64,3.64,0,0,1-1.19.15C57.86,64.33,54.14,64.32,50.43,64.32Z"/><path class="cls-1" d="M44.06,65H39.29c-1.83,0-3-1-3.07-2.61a2.47,2.47,0,0,1,.69-1.84,3.27,3.27,0,0,1,2.4-.87H61.8a2.72,2.72,0,0,1,2.89,2.26A2.64,2.64,0,0,1,63,64.77a4.09,4.09,0,0,1-1.4.18H44.06ZM50.2,60.9H39.31a2.06,2.06,0,0,0-1.49.49,1.2,1.2,0,0,0-.33.92c0,1.19,1.14,1.37,1.8,1.37H61.57a3.2,3.2,0,0,0,1-.11,1.38,1.38,0,0,0,.88-1.46,1.5,1.5,0,0,0-1.64-1.2Z"/><path class="cls-1" d="M51.15,76.52a19.67,19.67,0,0,1-1.44,1.73,2,2,0,0,1-2.91.06,2.08,2.08,0,0,1,0-2.92,21.48,21.48,0,0,1,1.73-1.71,3.84,3.84,0,0,1,5.25-.1,29.77,29.77,0,0,1,2.59,2.94C57.88,75,59,73.77,60.3,72.62a3.26,3.26,0,0,1,1.83-.89,1.92,1.92,0,0,1,1.57,3,42.16,42.16,0,0,1-5,5,3.74,3.74,0,0,1-4.91-.55C52.93,78.42,52.16,77.57,51.15,76.52Z"/><path class="cls-1" d="M56.67,81.07a4.93,4.93,0,0,1-3.34-1.41c-.57-.54-1.1-1.09-1.72-1.74l-.42-.44,0,0a9.89,9.89,0,0,1-1,1.19,2.6,2.6,0,0,1-3.78.05,2.68,2.68,0,0,1,0-3.79,21.24,21.24,0,0,1,1.78-1.77,4.51,4.51,0,0,1,6.09-.1,17.44,17.44,0,0,1,1.82,2q.18.24.39.48l.74-.77c.92-.94,1.78-1.84,2.69-2.66a3.88,3.88,0,0,1,2.23-1.05,2.55,2.55,0,0,1,2.37,1.49,2.38,2.38,0,0,1-.3,2.61,43.12,43.12,0,0,1-5.11,5A3.77,3.77,0,0,1,56.67,81.07Zm-5.57-5.5.5.51.93,1c.6.63,1.12,1.17,1.67,1.69,1.08,1,2.83,1.53,4.07.52a42,42,0,0,0,4.95-4.89,1.13,1.13,0,0,0,.11-1.23,1.29,1.29,0,0,0-1.17-.77,2.58,2.58,0,0,0-1.43.72c-.87.8-1.68,1.63-2.62,2.6L56.87,77l-.49.49-.45-.51-.86-1a14.43,14.43,0,0,0-1.67-1.85,3.21,3.21,0,0,0-4.41.1,20.25,20.25,0,0,0-1.68,1.66,1.43,1.43,0,0,0-.06,2,1.35,1.35,0,0,0,2-.08,7.38,7.38,0,0,0,.89-1l.49-.62Z"/><path class="cls-1" d="M36.45,28.65c-1.55,0-3.1,0-4.65,0a2,2,0,1,1,0-4c3.13,0,6.27,0,9.4,0a2,2,0,1,1,0,4C39.61,28.66,38,28.65,36.45,28.65Z"/><path class="cls-1" d="M39.31,29.29H31.79a2.67,2.67,0,1,1,0-5.32c3.5,0,6.58,0,9.4,0a2.65,2.65,0,0,1,2.85,2.59,2.53,2.53,0,0,1-.7,1.88,3,3,0,0,1-2.16.84ZM36.45,28h4.74a1.78,1.78,0,0,0,1.26-.46,1.35,1.35,0,0,0,.35-1,1.41,1.41,0,0,0-1.59-1.36c-2.83,0-5.9,0-9.4,0-1,0-1.67.56-1.68,1.39S30.82,28,31.8,28h4.65Z"/><path class="cls-1" d="M82.93,45.45c2.2-2.21,4.24-4.27,6.31-6.31a3.58,3.58,0,0,1,1.2-.9,2,2,0,0,1,2.42,2.93,5.79,5.79,0,0,1-.71.86l-7.23,7.23c-1.41,1.4-2.4,1.41-3.8,0L77.83,46c-1.14-1.16-1.27-2.39-.35-3.28s2.11-.74,3.28.44C81.47,43.86,82.14,44.61,82.93,45.45Z"/><path class="cls-1" d="M83,51a3.43,3.43,0,0,1-2.33-1.21c-1.17-1.16-2.25-2.24-3.3-3.31A3.44,3.44,0,0,1,76.24,44a2.51,2.51,0,0,1,.8-1.77c1.2-1.15,2.75-1,4.17.44.49.5,1,1,1.46,1.54l.27.29,1.2-1.2,4.65-4.64a4.22,4.22,0,0,1,1.43-1,2.64,2.64,0,0,1,3.18,3.87,5.35,5.35,0,0,1-.8,1c-2.33,2.34-4.76,4.78-7.24,7.24A3.42,3.42,0,0,1,83,51Zm-4.19-8.17a1.28,1.28,0,0,0-.89.39,1.21,1.21,0,0,0-.41.87,2.21,2.21,0,0,0,.77,1.5c1,1.06,2.12,2.14,3.29,3.3s1.74,1.13,2.9,0l7.23-7.23a4.19,4.19,0,0,0,.62-.74,1.38,1.38,0,0,0-1.67-2,3.44,3.44,0,0,0-1,.76c-1.53,1.52-3,3-4.64,4.64l-2.13,2.13-.44-.48-.73-.77c-.49-.53-1-1-1.43-1.52A2.26,2.26,0,0,0,78.81,42.78Z"/></g></g></svg>