<svg xmlns="http://www.w3.org/2000/svg" viewBox="0 0 94.44 82.59"><defs><style>.cls-1{fill:#ddc9a3;}</style></defs><g id="Capa_2" data-name="Capa 2"><g id="Capa_1-2" data-name="Capa 1"><path class="cls-1" d="M94.44,42.78a24.57,24.57,0,0,1-1.89,3.81A8.1,8.1,0,0,1,85.63,50c-4.21,0-8.42,0-12.63,0H71.88c.19.54.32,1,.49,1.45q4.92,13.36,9.81,26.74a4.89,4.89,0,0,1,.26,2.39,2.46,2.46,0,0,1-2.35,2,2.37,2.37,0,0,1-2.59-1.38c-.81-1.84-1.51-3.74-2.21-5.64q-4.55-12.36-9.06-24.76a1.38,1.38,0,0,0-2.54,0Q58.44,65.35,53.13,79.89a7.52,7.52,0,0,1-.46,1.1,2.67,2.67,0,0,1-3.56,1.35,2.73,2.73,0,0,1-1.5-3.52c1.3-3.67,2.64-7.32,4-11Q54.64,59.42,57.71,51c.11-.31.19-.63.31-1-3.21,0-6.34,0-9.46,0-.23,0-.52.27-.68.49A7.61,7.61,0,0,1,37.82,53c-2.51-1.23-5-2.5-7.49-3.75-.29-.14-.6-.26-1-.44V79c0,2.63-1,3.63-3.6,3.63H9.31C7,82.59,6,81.53,5.94,79.21c0-4.67,0-9.34,0-14A1.15,1.15,0,0,0,5.16,64,8.22,8.22,0,0,1,.07,56.3,103.6,103.6,0,0,1,.23,45.15a16.52,16.52,0,0,1,7.7-12.59l1-.67A13.06,13.06,0,0,1,4.53,20.72,12.87,12.87,0,0,1,9.14,12a13.16,13.16,0,0,1,18.05,19.1l4.15,2.08,4.24,2.09V34.15c0-8.3,0-16.59,0-24.89A8.84,8.84,0,0,1,39.1,1.74a8.19,8.19,0,0,1,5-1.73Q65,0,85.91,0A8.6,8.6,0,0,1,94,6.1c.12.37.27.73.4,1.09ZM44.81,39.85c.16-.31.31-.58.44-.85l5.31-10.6a2.79,2.79,0,1,1,5,2.49c-2.06,4.17-4.16,8.33-6.24,12.5-.16.31-.29.64-.44,1a3,3,0,0,0,.38,0q18.15,0,36.3,0c2.1,0,3.36-1.37,3.37-3.55V9.08a3.25,3.25,0,0,0-3.56-3.54H44.71c-2.31,0-3.56,1.28-3.56,3.61V31.27c0,2,0,4.05,0,6.08a1.15,1.15,0,0,0,.41.87C42.62,38.81,43.7,39.3,44.81,39.85ZM23.69,77V49.34c0-1.57,0-3.13,0-4.7a2.92,2.92,0,0,1,1.86-3,3.12,3.12,0,0,1,2.64.32c4,2,8.05,4.05,12.11,6a3.25,3.25,0,0,0,2,.18,1.66,1.66,0,0,0,1.21-1.68,1.8,1.8,0,0,0-1.24-1.66c-5.11-2.53-10.28-5-15.3-7.65a18.2,18.2,0,0,0-11.5-1.77A11.7,11.7,0,0,0,5.78,45.49C5.51,49,5.58,52.6,5.6,56.16a3.06,3.06,0,0,0,2.8,3c2.29.25,3.09,1.14,3.09,3.47V77ZM17.57,29.57a7.57,7.57,0,1,0,0-15.13A7.61,7.61,0,0,0,10.05,22,7.52,7.52,0,0,0,17.57,29.57Z"/><path class="cls-1" d="M65,17.39c-4.73,0-9.46,0-14.19,0a5.15,5.15,0,0,1-1.62-.2,2.69,2.69,0,0,1-1.77-2.91A2.85,2.85,0,0,1,50,11.84a7.61,7.61,0,0,1,.83,0H79.24a5.25,5.25,0,0,1,1.54.2,2.79,2.79,0,0,1,1.83,2.89,2.7,2.7,0,0,1-2.49,2.43c-1.31.07-2.64.05-4,.05Z"/><path class="cls-1" d="M72.51,22.17c2.36,0,4.72,0,7.08,0,2.2,0,3.57,1.9,2.83,3.78a2.75,2.75,0,0,1-2.73,1.83c-4.84,0-9.69,0-14.53,0A2.83,2.83,0,0,1,62.21,25a2.86,2.86,0,0,1,3-2.81C67.66,22.15,70.08,22.17,72.51,22.17Z"/><path class="cls-1" d="M72.43,32.61c2.55,0,5.1,0,7.64,0a2.57,2.57,0,0,1,2.46,2.11,2.64,2.64,0,0,1-1.21,2.93,3.69,3.69,0,0,1-1.64.47q-7.28,0-14.54,0a2.84,2.84,0,0,1-2.93-2.81,2.76,2.76,0,0,1,2.86-2.74c2.46-.05,4.91,0,7.36,0Z"/></g></g></svg>