<svg xmlns="http://www.w3.org/2000/svg" viewBox="0 0 292.49 316.1"><defs><style>.cls-1{fill:#bc955b;}</style></defs><g id="Capa_2" data-name="Capa 2"><g id="Capa_1-2" data-name="Capa 1"><path class="cls-1" d="M277.75,92.05l-35.06,1.68c-.44-3.73-.9-7.49-1.41-11.76,6.79-.51,13.33-1.2,19.89-1.45,6.85-.27,13.72-.13,20.59-.14,6.52,0,8.23,1.68,8.23,8.09V241.59q0,29.39,0,58.78c0,5.73-1.89,7.58-7.58,7.63-24.7.24-49.42.07-74.1.88-15.92.53-31.85,2-47.68,3.95-11.16,1.37-22.12.71-33.14-.54a674,674,0,0,0-75-4.29C38.25,308,24,308,9.8,308c-5.26,0-7.29-2-7.29-7.16q0-106.69,0-213.39c0-5,2.05-7.13,7-7,13.69.25,27.38.61,41.63.94-.45,4.59-.82,8.35-1.22,12.39L14.78,92.05V272a284.44,284.44,0,0,1,64,6.14,291.5,291.5,0,0,1,61.44,20.28v-116h11.92v116c40.2-18.06,81.81-27.08,125.66-26.49ZM102,296.91c-28.31-9-57.4-12.94-87.24-12.86v11.62Zm176-12.88c-30,0-59.07,3.89-87.31,12.88l87.31-1.24Z"/><path class="cls-1" d="M147.49,316.1a177.33,177.33,0,0,1-20.28-1.33,673.87,673.87,0,0,0-74.74-4.27H9.79c-6.67,0-9.78-3.07-9.78-9.66Q0,194.14,0,87.44c0-3.27.8-5.64,2.44-7.26s4-2.34,7.11-2.28c9.76.18,19.34.41,29.48.65l12.16.29,2.69.06L52.18,96.34l-34.9-1.66V269.5a292,292,0,0,1,120.39,25.1V180h16.92V294.68c39.35-17.14,78.93-25.38,120.66-25.17V94.68l-34.76,1.66-2-16.66,2.6-.2,6.19-.5c4.73-.4,9.2-.78,13.79-1,5.05-.2,10.17-.17,15.11-.15h5.57c3.07,0,6.25.28,8.36,2.39s2.38,5.32,2.38,8.2V257.75q0,21.31,0,42.62c0,7-3,10.06-10.06,10.13s-14.38.11-21.57.14c-17.21.08-35,.17-52.47.74-14.26.47-29.34,1.72-47.45,3.93A111.34,111.34,0,0,1,147.49,316.1ZM39.65,305.49H52.47a676.43,676.43,0,0,1,75.3,4.31c9.48,1.07,20.76,2,32.56.54,18.27-2.23,33.49-3.49,47.9-4,17.54-.58,35.36-.67,52.6-.75q10.79,0,21.55-.14c4.34,0,5.11-.81,5.11-5.13q0-21.31,0-42.62V88.47c0-2.52-.3-4-.92-4.67s-2.21-.9-4.81-.92h-5.6c-4.89,0-10-.05-14.89.15-4.48.17-8.9.54-13.57.94l-3.62.3.82,6.87,35.35-1.7V274.57l-2.53,0c-43.22-.57-84,8-124.6,26.28l-3.53,1.58V185h-6.92V302.35l-3.53-1.61a286.56,286.56,0,0,0-60.92-20.11,283,283,0,0,0-63.39-6.09l-2.55,0V89.43l35.39,1.69.72-7.35-9.47-.22c-10.14-.25-19.71-.48-29.45-.65-1.72,0-2.91.25-3.51.85s-1,1.86-1,3.69q0,106.7,0,213.39c0,3.79.89,4.66,4.79,4.66H39.65Zm79.18-5.83L12.21,298.13V281.56h2.5c31.48-.1,60.24,4.16,88,13ZM17.21,293.21l65.45.93a284.3,284.3,0,0,0-65.45-7.58Zm156.57,6.44,16.09-5.12c27.56-8.78,56.35-13,88.07-13h2.5v16.59Zm101.66-13.11a287.77,287.77,0,0,0-65.52,7.59l65.52-.93Z"/><path class="cls-1" d="M146.48,2.5c46.59-.06,84.17,38.34,83.7,85.22-.45,45.29-38.12,82.55-84.17,82.5-46.64-.06-83.67-37.65-83.61-84.86C62.45,39.68,100.21,2.48,146.48,2.5Zm-72.1,84c.37,39.9,32.92,72.06,72.52,71.66a72.13,72.13,0,0,0,71.19-72.59C217.85,46.33,184.84,14,145.4,14.49,106.27,15,74,47.68,74.38,86.54Z"/><path class="cls-1" d="M146.11,172.72H146a85.25,85.25,0,0,1-61.09-25.49,87.34,87.34,0,0,1-25-61.88C60,38.28,98.78,0,146.45,0h.14a85.12,85.12,0,0,1,60.86,25.44,86.58,86.58,0,0,1,25.23,62.31C232.21,134.62,193.38,172.71,146.11,172.72ZM146.45,5C101.53,5,65,41,64.9,85.36a82.37,82.37,0,0,0,23.57,58.36,80.31,80.31,0,0,0,57.54,24h.1c44.54,0,81.13-35.88,81.57-80A81.64,81.64,0,0,0,203.89,29a80.14,80.14,0,0,0-57.3-24h-.14Zm-.29,155.7a73.49,73.49,0,0,1-52-21.44A74.59,74.59,0,0,1,71.88,86.57,73,73,0,0,1,93.3,34.36,74.35,74.35,0,0,1,220.59,85.59c.25,41-32.8,74.69-73.66,75.11ZM76.88,86.52a69.61,69.61,0,0,0,20.81,49.19,68.57,68.57,0,0,0,49.19,20c38.12-.39,68.94-31.83,68.71-70.08A69.73,69.73,0,0,0,145.42,17,69.05,69.05,0,0,0,96.86,37.87,68,68,0,0,0,76.88,86.52Z"/><path class="cls-1" d="M98.6,176.39h11.51v41.45H98.6Z"/><path class="cls-1" d="M112.61,220.34H96.1V173.89h16.51Zm-11.51-5h6.51V178.89H101.1Z"/><path class="cls-1" d="M193.9,218H182.39V176.53H193.9Z"/><path class="cls-1" d="M196.4,220.48H179.89V174H196.4Zm-11.51-5h6.51V179h-6.51Z"/><path class="cls-1" d="M74.11,188H62.59V152.56H74.11Z"/><path class="cls-1" d="M76.61,190.52H60.09V150.06H76.61Zm-11.52-5h6.52V155.06H65.09Z"/><path class="cls-1" d="M218.39,152.43H229.9v35.46H218.39Z"/><path class="cls-1" d="M232.4,190.39H215.89V149.93H232.4Zm-11.51-5h6.51V154.93h-6.51Z"/><path class="cls-1" d="M116.45,104.47h11.39c3.45,10,6,11.85,16.56,11.85,2.62,0,5.25.1,7.86,0,6.76-.35,12-5.63,11.93-12a12.17,12.17,0,0,0-12-11.9c-3.86-.15-7.73,0-11.59,0-13,0-23.78-9.89-24.25-22.12-.54-14,8.81-24.74,22.46-25.79.36,0,.72-.12,1.45-.24V32.64h11.86V44.21c8,.48,14.56,3.41,19.26,9.65a21.86,21.86,0,0,1,4.77,14.34H164.47c-2.64-9.34-5.87-11.79-15.45-11.8-2.87,0-5.74-.08-8.6,0-6.86.28-12,5.34-12.12,11.8s5.23,11.86,12.2,12.12c5.47.2,11.08-.45,16.4.54,12.5,2.32,20.15,13.06,19.25,25.9-.81,11.58-10.52,20.57-23.74,21.65V140H140.29V128.63C125.31,126.53,116.06,117.17,116.45,104.47Z"/><path class="cls-1" d="M154.91,142.51H137.79V130.75c-15-2.87-24.25-13-23.84-26.35L114,102h15.59l.58,1.69c3.11,9,4.7,10.16,14.19,10.16h2.41c1.84,0,3.58,0,5.33,0,5.39-.27,9.59-4.44,9.56-9.49a9.73,9.73,0,0,0-9.63-9.41c-2.5-.1-5.08-.07-7.58,0-1.31,0-2.61,0-3.92,0-14.22,0-26.22-11-26.74-24.53-.58-15,9.43-26.77,23.91-28.3V30.14h16.86V41.93c8.06,1,14.21,4.39,18.76,10.42a24.29,24.29,0,0,1,5.27,15.94l-.09,2.41H162.59l-.52-1.82c-2.35-8.3-4.55-10-13-10h-2.6c-1.95,0-4,0-5.9,0-5.54.22-9.63,4.15-9.72,9.34s4.21,9.37,9.79,9.58c1.81.07,3.7,0,5.52,0a56,56,0,0,1,11.24.57c13.54,2.51,22.3,14.25,21.29,28.53-.85,12.24-10.48,21.72-23.73,23.71Zm-12.12-5h7.12V126.14l2.29-.19c11.9-1,20.73-8.93,21.46-19.34.83-11.85-6.09-21.2-17.22-23.26a51.27,51.27,0,0,0-10.25-.49c-1.89,0-3.84.06-5.79,0-8.33-.31-14.74-6.75-14.6-14.66s6.38-13.93,14.52-14.26c2.06-.08,4.14-.06,6.14,0H149c10.08,0,14.37,2.81,17.31,11.8h7.23a19.86,19.86,0,0,0-4.21-10.34c-4-5.36-9.74-8.19-17.41-8.65l-2.35-.14V35.14h-6.86V46.32l-2.1.34-.63.11c-.43.08-.73.12-1,.15-12.36.95-20.64,10.49-20.15,23.2C119.24,81,129,89.8,140.57,89.84c1.29,0,2.58,0,3.87,0,2.55,0,5.2,0,7.82.06a14.71,14.71,0,0,1,14.43,14.38c0,7.72-6.24,14.09-14.3,14.51-1.91.1-3.81.07-5.65,0H144.4c-11,0-14.74-2.27-18.32-11.85H119c.82,10.15,8.89,17.4,21.62,19.18l2.16.3Z"/></g></g></svg>