<svg xmlns="http://www.w3.org/2000/svg" viewBox="0 0 33.35 33.35"><defs><style>.cls-1{fill:#fff;}</style></defs><g id="Capa_2" data-name="Capa 2"><g id="Capa_1-2" data-name="Capa 1"><path class="cls-1" d="M0,27.82V5.54a1.27,1.27,0,0,0,.06-.18,6.17,6.17,0,0,1,4-5A11.69,11.69,0,0,1,5.54,0H27.82l.47.1a6.24,6.24,0,0,1,5.06,6.15V27.09a6.52,6.52,0,0,1-.09,1.17,6.24,6.24,0,0,1-6.1,5.09h-21A6.22,6.22,0,0,1,.34,29.16c-.15-.43-.23-.9-.34-1.34M27.16,8.7l-.32.16a8.24,8.24,0,0,1-2.34.86.44.44,0,0,1-.36-.09,4.56,4.56,0,0,0-7.73,3.09V14A13.19,13.19,0,0,1,7,9.16c-1,2.37-.75,4.4,1.29,6.07l-.06.1-2-.55a4.35,4.35,0,0,0,1,2.81,4.71,4.71,0,0,0,2.59,1.6l0,.13H8.06a4.69,4.69,0,0,0,4.24,3.16A9.17,9.17,0,0,1,5.74,24.4v.05l.11.07a13,13,0,0,0,10.3,1.4,11.79,11.79,0,0,0,6.4-4.21,13.26,13.26,0,0,0,3-8.64.65.65,0,0,1,.19-.4c.3-.29.65-.54.94-.84s.7-.81,1.1-1.27l-2.47.68,0-.09A4.5,4.5,0,0,0,27.16,8.7"/></g></g></svg>