<svg xmlns="http://www.w3.org/2000/svg" viewBox="0 0 359.38 408.74"><defs><style>.cls-1{fill:#999999;}</style></defs><g id="Capa_2" data-name="Capa 2"><g id="Capa_1-2" data-name="Capa 1"><path class="cls-1" d="M158.07,408.74c-6.19-.55-12.38-1.08-18.58-1.64-33.31-3-66-8.73-96.87-22.38-11.5-5.08-22.21-11.43-31-20.66-15.93-16.79-15.49-39.22,1-55.46C23.42,298,36.46,291.27,50.26,285.86c18.46-7.23,37.63-12,57.17-15.22,1-.18,2-.45,3.49-.77-.77-1.36-1.34-2.47-2-3.52-13.75-21.49-27.65-42.88-41.22-64.48a124.19,124.19,0,0,1-19-55.61C44.6,100.1,60,61.37,95,31.3,124.77,5.72,159.81-4,198.9,1.48c50,7,94,45.51,107.2,93.93,10.8,39.68,5.09,76.69-17.51,111.17-13.18,20.12-25.94,40.5-38.89,60.77-.42.67-.79,1.36-1.48,2.56,4.41.81,8.53,1.51,12.62,2.35,22.53,4.64,44.68,10.47,65.13,21.44,10.41,5.58,20,12.32,26.7,22.26,10.23,15.15,8.64,32.9-3.95,46.88-9.83,10.91-22.38,17.87-35.69,23.44-25.41,10.64-52.11,16.2-79.38,19.22-9.9,1.09-19.85,1.69-29.78,2.55a30.15,30.15,0,0,0-3.48.69Zm21.58-76.49c1.32-2,2.26-3.45,3.19-4.9,28.67-44.9,57.2-89.9,86-134.69,27.69-43,24.29-95.47-10.09-133.24-26.4-29-59.81-40-98.43-33.46C132,30.78,109.58,45.84,92.44,69,67,103.24,65.27,153.45,88.28,189.4q44.18,69,88.2,138C177.39,328.88,178.35,330.29,179.65,332.25Zm-.4,53.4c19.32-1.59,38.69-2.78,58-4.89a239.18,239.18,0,0,0,65.06-16.1c10.58-4.34,20.92-9.34,28.65-18.23,5.58-6.42,6-12.75,0-18.8a72.83,72.83,0,0,0-16-12.34c-24.06-13.38-50.6-18.55-77.48-22.47-3-.44-4.44.53-6,2.95-13.4,21.24-26.84,42.45-40.52,63.5a19,19,0,0,1-7.83,6.86c-5.53,2.37-10.77-.27-14.67-6.38Q148,327.68,127.61,295.53c-1.46-2.31-2.85-3.3-5.71-2.71-5.19,1.07-10.49,1.59-15.71,2.51C86.8,298.74,67.82,303.6,50,312.15c-7.93,3.81-15.51,8.24-21.4,15s-6,12.9,0,19.48A49.41,49.41,0,0,0,36.91,354c12.57,8.77,26.81,13.88,41.4,18C111.27,381.36,145.07,384.36,179.25,385.65Z"/><path class="cls-1" d="M179.93,72.6A59.78,59.78,0,0,1,239.51,133c-.11,32.89-27,59.45-60.17,59.38A59.78,59.78,0,0,1,119.75,132C119.86,99.09,146.78,72.53,179.93,72.6Zm35.58,59.82c-.89-20.58-15.72-35.7-35.93-35.64-20.59.06-35.7,15.54-35.65,35.75.06,20.56,15.52,35.7,35.76,35.64C200.25,168.12,214.72,152.65,215.51,132.42Z"/><polygon class="cls-1" points="218.87 128.87 223.78 120.81 230.09 136.93 218.87 128.87"/></g></g></svg>