<svg xmlns="http://www.w3.org/2000/svg" viewBox="0 0 46.93 44.5"><defs><style>.cls-1{fill:#e10d15;}.cls-2{fill:#e95120;}.cls-3{fill:#fef2f2;}</style></defs><g id="Capa_2" data-name="Capa 2"><g id="Capa_1-2" data-name="Capa 1"><path class="cls-1" d="M23.47,0A3.82,3.82,0,0,1,27,2.12q2.21,4.09,4.39,8.2,7.43,13.91,14.85,27.81a12.32,12.32,0,0,1,.65,1.61v1.47c-.12,0-.08.14-.1.22a4.12,4.12,0,0,1-4.12,3.07H24l-.5,0c0-2,0-3.95,0-5.92l.58-.1A3.65,3.65,0,0,0,25.73,32a4.16,4.16,0,0,0-2.27-.82v-3.6l.23,0a3.78,3.78,0,0,0,3.46-3.93c-.09-2.58,0-5.16,0-7.75a4,4,0,0,0,0-.59,3.68,3.68,0,0,0-3.61-3Z"/><path class="cls-2" d="M23.47,0V12.23a3.69,3.69,0,0,0-3.67,3.63c0,2.68,0,5.35,0,8a3.57,3.57,0,0,0,2.07,3.26,5.82,5.82,0,0,0,1.58.4v3.6a2,2,0,0,1-.26.06,3.66,3.66,0,0,0-1.15,7,7.6,7.6,0,0,0,1.41.33c0,2,0,4,0,5.92-6.43,0-12.85,0-19.28,0A4.06,4.06,0,0,1,0,40.23a4.59,4.59,0,0,1,.62-2L15.8,9.8c1.34-2.51,2.69-5,4-7.55A4,4,0,0,1,23.47,0Z"/><path class="cls-3" d="M23.46,27.54a6.2,6.2,0,0,1-1.58-.39,3.52,3.52,0,0,1-2.07-3.21c0-2.64,0-5.27,0-7.9a3.66,3.66,0,1,1,7.32,0c0,2.54-.06,5.09,0,7.63a3.75,3.75,0,0,1-3.46,3.87Z"/><path class="cls-3" d="M23.46,38.55a7.6,7.6,0,0,1-1.41-.33,3.66,3.66,0,0,1,1.15-7,2,2,0,0,0,.26-.06,4.16,4.16,0,0,1,2.27.82A3.65,3.65,0,0,1,24,38.45Z"/></g></g></svg>