<svg xmlns="http://www.w3.org/2000/svg" viewBox="0 0 149.1 135.79"><defs><style>.cls-1{fill:#fff;}</style></defs><g id="Capa_2" data-name="Capa 2"><g id="Capa_1-2" data-name="Capa 1"><path class="cls-1" d="M69.28,0H79.77a8.19,8.19,0,0,0,1.09.25c2.59.31,5.21.48,7.77.93A75.94,75.94,0,0,1,123.1,16.37C136.92,27.31,145.38,41,148.24,57.52c.32,1.86.57,3.73.86,5.59v9.55a3.89,3.89,0,0,0-.27.86A56.14,56.14,0,0,1,146,87.4c-10.84,32.66-46.81,53.77-85.53,47.19A73.16,73.16,0,0,1,26,119.38C4.74,102.11-3.43,80.51,1.3,55c2.19-11.81,8-22.26,16.59-31.31C29.91,11.1,45,3.39,63.13.78,65.18.49,67.23.26,69.28,0Zm5.27,8C38.38,7.93,8.72,34.9,8.69,67.86s29.6,59.92,65.81,60,65.83-26.95,65.86-59.91S110.75,8,74.55,8Z"/><path class="cls-1" d="M65.05,57.81,85.67,76.58c1.2-1.18,2.42-2.49,3.75-3.69,5.21-4.64,12-5,17.51-.64a88,88,0,0,1,9.42,8.64c4.44,4.75,4.09,10.84-.6,15.35-2.54,2.44-5.17,4.8-7.84,7.11-4.34,3.75-9.69,5-15.51,4.89-7.41-.11-14.2-2.29-20.61-5.41A83,83,0,0,1,37.4,72.58c-3.63-5.68-6.28-11.75-7-18.33-.8-6.89.74-13.17,6.62-18.11,2.07-1.74,4-3.63,6-5.43,5.2-4.66,12-5.07,17.51-.74a88.2,88.2,0,0,1,9.35,8.53c4.65,4.91,4.25,11-.72,15.73C67.78,55.47,66.39,56.64,65.05,57.81Zm27.8,42.44a13.71,13.71,0,0,0,10.4-3.92c1.86-1.86,3.9-3.57,5.85-5.36s2-3.67,0-5.52q-3.65-3.33-7.31-6.65c-2.27-2.06-4.2-2-6.5,0-2.14,1.93-4.25,3.88-6.39,5.81-2.38,2.15-4.76,2.16-7.11,0Q68.93,73,56.06,61.25c-2.36-2.16-2.34-4.3,0-6.47s4.55-4.11,6.79-6.2c1.77-1.65,1.75-3.61,0-5.25q-3.78-3.49-7.62-6.94c-2-1.84-4-1.83-6.07,0s-4.15,3.86-6.3,5.7A10.9,10.9,0,0,0,39,50.55a25.2,25.2,0,0,0,2.73,11.81c7.85,16.16,20.8,27.78,38.36,35.16A33.91,33.91,0,0,0,92.85,100.25Z"/><polygon class="cls-1" points="95.46 74.28 100.57 74.28 100.57 71.72 95.46 74.28"/></g></g></svg>