<svg xmlns="http://www.w3.org/2000/svg" viewBox="0 0 142.11 86.57"><defs><style>.cls-1{fill:#fff;}</style></defs><g id="Capa_2" data-name="Capa 2"><g id="Capa_1-2" data-name="Capa 1"><path class="cls-1" d="M142.11,77.43a23.76,23.76,0,0,1-1.39,3.24,12.14,12.14,0,0,1-10.95,5.87q-58.7.06-117.4,0C5.57,86.56,0,81.74,0,75.86Q0,43.28,0,10.7C0,4.81,5.57,0,12.38,0H129.63c5.8,0,10.72,3.36,12.16,8.23.09.31.21.61.32.91ZM127.53,7.58l-.3-.29H14.62c.48.44.81.76,1.16,1.06L67.1,53c2.69,2.34,5.23,2.34,7.92,0q24.18-21,48.39-42C124.73,9.77,126.15,8.69,127.53,7.58ZM14.58,79.27H127.51L91.84,48.7c-.14.11-.48.38-.8.66-3.43,3-6.82,6-10.31,8.91a16.42,16.42,0,0,1-3.87,2.49,14.56,14.56,0,0,1-15.29-2.3c-3.84-3.29-7.67-6.6-11.33-9.75Zm29.56-36L8.43,12.63V73.81Zm89.52,30.67V13L98.1,43.43Z"/></g></g></svg>