<svg xmlns="http://www.w3.org/2000/svg" viewBox="0 0 126.87 140.49"><defs><style>.cls-1{fill:#bb945b;}</style></defs><g id="Capa_2" data-name="Capa 2"><g id="Capa_1-2" data-name="Capa 1"><path class="cls-1" d="M47.59,45.84c0-3.71,0-7.39,0-11.07,0-2.31.73-3,3-3H76.25c2.32,0,3,.73,3,3v11.1l13,3.7c2.62.75,2.9,1.1,2.9,3.85V81.58H117c2.32,0,3.17.76,3,3q-.32,4.73-.92,9.42c-.25,2-1,2.58-3,2.54-5.08-.09-4.9.2-6.44,4.5-.63,1.72-1.43,3.38-2.2,5.05-.93,2-.81,2.89.71,4.43.63.64,1.28,1.26,1.9,1.91a2.27,2.27,0,0,1,.31,3.09,56.48,56.48,0,0,1-15.21,15.22,2.27,2.27,0,0,1-3.09-.3c-.71-.69-1.39-1.41-2.11-2.1-1.3-1.25-2.3-1.37-4-.64-2.46,1.06-4.94,2.1-7.43,3.09-1.69.67-2.33,1.48-2.36,3.26,0,.94,0,1.89,0,2.83a2.29,2.29,0,0,1-2,2.51,54.6,54.6,0,0,1-21.5,0,2.25,2.25,0,0,1-2-2.38c0-1,0-2.08,0-3.11a3,3,0,0,0-2.11-3c-2.62-1.06-5.24-2.11-7.82-3.24a3.11,3.11,0,0,0-3.76.62c-.67.66-1.32,1.34-2,2a2.38,2.38,0,0,1-3.52.32,56.34,56.34,0,0,1-14.82-14.83,2.35,2.35,0,0,1,.27-3.42c.68-.71,1.4-1.39,2.09-2.11a3.05,3.05,0,0,0,.65-3.62c-1.14-2.64-2.22-5.3-3.3-8a3.05,3.05,0,0,0-3.05-2.08h-3a2.2,2.2,0,0,1-2.48-2c-.41-3.51-.79-7-1-10.54-.11-1.64.92-2.44,2.76-2.45q10.19,0,20.38,0h1.75V53.12c0-2.37.33-2.81,2.64-3.46L46.45,46.2C46.81,46.1,47.16,46,47.59,45.84ZM12,92l1,.06c4.09.08,6.47,1.85,7.86,5.64.85,2.3,1.82,4.55,2.83,6.78a7.58,7.58,0,0,1-1.45,9l-.94,1A51.23,51.23,0,0,0,32.84,126c.36-.33.64-.58.91-.84,2.75-2.65,5.73-3.07,9.21-1.48,2.34,1.08,4.76,2,7.17,3a7.6,7.6,0,0,1,5.1,7.12c0,.5,0,1,0,1.53a48.83,48.83,0,0,0,16.36,0c0-.42,0-.74.06-1.07.07-4,1.89-6.4,5.59-7.75,2.34-.85,4.63-1.86,6.9-2.89a7.39,7.39,0,0,1,7.3.26A24.5,24.5,0,0,1,94.12,126a51.28,51.28,0,0,0,11.45-11.47c-.27-.31-.47-.56-.7-.79-2.84-3-3.24-5.84-1.51-9.56,1-2.26,2-4.59,2.84-6.92a7.54,7.54,0,0,1,6.09-5.08,21.44,21.44,0,0,1,2.63-.15c.2-2,.39-3.85.6-5.79H99.27a36,36,0,0,1-35,33.48,34.69,34.69,0,0,1-21.87-6.81c-9-6.61-13.77-15.62-14.78-26.66H11.36ZM32.4,86.18c.34,13.33,12.15,29.07,31.2,28.95C83,115,94.26,98.83,94.47,86.18Zm24.25-4.67c0-3,0-5.73,0-8.51,0-1.94.82-2.73,2.77-2.75,2.55,0,5.1,0,7.65,0s3.17.69,3.17,3.2v8h4.41V36.35H52.21V81.51Zm33.77,0c.12-.17.17-.21.17-.25,0-8.91,0-17.82,0-26.74,0-.29-.24-.78-.48-.85-3.55-1.05-7.12-2.05-10.7-3.07V81.55ZM47.54,50.61c-3.48,1-6.76,2-10.08,2.87a1.38,1.38,0,0,0-1.23,1.62c.05,8.4,0,16.79,0,25.19,0,.4.05.81.08,1.18h11.2ZM61.29,74.84v6.67h4.34V74.84Z"/><path class="cls-1" d="M22.66,70.19H18.14V67c0-4.1,0-8.2,0-12.31a1.5,1.5,0,0,0-1-1.63c-1.55-.7-3.06-1.47-4.55-2.28a1.63,1.63,0,0,0-2,.16,6.62,6.62,0,0,1-8-.24,6.78,6.78,0,1,1,11-5.65,1.73,1.73,0,0,0,1.19,1.78c2.13,1,4.22,2.09,6.33,3.14a2.46,2.46,0,0,1,1.58,2.3ZM6.85,43.07a2.26,2.26,0,1,0,2.21,2.26A2.28,2.28,0,0,0,6.85,43.07Z"/><path class="cls-1" d="M108.75,70.18h-4.53V68.74c0-5.23,0-10.47,0-15.7a3.23,3.23,0,0,1,2.14-3.4c2-.9,4-2,6-2.93a1.53,1.53,0,0,0,1-1.59,6.77,6.77,0,1,1,11.26,5.28,6.57,6.57,0,0,1-8.23.53,1.81,1.81,0,0,0-2.25-.11,46.36,46.36,0,0,1-4.17,2.09,1.75,1.75,0,0,0-1.21,1.91c.06,4.58,0,9.15,0,13.73Zm13.58-24.85a2.26,2.26,0,1,0-2.22,2.25A2.28,2.28,0,0,0,122.33,45.33Z"/><path class="cls-1" d="M40.67,45.26H36.26V35.91a6.72,6.72,0,0,1,0-1.27c.57-3.16-.63-5.51-3.13-7.4a1.66,1.66,0,0,0-1.72-.38,6.77,6.77,0,1,1,4.7-7.64,7,7,0,0,1-.2,3.05,1.49,1.49,0,0,0,.56,1.93c3.69,2.58,4.84,6.08,4.38,10.5a101.6,101.6,0,0,0-.09,10.18A2.4,2.4,0,0,1,40.67,45.26ZM29.44,22.66a2.26,2.26,0,1,0-2.23-2.24A2.27,2.27,0,0,0,29.44,22.66Z"/><path class="cls-1" d="M90.63,45.27H86.1V43c0-4.25,0-8.49,0-12.73a3.68,3.68,0,0,1,1.22-3c1-.95,2-2,3-3a1.8,1.8,0,0,0,.6-2.18,6.59,6.59,0,0,1,2.77-7.4,6.78,6.78,0,0,1,10.11,8,6.81,6.81,0,0,1-6.55,4.49,5.49,5.49,0,0,1-.7-.05c-.76-.11-1.81-.6-2.23-.28a27.06,27.06,0,0,0-3.6,3.58c-.22.25-.09.82-.09,1.24C90.62,36.16,90.63,40.63,90.63,45.27Zm6.75-22.61a2.26,2.26,0,1,0-2.21-2.26A2.26,2.26,0,0,0,97.38,22.66Z"/><path class="cls-1" d="M65.71,29.4H61.18V27.91c0-4.49,0-9,0-13.45a1.62,1.62,0,0,0-1-1.75A6.61,6.61,0,0,1,56.9,5a6.77,6.77,0,0,1,13.1,0,6.61,6.61,0,0,1-3.36,7.66,1.54,1.54,0,0,0-1,1.63c0,4.48,0,9,0,13.45ZM63.33,9.06a2.25,2.25,0,1,0-2.14-2.33A2.28,2.28,0,0,0,63.33,9.06Z"/><path class="cls-1" d="M18.2,79.24V74.88h4.38v4.36Z"/><path class="cls-1" d="M108.64,79.26h-4.33v-4.4h4.33Z"/><path class="cls-1" d="M56.71,47.52V43.16H70.15v4.36Z"/><path class="cls-1" d="M56.71,56.56V52.2H70.13v4.36Z"/><path class="cls-1" d="M70.17,61.28v4.37H56.76V61.28Z"/><path class="cls-1" d="M81.62,61.12V56.75h6.66v4.37Z"/><path class="cls-1" d="M81.63,65.77h6.64v4.4H81.63Z"/><path class="cls-1" d="M38.64,56.71h6.59v4.4H38.64Z"/><path class="cls-1" d="M38.58,70.18V65.81h6.66v4.37Z"/></g></g></svg>