<svg xmlns="http://www.w3.org/2000/svg" viewBox="0 0 105.15 105.21"><defs><style>.cls-1{fill:#6a1b32;}</style></defs><g id="Capa_2" data-name="Capa 2"><g id="Capa_1-2" data-name="Capa 1"><path class="cls-1" d="M56.64,104.71H48.51c-.11-.24-.34-.18-.53-.2a50.36,50.36,0,0,1-24-8.39C11.25,87.5,3.56,75.58,1.07,60.35A14.3,14.3,0,0,0,.5,56.91V48.37c.3-.13.19-.4.21-.62a50.62,50.62,0,0,1,1.12-6.81c4-16.08,13.43-27.88,28.25-35.23A49.71,49.71,0,0,1,61,1.26a50.76,50.76,0,0,1,33,20,50.62,50.62,0,0,1,10.14,38.44,50.19,50.19,0,0,1-12.75,27.6,51.32,51.32,0,0,1-31.13,16.89A18,18,0,0,0,56.64,104.71Zm-4-97.64A45.57,45.57,0,1,0,98.14,52.7,45.65,45.65,0,0,0,52.59,7.07Z"/><path class="cls-1" d="M56.73,105.21H48.18l-.09-.19h-.15a51,51,0,0,1-24.22-8.48A52.23,52.23,0,0,1,.58,60.43c-.07-.4-.1-.79-.13-1.19A7,7,0,0,0,0,57.11l0-.2V48l.21-.09a1.49,1.49,0,0,1,0-.24,50.79,50.79,0,0,1,1.12-6.88C5.38,24.61,15,12.65,29.86,5.26A50.17,50.17,0,0,1,61.12.77a51.31,51.31,0,0,1,33.3,20.14,51.16,51.16,0,0,1,10.23,38.81A50.76,50.76,0,0,1,91.79,87.58a52.07,52.07,0,0,1-31.43,17.06c-.41.06-.83.1-1.25.13a8.52,8.52,0,0,0-2.29.41Zm-8-1h7.8a9.78,9.78,0,0,1,2.47-.43c.4,0,.79-.07,1.19-.13A51.09,51.09,0,0,0,91,86.91a49.7,49.7,0,0,0,12.62-27.32,50.21,50.21,0,0,0-10-38.08A50.36,50.36,0,0,0,61,1.75,49.22,49.22,0,0,0,30.3,6.16c-14.61,7.25-24,19-28,34.9a51.47,51.47,0,0,0-1.1,6.74,1.11,1.11,0,0,1-.21.82v8.19a7.86,7.86,0,0,1,.44,2.35c0,.37.06.74.12,1.11A51.29,51.29,0,0,0,24.28,95.7,49.9,49.9,0,0,0,48,104,1.2,1.2,0,0,1,48.75,104.21Zm3.83-5.51h0a46.07,46.07,0,0,1,0-92.13h0a46.07,46.07,0,0,1,0,92.13Zm0-91.13a45.16,45.16,0,0,0-45.06,45A45.15,45.15,0,0,0,52.56,97.7h0a45.15,45.15,0,0,0,45.06-45,45.15,45.15,0,0,0-45-45.13h0Z"/><path class="cls-1" d="M72,41.7a3.51,3.51,0,0,1-1,2.53Q60.32,54.94,49.61,65.64a3.16,3.16,0,0,1-4.71,0q-5.41-5.37-10.79-10.78a3.25,3.25,0,1,1,4.63-4.56c2.65,2.62,5.29,5.25,7.89,7.91.51.52.76.48,1.26,0Q57,49,66.2,39.85a3.3,3.3,0,0,1,3.48-1.08A3.18,3.18,0,0,1,72,41.7Z"/><path class="cls-1" d="M47.26,67.19A3.86,3.86,0,0,1,44.54,66Q39.13,60.61,33.76,55.2a3.76,3.76,0,0,1,2.51-6.48,4,4,0,0,1,2.82,1.21C41.43,52.24,44.2,55,47,57.85a1.05,1.05,0,0,0,.28.23s.06,0,.26-.24q5.51-5.54,11-11.05,3.64-3.65,7.28-7.3a3.81,3.81,0,0,1,4-1.2,3.67,3.67,0,0,1,2.71,3.4v0a4,4,0,0,1-1.15,2.87l-4.95,5Q58.19,57.78,50,66A3.83,3.83,0,0,1,47.26,67.19Zm-11-17.47h0a2.6,2.6,0,0,0-1.89.84,2.68,2.68,0,0,0,.09,3.93q5.37,5.41,10.78,10.78a2.66,2.66,0,0,0,4,0q8.25-8.2,16.47-16.45l5-5a3,3,0,0,0,.85-2.18,2.7,2.7,0,0,0-2-2.44,2.8,2.8,0,0,0-3,1l-7.29,7.29q-5.5,5.52-11,11a1.52,1.52,0,0,1-1,.53,1.38,1.38,0,0,1-1-.52c-2.79-2.85-5.56-5.6-7.9-7.91A3,3,0,0,0,36.29,49.72Z"/></g></g></svg>