<svg xmlns="http://www.w3.org/2000/svg" viewBox="0 0 90.55 104.67"><defs><style>.cls-1{fill:#6a1b32;}</style></defs><g id="Capa_2" data-name="Capa 2"><g id="Capa_1-2" data-name="Capa 1"><path class="cls-1" d="M30.22,51.49A28.38,28.38,0,0,1,21,41.74,28,28,0,1,1,50.15,55.46c-2.59.44-5.26.43-7.89.63A37.18,37.18,0,0,0,20.72,64.9,37.74,37.74,0,0,0,7.46,88.3,42.22,42.22,0,0,0,7,93.81a3.53,3.53,0,0,0,3.82,3.89H45a3.48,3.48,0,0,1,3.78,3.45c0,2.1-1.52,3.51-3.83,3.51H10.55A10.38,10.38,0,0,1,0,94.14,45.26,45.26,0,0,1,29.16,52C29.46,51.84,29.75,51.7,30.22,51.49Zm15.05-2.55A20.9,20.9,0,1,0,24.38,28.23,21,21,0,0,0,45.27,48.94Z"/><path class="cls-1" d="M74.88,75.07H87.07a3.48,3.48,0,0,1,0,7c-3.63,0-7.25,0-10.88,0H74.88V94a3.49,3.49,0,1,1-7,0c0-4,0-7.9,0-12h-12a3.49,3.49,0,1,1,0-7H67.55a1.89,1.89,0,0,0,.36-.09V73.86q0-5.39,0-10.77a3.49,3.49,0,1,1,7,0Z"/></g></g></svg>