<svg xmlns="http://www.w3.org/2000/svg" viewBox="0 0 170.46 203.04"><defs><style>.cls-1{fill:#bc955c;}</style></defs><g id="Capa_2" data-name="Capa 2"><g id="Capa_1-2" data-name="Capa 1"><path class="cls-1" d="M89.59,0c3.36.9,6.83,1.49,10,2.75,28.22,11,34.18,48.32,10.85,67.54-.45.36-.86.77-1.25,1.12,3.66,1.81,7.47,3.24,10.76,5.44,4.87,3.25,9.41,7,14,10.66a2.49,2.49,0,0,0,3,.6c3-1.23,6-2.33,9-3.44,4.86-1.79,8.66.88,8.67,6.06,0,6.8,0,13.61,0,20.51,10.59,3.33,16.65,10.31,15.72,21.64-.77,9.37-6.65,15-15.72,17.65v21.55c0,4.38-1,5.83-5.11,7.39q-30.61,11.49-61.25,23a8.22,8.22,0,0,1-6.13,0q-30.9-11.64-61.85-23.18C17,178,15.8,176.2,15.8,172.64c0-7.34,0-14.67,0-22C5.52,147.36-.54,140.71,0,129.69c.51-9.8,6.45-15.63,15.76-18.4,0-6.78.23-13.6-.08-20.39-.22-4.59,4-8.34,9-6.17,3,1.32,6.15,2.37,9.27,3.42a2.36,2.36,0,0,0,2-.31A70.52,70.52,0,0,1,61,71.78c.1,0,.15-.17,0,0-2.79-3.12-5.85-6-8.25-9.33C36.23,39.4,49.4,6.33,77.22.79,78.43.54,79.65.26,80.86,0Zm53.16,98.76c-.77.27-1.32.46-1.86.67-15.91,6-31.82,11.95-47.75,17.86-1.42.53-2,1.07-2,2.74.08,22.14,0,44.28.06,66.42,0,.62,0,1.25.08,1.86a2.21,2.21,0,0,0,.53,0q24.9-9.31,49.77-18.7a2.42,2.42,0,0,0,1.14-1.85c.09-5.22,0-10.44.07-15.66a1.6,1.6,0,0,0-1.23-1.86c-4.47-1.63-6.72-5.06-6.72-9.89q0-9.53,0-19a10,10,0,0,1,6.67-9.79A2.27,2.27,0,0,0,142.7,110C142.8,106.34,142.75,102.7,142.75,98.76ZM79.16,188.49c0-.44.11-.69.11-.93q0-34.11,0-68.21c0-1.23-.6-1.55-1.52-1.89l-37.2-13.93L27.7,98.7c0,4-.06,7.65.05,11.35A2.29,2.29,0,0,0,29,111.56a10,10,0,0,1,6.6,9.64q0,9.72,0,19.43A9.67,9.67,0,0,1,29,150.2a1.69,1.69,0,0,0-1.33,2c0,5.09.07,10.18,0,15.27a2.1,2.1,0,0,0,1.66,2.39c11.43,4.22,22.83,8.51,34.24,12.79Zm6.06-121A27.78,27.78,0,1,0,57.45,39.67,28,28,0,0,0,85.22,67.45Zm-37.34,26C60.07,98,72.09,102.55,84.14,107a4.1,4.1,0,0,0,2.6-.16c10-3.68,19.88-7.42,29.82-11.14l6.07-2.3C101,74.32,67.94,75.31,47.88,93.44ZM23.65,123c-1.54,0-2.92-.09-4.29,0a8,8,0,0,0-7.52,7.57,7.85,7.85,0,0,0,6.5,8,39.82,39.82,0,0,0,5.31.3Zm123.21-.09v15.93c1.46,0,2.78.07,4.09,0a8.08,8.08,0,0,0,7.65-7.45,7.87,7.87,0,0,0-6.54-8.17A39.64,39.64,0,0,0,146.86,122.92Z"/></g></g></svg>