<svg xmlns="http://www.w3.org/2000/svg" viewBox="0 0 111.56 72.21"><defs><style>.cls-1{fill:#ddc9a3;}</style></defs><g id="Capa_2" data-name="Capa 2"><g id="Capa_1-2" data-name="Capa 1"><path class="cls-1" d="M111.1,40.31a8.51,8.51,0,0,0-9.82-5.65,49.71,49.71,0,0,0-6.57,2c-4.57,1.53-9.11,3.1-13.66,4.66A1.23,1.23,0,0,1,79.49,41,8.69,8.69,0,0,0,74,38.11c-3.66-.53-7.31-1.15-11-1.59a4.63,4.63,0,0,1-3.35-1.93,28.5,28.5,0,0,0-6.7-6.24H81.63c0-1.86-.15-3.31,0-5.06.19-3.34,0-6.7,0-10.1l7.67-2c0,2.37,0,4.6,0,6.84,0,1.21.56,1.87,1.55,1.87s1.52-.65,1.52-1.89q0-4.18,0-8.35c0-1.36-.34-1.81-1.66-2.16Q76.58,3.76,62.43.09a3.25,3.25,0,0,0-1.58,0c-5.22,1.33-10.42,2.7-15.63,4.07L32.29,7.6A1.51,1.51,0,0,0,31,9.41a1.58,1.58,0,0,0,1.36,1.29c3.11.81,6.22,1.65,9.37,2.49,0,3.93,0,7.77,0,11.6a28.94,28.94,0,0,0-9.24,1.26c-3.95,1.16-7.75,2.85-11.59,4.35a1.49,1.49,0,0,1-1.79-.26,6.25,6.25,0,0,0-6.71-1c-2.84,1.14-5.67,2.35-8.46,3.62A6.42,6.42,0,0,0,.59,41.39Q3.43,48,6.27,54.67t5.79,13.51a6.4,6.4,0,0,0,8.46,3.52Q24.84,69.94,29.1,68a6.32,6.32,0,0,0,3.78-4.82c.37-1.93.6-2.2,2.58-2.45a7.94,7.94,0,0,1,2.66,0,52.74,52.74,0,0,1,7.6,2.12c4.29,1.75,8.45,3.84,12.69,5.72a14.25,14.25,0,0,0,9.85,1,45.77,45.77,0,0,0,7.35-2.89c5.16-2.52,10.25-5.2,15.36-7.82,5.31-2.72,10.65-5.37,15.9-8.19A8.57,8.57,0,0,0,111.1,40.31ZM39.68,9.41l-.58-.2V9L45,7.45c5.3-1.39,10.59-2.79,15.9-4.16a2.65,2.65,0,0,1,1.31-.06C67.54,4.6,72.84,6,78.13,7.42c.05,0,.09.07.23.19H77.07c-5,0-10.1,0-15.15,0-1.25,0-2.05.86-1.74,1.92a1.58,1.58,0,0,0,1.76,1.15c5.08,0,10.16,0,15.24,0h1l0,.15L73.88,12,62.51,15a3.07,3.07,0,0,1-1.41.07C54,13.19,46.82,11.29,39.68,9.41ZM44.84,14c.7.17,1.37.32,2,.49,4.65,1.22,9.3,2.46,14,3.65a3.41,3.41,0,0,0,1.68,0c5.05-1.29,10.1-2.62,15.15-3.94.25-.07.5-.12.86-.2V26H48.06a20.56,20.56,0,0,0-3.22-.83ZM26.47,63.51q-3.69,1.6-7.4,3.17c-1.44.61-1.92.39-2.56-1.09Q11,52.72,5.5,39.86c-.63-1.48-.45-1.9,1-2.55C9,36.24,11.48,35.19,14,34.14c1.43-.6,1.76-.48,2.36.93q2.81,6.51,5.59,13T27.43,61C28,62.47,27.89,62.89,26.47,63.51Zm77.46-17.14q-13.65,7-27.32,13.92c-2.73,1.37-5.5,2.69-8.32,3.86a10,10,0,0,1-8.07-.43c-3.38-1.51-6.71-3.15-10.09-4.67-1.75-.79-3.52-1.53-5.33-2.14-4.44-1.49-8.93-2.17-13.51-.37-3-7-6-14-9-21,0-.07.05-.18.11-.21,4.86-2.17,9.73-4.29,15-5.14,6.77-1.08,12.31,1.1,16.83,6.11a32,32,0,0,1,2.14,2.52A6.41,6.41,0,0,0,61,41.42q6.25.9,12.5,1.87a3.53,3.53,0,0,1,3.1,2.83,3.24,3.24,0,0,1-1.48,3.78,5.61,5.61,0,0,1-3.25.59c-6.41-.85-12.8-1.87-19.2-2.78a4.23,4.23,0,0,0-2.32.3,2.32,2.32,0,0,0-1.17,2.62,2.45,2.45,0,0,0,1.9,2,8.62,8.62,0,0,0,1.13.2q9.4,1.41,18.82,2.79c5.89.87,10.18-2.45,10.87-8.34a1.64,1.64,0,0,1,.93-1.08c3.61-1.29,7.24-2.51,10.87-3.74,2.5-.85,5-1.67,7.51-2.51,2.15-.73,4.22,0,4.92,1.68S106,45.34,103.93,46.37Z"/></g></g></svg>