<svg xmlns="http://www.w3.org/2000/svg" viewBox="0 0 33.41 33.42"><defs><style>.cls-1{fill:#fff;}</style></defs><g id="Capa_2" data-name="Capa 2"><g id="Capa_1-2" data-name="Capa 1"><path class="cls-1" d="M29.5,33.42H3.92a1,1,0,0,0-.15-.07A4.52,4.52,0,0,1,0,28.86V4.52A4.53,4.53,0,0,1,4.52,0H28.89a4.53,4.53,0,0,1,4.33,3.24c.07.22.13.45.19.68V29.5a.84.84,0,0,0-.06.14,4.52,4.52,0,0,1-3.24,3.61l-.61.17M18.08,14.12c0-1,0-2,0-2.92a1.32,1.32,0,0,1,1.34-1.34c.6,0,1.21,0,1.82,0,.43,0,.61-.19.62-.62V6.91c0-.43-.2-.64-.64-.64-.78,0-1.57,0-2.35,0a4.4,4.4,0,0,0-4.59,4.42c-.06,1,0,2,0,3.06v.37H12.11c-.51,0-.69.19-.69.69v2.35c0,.86.1,1,1,1h1.84v8.39c0,.55.1.64.65.64h2.54c.53,0,.64-.11.64-.65,0-2.65,0-5.31,0-8v-.42H21c.39,0,.61-.16.65-.5q.18-1.43.33-2.85a.54.54,0,0,0-.56-.64c-.33,0-.65,0-1,0H18.08"/></g></g></svg>