<svg xmlns="http://www.w3.org/2000/svg" viewBox="0 0 57.89 42.51"><defs><style>.cls-1{fill:#d4c19c;}</style></defs><g id="Capa_2" data-name="Capa 2"><g id="Capa_1-2" data-name="Capa 1"><path class="cls-1" d="M57.89,5.88V36.63a2,2,0,0,0-.11.32,6.76,6.76,0,0,1-6.6,5.56H6.7A6.74,6.74,0,0,1,0,35.81Q0,21.26,0,6.7A6.73,6.73,0,0,1,6.7,0Q28.93,0,51.18,0a6.35,6.35,0,0,1,5.67,3.22A16.58,16.58,0,0,1,57.89,5.88ZM53.36,8.19,28.94,26.35,4.52,8.19V21.83c0,4.52,0,9,0,13.56a2.21,2.21,0,0,0,1,2.11A3.69,3.69,0,0,0,7.22,38q21.68,0,43.35,0c1.94,0,2.79-.85,2.79-2.78v-27Zm-46-3.64c.19.16.3.26.41.34l20.8,15.48a.59.59,0,0,0,.86,0q10.4-7.76,20.8-15.48l.39-.34Z"/></g></g></svg>