<svg xmlns="http://www.w3.org/2000/svg" viewBox="0 0 408.91 230.84"><defs><style>.cls-1{fill:#9e9e9e;}</style></defs><g id="Capa_2" data-name="Capa 2"><g id="Capa_1-2" data-name="Capa 1"><path class="cls-1" d="M408.91,219.2H316.17c1.8-38-11.59-68.73-44-91.65,7.19-3,13.32-6.65,19.93-8.13,21.62-4.86,43.75-6,65.05.18,28.81,8.39,45.66,28.67,51,58.32a13.64,13.64,0,0,0,.78,2.16Z"/><path class="cls-1" d="M292.23,230.84H117.7c0-6.91-.1-13.65,0-20.38.26-15.18,3.71-29.42,12.44-42.12,12.71-18.5,30.2-29.73,52.48-31.51a252.6,252.6,0,0,1,47.39.35c34,3.73,60.54,33.14,62.14,67.39C292.57,213.18,292.23,221.83,292.23,230.84Z"/><path class="cls-1" d="M261.22,61.77c-1.09,21.3-10.92,40.36-33.15,51.25-25.18,12.35-54,3.24-69.81-21.31-16.08-24.95-10.59-60.33,12.28-79.15C198.21-10.19,238.86-1,254.77,31.66,259,40.27,261.18,49.34,261.22,61.77Z"/><path class="cls-1" d="M94.3,218.92H.72c-.1-.1-.44-.3-.43-.49.31-16.29-1.84-32.69,2.26-48.83,7-27.31,32.17-49.78,60.34-52.46,17.31-1.65,34.77-2.46,52,1.56a68,68,0,0,1,22,9.8A98.9,98.9,0,0,0,103.06,168C95.45,184.07,93.34,201.15,94.3,218.92Z"/><path class="cls-1" d="M373.19,57.4c-.55,19.87-7.48,34.68-22.51,44.91-20.75,14.12-47.47,9.65-63.48-10.16-15.69-19.41-15.21-49,1.36-67.51,12.52-14,28.16-19.84,46.62-15.33C354.3,14,365.89,26.88,371.24,45.49,372.5,49.9,372.75,54.6,373.19,57.4Z"/><path class="cls-1" d="M35.54,59.09c.55-20.89,12.58-39.84,30.52-47.38C87,2.92,109.94,9.64,123.55,28.55c16.53,23,11.34,56.44-11.28,72.88C85,121.28,46.18,106.62,37.81,73.17,36.66,68.58,36.28,63.79,35.54,59.09Z"/></g></g></svg>