<svg xmlns="http://www.w3.org/2000/svg" viewBox="0 0 495.5 57.7"><defs><style>.cls-1{fill:#fff;}</style></defs><g id="Capa_2" data-name="Capa 2"><g id="Capa_1-2" data-name="Capa 1"><g id="_105553220288704" data-name=" 105553220288704"><path class="cls-1" d="M304.3,19.4h-5.9V19a2.29,2.29,0,0,1,.7-2.1,4.21,4.21,0,0,1,2.9-.7h1.8v-4l-3.5-.1c-6.2,0-8.2.7-8.2,7.3V35.8h6.3V23.5h5.9V19.4Z"/><path class="cls-1" d="M471.2,26.4c-.1-7.5-2-6.9-9.6-6.9-6.3,0-9.9.1-9.9,6.8v9.6H458v-9c-.1-3.6,2-3.3,3.8-3.3,2.6,0,3.6,1,3.6,2.9h5.8Z"/><polygon class="cls-1" points="278 35.9 271.8 35.9 271.8 12 278 12 278 35.9"/><path class="cls-1" d="M143.6,32.5h1.1a30.24,30.24,0,0,0,4.3-.2c1.1-.2,1.6-.7,1.7-1.7,0-1.4-1.6-1.6-2.7-1.6s-2.4-.1-3.5-.1c-1.3,0-4,0-4,1.7s1.8,1.9,3.1,1.9Zm-8.5-8c.1-4.1,3.8-4.7,7.3-4.8,2.2-.1,4.3-.1,6.5-.1,4.2,0,8,.7,8,5.5V35.9h-6.2V33.3c-1.1,2.9-4.7,2.9-7.4,2.9h-1.1c-4.4,0-7.7-.3-7.7-5.3,0-3.5,2.1-5,5.5-5.1,1.3-.1,2.5-.1,3.7-.1h1.8c1.9,0,3.9.1,5.1,1.7V25.6c0-2-.9-2.2-2.8-2.4-1,0-1.9-.1-2.9-.1l-2,.1c-1,0-1.7.2-1.8,1.3Z"/><path class="cls-1" d="M255.7,32.5h1a30.24,30.24,0,0,0,4.3-.2c1.1-.2,1.6-.7,1.7-1.7,0-1.4-1.6-1.6-2.7-1.6s-2.4-.1-3.6-.1-3.8,0-3.8,1.7,1.5,1.9,3.1,1.9Zm-8.6-8c.1-4.1,3.8-4.7,7.3-4.8,2.2-.1,4.3-.1,6.5-.1,4.2,0,8,.7,8,5.5V35.9h-6.2V33.3c-1.1,2.9-4.7,2.9-7.4,2.9h-1.1c-4.4,0-7.7-.3-7.7-5.3,0-3.5,2.1-5,5.5-5.1,1.2-.1,2.5-.1,3.8-.1h1.8c2,0,3.9.1,5.1,1.7V25.6c0-2-.9-2.2-2.8-2.4-1,0-1.9-.1-2.8-.1l-2,.1c-1,0-1.7.2-1.7,1.3Z"/><path class="cls-1" d="M350.3,32.5h1.1a30.24,30.24,0,0,0,4.3-.2c1.1-.2,1.6-.7,1.7-1.7,0-1.4-1.6-1.6-2.7-1.6s-2.4-.1-3.6-.1-3.9,0-3.9,1.7,1.7,1.9,3.1,1.9Zm-8.5-8c.1-4.1,3.8-4.7,7.3-4.8,2.1-.1,4.3-.1,6.4-.1,4.2,0,8.1.7,8.1,5.5V35.9h-6.2V33.3c-1.1,2.9-4.7,2.9-7.4,2.9h-1.1c-4.4,0-7.7-.3-7.7-5.3,0-3.5,2-5,5.5-5.1,1.3-.1,2.5-.1,3.7-.1h1.8c1.9,0,3.9.1,5.1,1.7V25.6c0-2-.9-2.2-2.8-2.4-1,0-2-.1-2.9-.1l-2,.1c-1,0-1.7.2-1.8,1.3Z"/><path class="cls-1" d="M438.9,23.1h-2.3c-1.8,0-4.2,0-4.2,2.4v.4h10.2c.1-2.4-1.3-2.8-3.7-2.8Zm9.8,7.6c-.1,5.3-4.8,5.5-9.2,5.5-2,0-4-.1-5.9-.2-6-.4-7.3-3.2-7.3-8.6,0-5.2,1.8-7.5,7.3-7.7,1.9-.1,3.8-.1,5.8-.1,2.5,0,5.5.1,7.3,1.6,2.4,1.9,1.8,5.1,2,7.9H432.4c0,2.4.8,3.4,3.4,3.4,1.2,0,2.3.1,3.5.1s2.6-.1,3-.7a1.55,1.55,0,0,0,.3-1.1h6.1v-.1Z"/><path class="cls-1" d="M182.5,29.3c0,2-.1,3.8-1.9,5.1-2.1,1.7-6.8,1.7-9.4,1.7-7,0-11.7-.3-11.7-8.5,0-5.1,1.6-7.4,7-7.9a57.81,57.81,0,0,1,5.8-.3c5.6,0,10.1.1,10.1,6.6h-6.1a2.47,2.47,0,0,0-.8-1.6c-.8-.6-2.4-.6-3.6-.6h-1c-1.3,0-3.2,0-4.3.8-.9.7-.9,2-.9,3,0,4,2.1,4,5.6,4,1.1,0,3.8,0,4.6-.9a2.35,2.35,0,0,0,.5-1.6h6.1v.2Z"/><path class="cls-1" d="M200.9,31.2c.9.6,3.2.7,4.4.7h.7c1.3,0,3.6-.1,4.5-.7a3.42,3.42,0,0,0,.9-2.8V27.2a2.84,2.84,0,0,0-.8-2.4c-1.3-.8-3.6-.8-5-.8s-3.6.1-4.6.9-.9,2.1-.9,3.1.1,2.5.8,3.2Zm-3.7-10.8c2.2-.8,5.6-.8,8.1-.8,2.1,0,4.3.1,6.4.3,4.6.5,5.9,2.6,5.9,6.9v.7c0,5.7-.1,8.1-7.3,8.6-2.2.1-4.5.1-6.7.1-6.3,0-9.7-.5-9.7-7.5v-1c0-2.9,0-6.1,3.3-7.3Z"/><path class="cls-1" d="M126,35.9V27.2c0-.9,0-1.9-.8-2.4-1.3-.8-3.6-.8-5-.8s-3.7.1-4.6.9-.9,2.1-.9,3.1v7.9h-6.2V27.8c0-3,.1-6.1,3.4-7.4,2.1-.8,5.6-.8,8-.8,2.1,0,4.3.1,6.4.3,4.6.5,5.9,2.6,5.9,6.9v9.1Z"/><path class="cls-1" d="M238,35.9V27.2a2.63,2.63,0,0,0-.9-2.4c-1.2-.8-3.6-.8-5-.8s-3.6.1-4.6.9-.9,2.1-.9,3.1v7.9h-6.2V27.8c0-3,.1-6.1,3.4-7.4,2.1-.8,5.6-.8,8-.8,2.1,0,4.3.1,6.4.3,4.6.5,5.9,2.6,5.9,6.9v9.1Z"/><path class="cls-1" d="M332.1,35.9V27.2a2.63,2.63,0,0,0-.9-2.4c-1.2-.8-3.5-.8-5-.8-1.3,0-3.6.1-4.6.9s-.9,2.1-.9,3.1v7.9h-6.1V27.8c0-3,.1-6.1,3.4-7.4,2.2-.8,5.6-.8,8-.8,2.1,0,4.3.1,6.4.3,4.6.5,5.9,2.6,5.9,6.9v9.1Z"/><path class="cls-1" d="M383.9,35.9V27.2a2.63,2.63,0,0,0-.9-2.4c-1.2-.8-3.6-.8-5-.8s-3.6.1-4.6.9-.9,2.1-.9,3.1v7.9h-6.1V27.8c0-3,0-6.1,3.4-7.4,2.2-.8,5.6-.8,8-.8,2.1,0,4.3.1,6.4.3,4.6.5,5.9,2.6,5.9,6.9v9.1Z"/><polygon class="cls-1" points="191.1 35.9 185 35.9 185 19.9 191.1 19.9 191.1 35.9"/><polygon class="cls-1" points="312.4 35.9 306.2 35.9 306.2 19.9 312.4 19.9 312.4 35.9"/><polygon class="cls-1" points="423.8 35.9 417.7 35.9 417.7 19.9 423.8 19.9 423.8 35.9"/><path class="cls-1" d="M415.2,29.3c0,2-.2,3.8-1.9,5.1-2.1,1.7-6.7,1.7-9.4,1.7-7,0-11.7-.3-11.7-8.5,0-5.1,1.6-7.4,7-7.9a56.33,56.33,0,0,1,5.8-.3c5.6,0,10.1.1,10.1,6.6H409a2.47,2.47,0,0,0-.8-1.6c-.8-.6-2.4-.6-3.5-.6h-1.1c-1.3,0-3.2,0-4.3.8-.9.7-.9,2-.9,3,0,4,2.1,4,5.6,4,1.1,0,3.8,0,4.5-.9a1.94,1.94,0,0,0,.5-1.6h6.2v.2Z"/><path class="cls-1" d="M482.3,32.5h1a31.08,31.08,0,0,0,4.3-.3,1.69,1.69,0,0,0,1.7-1.7c0-1.4-1.6-1.6-2.8-1.6s-2.3-.1-3.5-.1-3.9,0-3.9,1.8,1.7,1.9,3.2,1.9Zm-8.5-8.1c.1-4,3.8-4.7,7.3-4.8,2.1-.1,4.3-.1,6.5-.1,4.2,0,7.9.7,7.9,5.5V35.8h-6.1V33.2c-1.1,2.9-4.7,2.9-7.4,2.9h-1.1c-4.4,0-7.7-.3-7.7-5.3,0-3.5,2-5,5.5-5.1,1.3-.1,2.5-.1,3.8-.1h1.8c2,0,3.9.1,5.1,1.7V25.5c0-2-.9-2.2-2.8-2.4h-4.8c-1,0-1.7.3-1.7,1.3Z"/></g><path class="cls-1" d="M78,26.8H65.8V20.9a6.12,6.12,0,0,1,6.1-6.1A6.06,6.06,0,0,1,78,20.9Zm0,13.3H61.7v11H47.6v-11H31.2V20.9a6.12,6.12,0,0,1,6.1-6.1,6.06,6.06,0,0,1,6.1,6.1v9.8h4.1V24.2A15.36,15.36,0,0,1,62.8,8.9a15.78,15.78,0,0,1,8.3,2.4,9.89,9.89,0,0,0-9.5,9.8v9.5l16.3.1v9.4ZM26.8,21.2V40.1H12.7V24.3A15.36,15.36,0,0,1,28,9a15.78,15.78,0,0,1,8.3,2.4,9.82,9.82,0,0,0-9.5,9.8ZM45.4,0C20.4,0,0,12.8,0,28.8S20.4,57.7,45.4,57.7,90.9,44.8,90.9,28.8,70.4,0,45.4,0Z"/></g></g></svg>