<svg xmlns="http://www.w3.org/2000/svg" viewBox="0 0 249.66 270.84"><defs><style>.cls-1{fill:#bc955c;}</style></defs><g id="Capa_2" data-name="Capa 2"><g id="Capa_1-2" data-name="Capa 1"><path class="cls-1" d="M98.9,0c4.17,1.33,8.34,2.57,11.77,5.55a23.19,23.19,0,0,1,7.84,11.92c2.68,10.72.93,20.26-7.8,27.8a7.27,7.27,0,0,0-.54.62c1.5,1.53,3,3,4.45,4.52,10.59,10.6,21.24,21.15,31.78,31.8,7.42,7.51,6.95,18.37-1.13,24.46-2.11,1.59-4.78,2.43-7.12,3.58,2,1.89,4.48,3.83,6.54,6.11a28.55,28.55,0,0,1,7.61,19.46q.12,20.37,0,40.73a56.44,56.44,0,0,1-1,7.39H174v-2.82q0-14.28,0-28.56c0-4.71,1.85-6.55,6.56-6.55,20.63,0,41.26,0,61.89-.06,3.24,0,5.66.84,7.19,3.75v3.18c-1.53,2.91-3.95,3.77-7.19,3.75-18.25-.11-36.49,0-54.74,0h-3v10.58h2.72c11.81,0,23.62,0,35.43,0a5.27,5.27,0,0,1,1.88,10.29,12.16,12.16,0,0,1-3.14.26h-37c0,3.67,0,7.16,0,10.66,0,4.31-2,6.25-6.32,6.26H119.53v3q0,14.4,0,28.82c0,4.34-2,6.29-6.28,6.29q-27.75,0-55.52,0H54.46v2.93c0,9.61,0,19.21,0,28.82,0,4.35-2,6.33-6.24,6.33q-21,0-42,0c-3.85,0-6.2-2.07-6.17-5.33s2.37-5.23,6.28-5.23q17.19,0,34.37,0h3.24v-2.94q0-14.41,0-28.82c0-4.35,2-6.29,6.25-6.32,3.79,0,7.58,0,11.37-.05.08,0,.16-.07.36-.17-2.93-10.16,1.31-19.68,3-29.4C68,174.74,71.72,157,75.1,139.23a4.53,4.53,0,0,0-.73-3.26,29.15,29.15,0,0,1-6.71-19.79c.17-5,0-10,0-15.5A21.4,21.4,0,0,0,66,102.07c-4.8,4.79-9.5,9.69-14.42,14.37-9.37,8.93-23.74,5-26.83-7.43a15,15,0,0,1,4.15-14.82Q52.14,70.73,75.6,47.44a30.75,30.75,0,0,1,2.79-2.33c-2.21-3.9-5-7.38-6.25-11.36C67.52,18.68,75.38,3.23,91.32.34A3,3,0,0,0,92,0Zm10,105.69c0-13.33,0-26.37,0-39.41a16.67,16.67,0,0,0-.72-4.42,15.18,15.18,0,0,0-24-7.64,29.51,29.51,0,0,0-2.35,2.13q-22.06,22-44.12,44.12c-3.23,3.23-3.63,6.07-1.27,8.52s5.44,2.06,8.72-1.21q8.61-8.58,17.21-17.19c2.12-2.12,4.23-4.24,6.36-6.35,1.84-1.83,4-2.66,6.46-1.55s3.18,3,3.13,5.6c-.08,5,0,10,0,15.07,0,.76.09,1.52.14,2.33Zm-30.5,10.85a17.76,17.76,0,0,0,17.85,18.87c8,.11,16,0,24.06,0,4.64,0,6.58,2,6.58,6.59,0,11.2,0,22.39,0,33.58,0,5,3.17,8.52,7.5,8.45s7.29-3.48,7.3-8.38c0-12.78.16-25.56-.09-38.33a24.09,24.09,0,0,0-2.21-9.64c-3.74-7.87-10.55-11.24-19-11.3-13.3-.08-26.61,0-39.91,0C79.79,116.4,79.11,116.49,78.44,116.54Zm6.77,28a10.74,10.74,0,0,0-.43,1.4c-4.41,22.67-8.87,45.33-13.09,68-.33,1.78.65,4.18,1.77,5.76,1.64,2.32,4.28,2.88,7.11,2,3.15-1,4.55-3.35,5.13-6.4q5.49-29,11-58c.69-3.66,1.3-7.34,1.9-10.76Zm24.47,1.68c-4.82,25.41-9.6,50.57-14.39,75.81H109V193.61c0-8.51.32-8.88,8.19-9.65-.27-3.92-.69-7.82-.75-11.72-.12-7.75,0-15.5,0-23.25v-2.8ZM109,25.44c0-8.44-5.74-14.71-13.59-14.83S81.46,17,81.51,25.48s6,14.71,13.77,14.69S109,33.84,109,25.44ZM119.53,70.5c0,5.11,0,9.49,0,13.88a2.51,2.51,0,0,0,.7,1.6c3.9,4,7.77,7.93,11.81,11.73a5.16,5.16,0,1,0,7.16-7.43C132.9,83.8,126.45,77.43,119.53,70.5Zm.1,35.09h4l-4-4.93Z"/></g></g></svg>