<svg xmlns="http://www.w3.org/2000/svg" viewBox="0 0 94.92 109.11"><defs><style>.cls-1{fill:#ddc9a3;}</style></defs><g id="Capa_2" data-name="Capa 2"><g id="Capa_1-2" data-name="Capa 1"><path class="cls-1" d="M63.31,95.06v1.53a5.09,5.09,0,0,1-2.83,4.84,1.15,1.15,0,0,0-.7,1.19,6.15,6.15,0,0,1-6.58,6.49H41.42a6.15,6.15,0,0,1-6.27-6.25,1.46,1.46,0,0,0-.85-1.54,4.91,4.91,0,0,1-2.68-4.59V95.11A2.49,2.49,0,0,1,30.9,95a8.89,8.89,0,0,1-2.13-1.45c-1.12-1.29-.92-6.42.1-7.78a3.34,3.34,0,0,0,.53-1.45c.42-2.57-.62-4.25-2.71-5.91A35,35,0,0,1,13.32,54.13a36.32,36.32,0,0,1,22.5-38A33.14,33.14,0,0,1,73.05,26a36.18,36.18,0,0,1,8.33,29.51,35.5,35.5,0,0,1-14.46,24,3.19,3.19,0,0,0-1.41,2.81c0,.55,0,1.1,0,1.65a2.55,2.55,0,0,0,.63,2c1,1.21,1,6.31.06,7.61A3.66,3.66,0,0,1,63.31,95.06ZM62,84.41c0-.82,0-1.52,0-2.21a6.25,6.25,0,0,1,2.75-5.56c.56-.41,1.12-.83,1.65-1.28A33.26,33.26,0,0,0,71.8,30.13,29.71,29.71,0,0,0,39.23,18.76C21.84,24,12.38,43.53,18.52,61A32.19,32.19,0,0,0,30.23,76.68,6,6,0,0,1,32.94,82c0,.79,0,1.58,0,2.39Zm-30.37,7H63.23V88H31.66c0,.23,0,.4,0,.58Zm3.62,3.65c-.36,2.81.2,3.47,2.88,3.47H57.48c1.67,0,2.3-.65,2.31-2.34,0-.36,0-.72,0-1.13Zm21,7.06H38.71c-.12,2.28,1,3.45,3.15,3.46H53.08C55.26,105.58,56.34,104.42,56.23,102.13Z"/><path class="cls-1" d="M21.16,18.94,19,21.06l-6.12-6.12L15,12.8Z"/><path class="cls-1" d="M79.92,12.89l2.16,2.16L76,21.14l-2.06-2.26Z"/><path class="cls-1" d="M49.15,8.67H45.76V0h3.39Z"/><path class="cls-1" d="M8.7,45.77v3.37H0V45.77Z"/><path class="cls-1" d="M86.26,49.15V45.76h8.66v3.39Z"/><path class="cls-1" d="M22.82,50a8.9,8.9,0,0,1,3.47-13.41c.38-5.87,3.21-9.21,8.85-10.13a10.68,10.68,0,0,1,10,3.38,2.32,2.32,0,0,1,.57,1.46q0,17.94,0,35.88a2.12,2.12,0,0,1-.44,1.3c-5.15,5.83-15,4.4-18.07-2.07-.47-1-.45-2.21-1.05-3.06s-1.73-1.2-2.47-1.94a8.5,8.5,0,0,1-1.1-11C22.65,50.3,22.74,50.14,22.82,50ZM35.1,61.77c-.93,0-1.73,0-2.53,0-2,.12-2.85,1.63-1.95,3.32,1.92,3.64,6.88,4.65,10.63,2.19a1.86,1.86,0,0,0,1-1.77c0-10.5,0-21,0-31.49,0-2.46-.33-3-2.7-3.73a9.77,9.77,0,0,0-1.6-.37c-3.63-.6-7.35,1.73-7.91,5a2.62,2.62,0,0,0,.38,1.82c1,1.4,2.32,2.55,4.31,2.1.13,0,.27,0,.4.07v3.41c-1.35,0-2.75.33-3.88-.09s-2-1.59-3.07-2.44a5.2,5.2,0,0,0-3,6.94,1.34,1.34,0,0,0,1.42.92c1.67-.06,3.35,0,5.05,0V51.2c-1.43,0-2.78-.05-4.13,0a2.25,2.25,0,0,0-1.39.62,5.09,5.09,0,0,0,.76,7.62c.74.58,1.41.85,2.2.1,1.76-1.7,3.92-1.43,6.11-1.27Z"/><path class="cls-1" d="M71.79,48.44a8.9,8.9,0,0,1-3.47,13.41c-.39,5.87-3.21,9.21-8.85,10.13a10.68,10.68,0,0,1-10-3.38,2.32,2.32,0,0,1-.57-1.46q0-17.94,0-35.88a2.13,2.13,0,0,1,.45-1.3c5.15-5.83,15-4.4,18.07,2.07.46,1,.45,2.21,1,3.06S70.22,36.29,71,37a8.52,8.52,0,0,1,1.1,11C72,48.14,71.87,48.3,71.79,48.44ZM59.51,36.67c.92,0,1.73,0,2.53,0,2-.12,2.84-1.63,2-3.32-1.93-3.64-6.88-4.65-10.63-2.2a1.89,1.89,0,0,0-1,1.78q0,15.75,0,31.48c0,2.47.34,3,2.71,3.74a9.77,9.77,0,0,0,1.6.37c3.62.6,7.35-1.73,7.91-5a2.61,2.61,0,0,0-.38-1.82c-1.05-1.4-2.32-2.55-4.32-2.1-.12,0-.26,0-.39-.07V56.1c1.35,0,2.75-.33,3.87.09s2,1.59,3.08,2.44a5.21,5.21,0,0,0,3-6.94,1.36,1.36,0,0,0-1.42-.93c-1.67.07-3.35,0-5,0V47.24c1.42,0,2.78,0,4.12,0a2.25,2.25,0,0,0,1.4-.62A5.09,5.09,0,0,0,67.82,39c-.74-.58-1.41-.85-2.2-.1-1.77,1.69-3.93,1.43-6.11,1.27Z"/></g></g></svg>