<svg xmlns="http://www.w3.org/2000/svg" viewBox="0 0 107.26 107.27"><defs><style>.cls-1{fill:#6a1b32;}</style></defs><g id="Capa_2" data-name="Capa 2"><g id="Capa_1-2" data-name="Capa 1"><path class="cls-1" d="M57.12,106.27h-7a5.22,5.22,0,0,0-.78-.19c-1.83-.24-3.68-.35-5.48-.72a52,52,0,0,1-32-19.71A51.39,51.39,0,0,1,1.59,61.48c-.2-1.37-.39-2.75-.59-4.13V50.16c.21-1.52.34-3,.64-4.55a64.06,64.06,0,0,1,1.57-6.88c.68-2.2,1.14-4.51,2.36-6.54.58-1,1-2,1.49-3A52.14,52.14,0,0,1,30.27,6.53a51.53,51.53,0,0,1,31.92-4.8A50.62,50.62,0,0,1,92.29,18c11.76,13,16.08,28.27,13,45.49A50.48,50.48,0,0,1,89.17,92.44a51.46,51.46,0,0,1-27.7,13.24C60,105.89,58.57,106.07,57.12,106.27ZM38.84,6.89l-.11.36a13,13,0,0,0,2.37,1c2.95.56,5.93,1,8.89,1.51,1.63.28,2.18,1.22,1.67,2.82s-1,2.91-1.45,4.38a2.5,2.5,0,0,1-1.8,1.77,32.7,32.7,0,0,0-3.21,1.08,3.14,3.14,0,0,0-1.36,1.08c-1.42,2.25-2.74,4.57-4.16,6.83a4.89,4.89,0,0,1-1.48,1.49c-2.47,1.54-5,3-7.48,4.49a7.54,7.54,0,0,1-2.49.83c-3,.48-5.95.85-8.93,1.3-.25,0-.66.36-.67.57-.07,1.34-.3,2.69,1.09,3.69a5.08,5.08,0,0,1,2.41,5.26c0,.07.07.16.2.41.59-.64,1.1-1.23,1.66-1.77,1.29-1.26,2.54-1.07,3.36.53s1.67,3.29,2.46,4.95a1.13,1.13,0,0,0,1.19.72c3.22,0,6.44,0,9.66,0a2.63,2.63,0,0,1,2.63,1.52c1.22,2.14,2.55,4.22,3.77,6.35a1.49,1.49,0,0,0,1.53.89c1.57-.06,3.15,0,4.73,0a1.82,1.82,0,0,1,2,2.42c-.43,2.35-1,4.68-1.36,7A5.52,5.52,0,0,1,52,71.82c-1,.84-1.71,1.9-2.72,2.65A6.29,6.29,0,0,0,46.62,81a2.54,2.54,0,0,1-1.29,2.59c-1.72,1.24-3.43,2.51-5.09,3.83a1.73,1.73,0,0,0-.58,1.16c0,2.26,0,4.52,0,6.78,0,1.67-1.07,2.44-2.65,1.94s-3-1-4.47-1.48a2.62,2.62,0,0,1-1.78-1.69c-1-2.54-2-5.07-3-7.62a5.86,5.86,0,0,1-.39-2c0-4.76,0-9.52,0-14.28V69.14c-2.32-.46-4.52-.91-6.74-1.32a2.73,2.73,0,0,1-2.12-1.58C17.69,64.61,16.9,63,16,61.39A9.21,9.21,0,0,1,15,57c0-2.54-.12-5,2.66-6.44-.45-.33-.72-.53-1-.72-2.39-1.6-4.76-3.21-7.18-4.77a3.59,3.59,0,0,1-1.62-2.14c-.33-1.09-.72-2.17-1.13-3.41A49,49,0,0,0,92.88,83c-1.06-1-2.12-2.09-3.23-3.11a2.93,2.93,0,0,1-1-2.37c0-1.71,0-3.42,0-5.13a4.06,4.06,0,0,0-.37-1.57c-1.77-3.59-3.52-7.18-5.39-10.72a9.81,9.81,0,0,1-1.28-5.39c.09-1.19.37-2.6-.14-3.53s-1.86-1.52-2.92-2.14A2.42,2.42,0,0,0,77,48.79c-1.7.35-3.38.86-5.08,1.23a2.82,2.82,0,0,1-1.58-.09c-4-1.67-8-3.37-11.95-5.14a2.37,2.37,0,0,1-1.2-1.49c-.64-3.95-1.16-7.91-1.73-11.87a2.33,2.33,0,0,1,.73-2.13c1.58-1.57,3.12-3.19,4.75-4.69a3,3,0,0,1,1.81-.73c3.29-.07,6.58,0,9.87-.05a2.17,2.17,0,0,1,2,1.12c.73,1.16,1.55,2.26,2.26,3.43a2,2,0,0,0,1.63,1,35.86,35.86,0,0,1,4.25.7,11.06,11.06,0,0,0,7.56-.48c1.6-.71,3.32-1.15,5.16-1.77l-5.26-7c-1.34.89-2.48,1.72-3.69,2.42a3,3,0,0,1-1.8.49C80.81,22.93,76.88,22,73,21a6.9,6.9,0,0,0-3.77-.14C64,22.27,64,22.23,58.87,20.45c-1.74-.6-2.14-1.5-1.34-3.13,1-2.05,2.08-4.08,3.06-6.15a2.2,2.2,0,0,1,2.27-1.38c1.58,0,3.16-.09,4.73,0s2.9-.88,4.54-1.6A49.36,49.36,0,0,0,38.84,6.89ZM97.1,31.1c-2.95,1-5.91,2-8.9,2.95a5,5,0,0,1-2.2.19c-3.14-.47-6.28-1-9.39-1.6a3.62,3.62,0,0,1-1.88-1.2c-.88-1.08-1.55-2.34-2.39-3.46a1.64,1.64,0,0,0-1.13-.61q-3.69-.07-7.4,0a1.89,1.89,0,0,0-1.13.49c-1.08,1-2.13,2-3.12,3.13a1.59,1.59,0,0,0-.4,1.13c.39,3.08.81,6.16,1.29,9.23a1.34,1.34,0,0,0,.76.81q4.73,2.09,9.5,4.08a2.2,2.2,0,0,0,1.27.09q2.59-.59,5.16-1.29a2.8,2.8,0,0,1,2.52.43c1.43,1,2.87,2,4.35,2.9a2.48,2.48,0,0,1,1.25,2.4c0,1.67,0,3.35,0,5a4.91,4.91,0,0,0,.43,1.85c2,4.05,4,8.06,6,12.12a5.47,5.47,0,0,1,.51,2.15c.08,1.61,0,3.22,0,4.83a1.45,1.45,0,0,0,.17.87c.73.87,1.53,1.69,2.34,2.57C104.65,65.35,105.05,45.65,97.1,31.1Zm-61,62c0-1.87,0-3.68,0-5.49a2.75,2.75,0,0,1,1.27-2.51c.9-.62,1.77-1.3,2.64-2s2.39-1.34,2.9-2.36.24-2.53.22-3.82a2.94,2.94,0,0,1,1-2.26c1.79-1.74,3.58-3.5,5.29-5.32a4.76,4.76,0,0,0,1.09-2c.41-1.59.66-3.23,1-5-1.45,0-2.75,0-4,0A2.6,2.6,0,0,1,44.72,61c-1.22-2.18-2.57-4.28-3.82-6.44a1.58,1.58,0,0,0-1.6-.94c-3.18.07-6.37,0-9.55.05A2.46,2.46,0,0,1,27.13,52c-.61-1.36-1.32-2.67-2.06-4.14-2.16,2.17-4.22,4.22-6.24,6.3a1.52,1.52,0,0,0-.23.85A9.31,9.31,0,0,0,20,61.3c.47.7.72,1.55,1.19,2.26a2.3,2.3,0,0,0,1.18.94c2.16.49,4.34.88,6.52,1.31,1.53.3,2,.81,2,2.36,0,3.32.19,6.65,0,10a25.71,25.71,0,0,0,2.5,13A3,3,0,0,0,36.06,93.12ZM18.44,46.76c.2-2.77.2-2.77-1.6-4.57a4.89,4.89,0,0,1-.92-1A6.18,6.18,0,0,1,15,39.05a39.4,39.4,0,0,1,0-4.21c0-1.45.55-2.11,1.94-2.31,2.1-.31,4.2-.58,6.29-.87a22.13,22.13,0,0,0,8.33-2.48c3.53-2,6.42-4.45,8-8.21a8.33,8.33,0,0,1,6.58-5.3,1,1,0,0,0,.39-.11,1.7,1.7,0,0,0,.52-.55c.26-.63.45-1.28.69-2-1-.17-1.95-.36-2.89-.47-3.59-.45-7.09-1.11-9.93-3.64a1.44,1.44,0,0,0-1.27,0A48.63,48.63,0,0,0,9,33.4a2,2,0,0,0-.1,1.34c.69,2.21,1.44,4.41,2.19,6.6a1.55,1.55,0,0,0,.45.78C13.77,43.66,16,45.16,18.44,46.76Zm43-29.31a5.71,5.71,0,0,0,5,.5,24.35,24.35,0,0,1,3.87-1A3.26,3.26,0,0,1,72,17a71.39,71.39,0,0,0,12.1,3,1.62,1.62,0,0,0,1,0c.84-.49,1.64-1.07,2.5-1.65-.14-.17-.22-.28-.31-.37a47.78,47.78,0,0,0-10.38-7.47,1.67,1.67,0,0,0-1.3,0c-1.49.67-2.91,1.51-4.42,2.15a9.14,9.14,0,0,1-2.83.67c-1.36.12-2.74,0-4.11.06a1.29,1.29,0,0,0-1,.49C62.62,15,62.06,16.22,61.44,17.45Z"/><path class="cls-1" d="M57.19,107.27l-7.3,0-.28-.08-.39-.09c-.6-.08-1.21-.14-1.82-.21-1.22-.13-2.48-.27-3.73-.51A53.25,53.25,0,0,1,11.05,86.26,52.74,52.74,0,0,1,.6,61.63c-.14-.94-.27-1.89-.41-2.84L0,57.35V50l.18-1.39c.12-1.05.26-2.14.47-3.21l.14-.76a60.13,60.13,0,0,1,1.45-6.22c.16-.5.3-1,.44-1.5a21.45,21.45,0,0,1,2-5.26,14.2,14.2,0,0,0,.8-1.61c.22-.47.43-.93.67-1.38a53.27,53.27,0,0,1,23.65-23A52.52,52.52,0,0,1,62.35.74,51.68,51.68,0,0,1,93,17.32C105,30.5,109.42,46.09,106.3,63.67A51.61,51.61,0,0,1,89.85,93.18a52.59,52.59,0,0,1-28.23,13.48c-1,.15-2,.28-3,.41Zm-6.92-2h6.79l1.33-.18,2.93-.4a50.75,50.75,0,0,0,27.18-13,49.65,49.65,0,0,0,15.83-28.39c3-16.94-1.29-32-12.78-44.65A49.73,49.73,0,0,0,62,2.71,50.68,50.68,0,0,0,30.71,7.43,51.36,51.36,0,0,0,7.94,29.63c-.22.41-.41.84-.6,1.27a17,17,0,0,1-.91,1.81,19.49,19.49,0,0,0-1.82,4.77c-.14.52-.29,1-.45,1.55a58.19,58.19,0,0,0-1.39,6l-.15.76c-.2,1-.33,2.05-.45,3.07,0,.45-.11.9-.17,1.35v7.06l.17,1.23c.14.94.27,1.88.41,2.82A50.66,50.66,0,0,0,12.64,85a51.19,51.19,0,0,0,31.42,19.34,35.92,35.92,0,0,0,3.56.49l1.86.22a5,5,0,0,1,.67.15Zm3.32-1.54A50.07,50.07,0,0,1,5.73,39.21l.91-3L8,40.29c.28.81.54,1.57.76,2.34A2.65,2.65,0,0,0,10,44.21c1.81,1.17,3.61,2.37,5.4,3.57L17.18,49l.62.44,1.72,1.24-1.44.75C16,52.51,15.91,54.2,16,56.87a8.19,8.19,0,0,0,.94,4c.87,1.58,1.63,3.16,2.47,4.91a1.7,1.7,0,0,0,1.4,1c1.6.3,3.2.62,4.83,1l2.72.54v5.36q0,5.43,0,10.85a5,5,0,0,0,.32,1.64c.53,1.37,1.08,2.75,1.63,4.12.47,1.16.93,2.32,1.39,3.49a1.59,1.59,0,0,0,1.13,1.09c.82.25,1.63.53,2.44.81l2,.68a1.21,1.21,0,0,0,1,0,1.29,1.29,0,0,0,.33-1c0-.9,0-1.8,0-2.7,0-1.37,0-2.73,0-4.1a2.73,2.73,0,0,1,1-1.92c1.53-1.2,3.2-2.47,5.12-3.85.87-.62,1-1.1.9-1.61a7.31,7.31,0,0,1,3.06-7.51,11.39,11.39,0,0,0,1.43-1.37c.39-.41.79-.84,1.23-1.23a4.5,4.5,0,0,0,1.58-2.89c.23-1.46.53-2.92.82-4.33.19-.92.38-1.83.55-2.74a1.24,1.24,0,0,0-.1-1,1.2,1.2,0,0,0-.91-.29c-1.39,0-3,0-4.67,0a2.47,2.47,0,0,1-2.43-1.39c-.58-1-1.19-2-1.79-3s-1.34-2.23-2-3.36a1.65,1.65,0,0,0-1.75-1c-2,.05-3.93,0-5.84,0H31a2.12,2.12,0,0,1-2.1-1.29c-.69-1.45-1.47-3-2.45-4.93-.24-.47-.52-.76-.76-.8a1.4,1.4,0,0,0-1,.53c-.36.36-.71.73-1.07,1.13l-.56.62-1,1-.64-1.3a1.47,1.47,0,0,1-.09-.17,1.18,1.18,0,0,1-.2-.86c.31-1.71-.33-3.07-2-4.27s-1.6-2.94-1.52-4.2l0-.35a1.87,1.87,0,0,1,1.52-1.51L23,34.26c1.68-.24,3.37-.47,5-.74a6.48,6.48,0,0,0,2.15-.72C32.53,31.48,35,30,37.67,28.33a3.7,3.7,0,0,0,1.16-1.17c.69-1.1,1.36-2.22,2-3.34s1.41-2.34,2.14-3.5a4.08,4.08,0,0,1,1.81-1.46,27.26,27.26,0,0,1,2.88-1l.42-.13a1.53,1.53,0,0,0,1.15-1.11c.25-.84.53-1.67.82-2.5.21-.63.43-1.25.63-1.88a1.45,1.45,0,0,0,0-1.1,1.37,1.37,0,0,0-.94-.44l-3.32-.55c-1.83-.29-3.73-.6-5.59-1A7,7,0,0,1,39,8.49c-.23-.11-.46-.23-.69-.32l-.83-.36L38,6.09l.51-.16A50.08,50.08,0,0,1,72.49,7.29l2.25.88-2.21,1c-.41.18-.8.38-1.17.58a6.88,6.88,0,0,1-3.85,1.1c-.92-.07-1.85-.06-2.83,0-.61,0-1.22,0-1.84,0a1.2,1.2,0,0,0-1.35.81c-.6,1.29-1.25,2.56-1.89,3.82l-1.17,2.34a1.71,1.71,0,0,0-.27,1.11c0,.1.22.36,1,.64l.18.06c4.76,1.64,4.75,1.64,9.58.35a8,8,0,0,1,4.28.13c4.25,1.12,8.49,2.06,11.71,2.75A2,2,0,0,0,86,22.42c.82-.47,1.63-1,2.49-1.61.37-.25.74-.51,1.14-.77l.79-.52,6.66,8.86-1.32.44c-.59.2-1.16.38-1.73.55a31.63,31.63,0,0,0-3.33,1.18,12.14,12.14,0,0,1-8.22.54,32.39,32.39,0,0,0-3.82-.64l-.3,0A3,3,0,0,1,76,28.89c-.38-.63-.8-1.24-1.22-1.85s-.7-1-1-1.56a1.24,1.24,0,0,0-1.17-.65H68.5c-1.92,0-3.83,0-5.75,0a2,2,0,0,0-1.15.46c-1.09,1-2.16,2.09-3.2,3.14-.51.51-1,1-1.53,1.53a1.34,1.34,0,0,0-.44,1.28l.51,3.59c.38,2.71.77,5.52,1.22,8.25a1.41,1.41,0,0,0,.62.74C63.06,45.8,67.4,47.63,70.7,49a1.8,1.8,0,0,0,1,0c.78-.17,1.55-.37,2.32-.57s1.83-.47,2.77-.66a3.41,3.41,0,0,1,2.29.39l.64.36a6.16,6.16,0,0,1,2.65,2.16,6,6,0,0,1,.32,3.43c0,.22-.05.44-.06.66a8.56,8.56,0,0,0,1.17,4.84c1.66,3.15,3.26,6.4,4.8,9.54l.59,1.21a4.89,4.89,0,0,1,.48,2c0,1.68,0,3.34,0,5.18a2,2,0,0,0,.65,1.62c.79.72,1.56,1.47,2.32,2.21l1.56,1.53-.52.7A49.93,49.93,0,0,1,53.59,103.73ZM32.84,97A47.94,47.94,0,0,0,91.55,83.12l-.32-.3c-.74-.73-1.48-1.46-2.25-2.16a3.92,3.92,0,0,1-1.31-3.13c0-1.81,0-3.45,0-5.1a2.81,2.81,0,0,0-.27-1.14l-.6-1.21C85.26,67,83.67,63.71,82,60.58a10.64,10.64,0,0,1-1.4-5.92c0-.23,0-.47.07-.71a4.88,4.88,0,0,0-.08-2.27,4.83,4.83,0,0,0-1.86-1.37l-.69-.39a1.52,1.52,0,0,0-.88-.15c-.89.18-1.79.41-2.67.64s-1.59.41-2.39.58a3.78,3.78,0,0,1-2.18-.14c-3.32-1.38-7.67-3.22-12-5.15a3.32,3.32,0,0,1-1.77-2.24c-.46-2.76-.85-5.58-1.23-8.3l-.51-3.59a3.32,3.32,0,0,1,1-3L57,27.07c1.05-1.06,2.14-2.16,3.27-3.2a4,4,0,0,1,2.46-1l1.39,0a18.88,18.88,0,0,1-5.37-1.39l-.19-.06a3.39,3.39,0,0,1-2.23-1.77,3.28,3.28,0,0,1,.33-2.75c.38-.79.78-1.57,1.18-2.36.63-1.25,1.27-2.5,1.86-3.77a3.24,3.24,0,0,1,3.2-2c.59,0,1.18,0,1.77,0,1,0,2,0,3,0a3.9,3.9,0,0,0,2-.45A47.61,47.61,0,0,0,41.28,7.24h0c1.84.35,3.72.65,5.54.95l3.34.55a3.14,3.14,0,0,1,2.31,1.37,3.2,3.2,0,0,1,.14,2.74c-.2.65-.42,1.29-.64,1.93-.28.81-.55,1.62-.8,2.44a3.5,3.5,0,0,1-2.47,2.43l-.43.13a28.05,28.05,0,0,0-2.68.92,2.11,2.11,0,0,0-.9.69c-.72,1.14-1.42,2.3-2.11,3.46s-1.36,2.26-2.06,3.37A5.73,5.73,0,0,1,38.73,30c-2.73,1.71-5.19,3.18-7.52,4.5a8.54,8.54,0,0,1-2.82,1c-1.69.27-3.39.51-5.08.75-1.24.17-2.47.34-3.7.53v0c-.08,1.22-.08,1.89.69,2.44a6.4,6.4,0,0,1,2.84,4.15l.15-.15A3.16,3.16,0,0,1,26,42.17,3.07,3.07,0,0,1,28.24,44c1,1.92,1.78,3.51,2.48,5a.6.6,0,0,0,.08.13h4c1.9,0,3.87,0,5.79,0a3.59,3.59,0,0,1,3.53,2c.64,1.11,1.3,2.21,2,3.3s1.22,2,1.81,3c.22.38.31.39.62.38,1.69-.06,3.37,0,4.79,0a3,3,0,0,1,2.42,1,3,3,0,0,1,.51,2.57c-.17.93-.36,1.86-.55,2.78-.29,1.39-.58,2.82-.8,4.23a6.52,6.52,0,0,1-2.24,4.09c-.37.33-.72.7-1.09,1.09a11.78,11.78,0,0,1-1.69,1.61,5.3,5.3,0,0,0-2.29,5.57,3.53,3.53,0,0,1-1.7,3.57c-1.89,1.37-3.55,2.61-5,3.8a.8.8,0,0,0-.2.4c0,1.35,0,2.69,0,4,0,.91,0,1.82,0,2.73a2.83,2.83,0,0,1-4,2.89c-.7-.22-1.4-.46-2.09-.7ZM6.79,43A47.84,47.84,0,0,0,30.64,95.85a4,4,0,0,1-.84-1.35c-.45-1.16-.91-2.31-1.38-3.47-.55-1.38-1.11-2.76-1.64-4.15a6.83,6.83,0,0,1-.45-2.33q0-5.44,0-10.87V70l-1.11-.22c-1.63-.33-3.22-.64-4.81-.94a3.7,3.7,0,0,1-2.84-2.13C16.74,65,16,63.4,15.15,61.87A10,10,0,0,1,14,57c0-2.27-.08-4.73,1.91-6.47l-1.61-1.07c-1.78-1.2-3.56-2.4-5.36-3.56a4.61,4.61,0,0,1-2-2.69A1.72,1.72,0,0,0,6.79,43Zm12.84-6.57h0Zm53-13.59a3.14,3.14,0,0,1,2.83,1.59c.32.5.66,1,1,1.49.43.64.87,1.28,1.27,1.95a1.07,1.07,0,0,0,.91.57l.3,0a33.76,33.76,0,0,1,4.06.69,10.15,10.15,0,0,0,6.92-.42,30.38,30.38,0,0,1,3.55-1.27l.36-.11L90,22.23l-.35.24c-.88.6-1.72,1.17-2.61,1.68a3.69,3.69,0,0,1-2.51.6C81.29,24.06,77,23.11,72.74,22a6,6,0,0,0-3.26-.14,25.15,25.15,0,0,1-4.76,1h7.92ZM37.06,94.21,36,94.12a4,4,0,0,1-3.61-2.58,26.62,26.62,0,0,1-2.6-13.48c.16-2.28.12-4.63.08-6.91,0-1,0-2,0-3s-.1-1.17-1.16-1.38L27,66.47c-1.6-.31-3.25-.63-4.88-1a3.22,3.22,0,0,1-1.78-1.36,9.82,9.82,0,0,1-.68-1.27,6.14,6.14,0,0,0-.52-1,10.3,10.3,0,0,1-1.52-6.92,2.29,2.29,0,0,1,.51-1.45c1.6-1.64,3.23-3.27,4.9-4.95l2.33-2.34L26,47.43c.23.46.46.9.68,1.33.5,1,1,1.89,1.4,2.85a1.48,1.48,0,0,0,1.69,1.06c1.69,0,3.41,0,5.07,0,1.5,0,3,0,4.48,0a2.63,2.63,0,0,1,2.49,1.44c.54.95,1.11,1.88,1.68,2.82.71,1.18,1.45,2.4,2.14,3.63a1.63,1.63,0,0,0,1.75,1c.92,0,1.83,0,2.79,0h2.51l-.23,1.2-.27,1.48c-.22,1.22-.43,2.37-.74,3.53a5.74,5.74,0,0,1-1.32,2.42c-1.75,1.86-3.57,3.63-5.32,5.35A1.93,1.93,0,0,0,44.08,77c0,.29,0,.6.05.92a6.55,6.55,0,0,1-.37,3.36,5.78,5.78,0,0,1-2.29,2.1c-.31.2-.63.4-.91.61L40,84.4c-.68.51-1.38,1-2.1,1.55a1.75,1.75,0,0,0-.84,1.66c0,1.28,0,2.55,0,3.85ZM19.63,54.78c0,.08,0,.19,0,.26a8.34,8.34,0,0,0,1.19,5.71A8.46,8.46,0,0,1,21.46,62,8.63,8.63,0,0,0,22,63a1.45,1.45,0,0,0,.57.51c1.59.37,3.23.68,4.81,1l1.68.33c2,.39,2.78,1.32,2.78,3.34,0,1,0,2,0,3,0,2.31.08,4.71-.08,7.08a24.65,24.65,0,0,0,2.41,12.49,2.43,2.43,0,0,0,.88,1.15v-.39c0-1.28,0-2.54,0-3.79a3.75,3.75,0,0,1,1.71-3.36c.69-.48,1.35-1,2-1.49l.57-.44c.33-.25.69-.48,1-.71A4.35,4.35,0,0,0,42,80.35,5.09,5.09,0,0,0,42.13,78c0-.34,0-.68-.05-1a3.94,3.94,0,0,1,1.28-3c1.74-1.7,3.54-3.46,5.26-5.29a3.63,3.63,0,0,0,.85-1.55c.28-1.09.49-2.21.7-3.39l.06-.32h-.12c-.93,0-1.81,0-2.68,0a3.6,3.6,0,0,1-3.58-2c-.68-1.2-1.41-2.41-2.11-3.57-.58-1-1.15-1.9-1.71-2.86-.23-.41-.32-.46-.71-.44-1.51,0-3,0-4.52,0s-3.36,0-5,0a3.49,3.49,0,0,1-3.56-2.24c-.4-.91-.86-1.81-1.35-2.76l-.06-.11-.37.38C22.79,51.59,21.2,53.18,19.63,54.78Zm75.28,27L93.4,80.17c-.6-.64-1.18-1.26-1.73-1.91a2.25,2.25,0,0,1-.4-1.49c0-.59,0-1.17,0-1.75,0-1,0-2,0-3a4.51,4.51,0,0,0-.42-1.76c-1-2.13-2.09-4.24-3.15-6.36-1-1.92-1.92-3.84-2.86-5.76a5.65,5.65,0,0,1-.54-2.26c0-1.49,0-3.11,0-5.09a1.51,1.51,0,0,0-.78-1.53c-1.3-.81-2.66-1.71-4.39-2.92A1.81,1.81,0,0,0,77.41,46c-1.68.46-3.44.9-5.21,1.31a3.29,3.29,0,0,1-1.87-.15c-3.16-1.32-6.37-2.69-9.53-4.09a2.29,2.29,0,0,1-1.34-1.56c-.46-3-.9-6.13-1.29-9.27a2.59,2.59,0,0,1,.65-1.93c1-1.06,2-2.12,3.18-3.18a2.88,2.88,0,0,1,1.8-.76c2.67-.05,5.1-.05,7.43,0a2.69,2.69,0,0,1,1.92,1c.37.51.71,1,1.06,1.57A18.85,18.85,0,0,0,75.5,30.8a2.59,2.59,0,0,0,1.31.86c2.7.54,5.66,1,9.34,1.59a3.91,3.91,0,0,0,1.75-.15c2.18-.69,4.39-1.43,6.52-2.15l3.16-1.07.4.74c8.35,15.29,7.4,35.44-2.37,50.12Zm-1.63-4.74c.43.51.89,1,1.36,1.51,8.56-13.74,9.36-32.06,2-46.25l-1.56.52c-2.14.72-4.36,1.47-6.56,2.16a5.89,5.89,0,0,1-2.65.23c-3.7-.55-6.7-1.06-9.43-1.61A4.56,4.56,0,0,1,74,32.07a20.89,20.89,0,0,1-1.43-2c-.32-.49-.64-1-1-1.45a.73.73,0,0,0-.36-.21c-2.3-.05-4.71-.05-7.35,0a.93.93,0,0,0-.47.22c-1.1,1-2.13,2.06-3.07,3.07a.75.75,0,0,0-.13.35c.38,3.07.8,6.13,1.26,9.09a.62.62,0,0,0,.19.14C64.76,42.63,68,44,71.1,45.32a1.31,1.31,0,0,0,.66,0c1.74-.4,3.46-.83,5.12-1.29a3.79,3.79,0,0,1,3.35.58c1.71,1.18,3,2.07,4.31,2.87a3.48,3.48,0,0,1,1.72,3.27c0,1.94,0,3.52,0,5a3.77,3.77,0,0,0,.33,1.45c.94,1.92,1.9,3.83,2.86,5.75,1.06,2.12,2.12,4.24,3.16,6.37a6.68,6.68,0,0,1,.61,2.54c0,1.06,0,2.13,0,3.16q0,.85,0,1.71C93.27,76.83,93.27,77,93.28,77.06Zm-74-28.52-3-2c-1.84-1.23-3.63-2.42-5.4-3.63a2.31,2.31,0,0,1-.82-1.27l-.21-.62c-.67-2-1.37-4-2-6A3.05,3.05,0,0,1,8.07,33,49.85,49.85,0,0,1,33.26,8a2.36,2.36,0,0,1,2.35.19c2.69,2.39,6.11,3,9.38,3.38.66.09,1.31.2,2,.32l1,.17,1.15.19-.57,1.73c-.17.51-.32,1-.51,1.46a2.21,2.21,0,0,1-.76.89,1.7,1.7,0,0,1-.86.37,7.36,7.36,0,0,0-5.88,4.71c-1.9,4.48-5.51,7-8.44,8.68a22.79,22.79,0,0,1-8.69,2.61L21,33c-1.29.18-2.58.35-3.86.54-.84.12-1.08.31-1.09,1.33,0,.36,0,.72,0,1.08A27.37,27.37,0,0,0,16,39a5.08,5.08,0,0,0,.66,1.62l.11.19a2,2,0,0,0,.39.39l.36.33c2,2,2.11,2.31,1.88,5.36Zm-7.17-7.21c1.75,1.2,3.5,2.37,5.32,3.58l0,0c-.07-.74-.41-1.08-1.37-2a3,3,0,0,0-.26-.24,3.51,3.51,0,0,1-.84-1l-.1-.18A6.6,6.6,0,0,1,14,39.14,27.37,27.37,0,0,1,14,35.88c0-.35,0-.7,0-1.05a3,3,0,0,1,2.79-3.29c1.3-.19,2.59-.37,3.89-.54l2.42-.33a21.37,21.37,0,0,0,8-2.36c3.95-2.28,6.29-4.66,7.6-7.73A9.31,9.31,0,0,1,46,14.69h.06c.06-.06.11-.09.14-.13l.27-.77c-.59-.1-1.15-.2-1.72-.27-3.54-.44-7.25-1.09-10.35-3.78a.87.87,0,0,0-.3,0A47.94,47.94,0,0,0,9.88,33.82a1.11,1.11,0,0,0-.05.62c.62,2,1.31,4,2,6L12,41A3.21,3.21,0,0,0,12.14,41.33ZM45.93,14.77h0ZM34.28,9.63ZM84.61,21.1a4.32,4.32,0,0,1-.68-.07A73.78,73.78,0,0,1,71.65,18a2.19,2.19,0,0,0-1.15,0l-.24.05a23,23,0,0,0-3.48.87A6.6,6.6,0,0,1,61,18.33l-.85-.46L61,16c.44-.88.89-1.79,1.38-2.67a2.26,2.26,0,0,1,1.79-1c.6,0,1.21,0,1.81,0,.79,0,1.53,0,2.26,0a8.38,8.38,0,0,0,2.52-.6c.8-.34,1.56-.73,2.37-1.14s1.34-.69,2-1a2.65,2.65,0,0,1,2.17,0A48.92,48.92,0,0,1,88,17.25a2.29,2.29,0,0,1,.28.32l.83,1-1.63,1.1c-.6.41-1.21.83-1.85,1.2A1.91,1.91,0,0,1,84.61,21.1ZM71.17,15.89a3.43,3.43,0,0,1,1.18.19,71.17,71.17,0,0,0,11.94,3,1.58,1.58,0,0,0,.35,0c.46-.28.92-.58,1.39-.9a46.47,46.47,0,0,0-9.61-6.8.72.72,0,0,0-.41,0c-.66.3-1.31.63-2,1-.8.41-1.64.84-2.5,1.2a10.32,10.32,0,0,1-3.14.75c-.83.07-1.65.06-2.44,0-.57,0-1.14,0-1.71,0l-.17.07c-.45.79-.85,1.61-1.28,2.48l0,.06a4.46,4.46,0,0,0,3.29,0,24.81,24.81,0,0,1,3.79-1l.24,0A5.48,5.48,0,0,1,71.17,15.89Z"/></g></g></svg>