<svg xmlns="http://www.w3.org/2000/svg" viewBox="0 0 190.47 190.51"><defs><style>.cls-1{fill:#bc955c;}</style></defs><g id="Capa_2" data-name="Capa 2"><g id="Capa_1-2" data-name="Capa 1"><path class="cls-1" d="M190.47,95.18A95.24,95.24,0,1,1,95.12,0,95.17,95.17,0,0,1,190.47,95.18ZM95.32,177.79c46.11-.35,82.52-37.16,82.38-82.78a82.48,82.48,0,1,0-82.38,82.78Z"/><path class="cls-1" d="M101.58,76.21c0,6.21,0,12.42,0,18.64a6.81,6.81,0,0,1-2,5.16q-15.7,15.7-31.41,31.39a6.4,6.4,0,1,1-9-9.1q14.21-14.25,28.49-28.42a3.91,3.91,0,0,0,1.27-3.11c0-11,0-21.94,0-32.91,0-4.24,2.5-7,6.29-7.06s6.4,2.77,6.4,7Q101.6,67,101.58,76.21Z"/></g></g></svg>