<svg xmlns="http://www.w3.org/2000/svg" viewBox="0 0 344.41 344.41"><defs><style>.cls-1{fill:#999999;}</style></defs><g id="Capa_2" data-name="Capa 2"><g id="Capa_1-2" data-name="Capa 1"><path class="cls-1" d="M172.35,0c95.21.09,172.29,77.38,172.06,172.52s-77.33,172-172.34,171.89C76.86,344.3-.24,267,0,171.88S77.3-.09,172.35,0ZM320.42,172.18c0-81.41-66.53-148.09-147.86-148.19C90.76,23.88,24,90.51,24,172.22c0,81.54,66.69,148.21,148.23,148.2S320.43,253.74,320.42,172.18Z"/><path class="cls-1" d="M160.23,139.63q0-20.75,0-41.51c0-7.62,4.88-12.78,12-12.76s11.91,5.24,11.91,12.9c0,24.43.07,48.86-.07,73.29,0,3,1,4.59,3.52,6.1,15.69,9.4,31.26,19,46.91,28.47,3.79,2.29,6.75,5.11,7.27,9.77.55,4.88-1.05,8.89-5.18,11.62a11.46,11.46,0,0,1-13,.23q-13.11-7.91-26.17-15.89c-10-6.08-19.94-12.26-30-18.24-5-3-7.36-6.94-7.27-12.85C160.37,167.06,160.23,153.34,160.23,139.63Z"/></g></g></svg>