<svg xmlns="http://www.w3.org/2000/svg" viewBox="0 0 142.83 140.74"><defs><style>.cls-1{fill:#fff;}</style></defs><g id="Capa_2" data-name="Capa 2"><g id="Capa_1-2" data-name="Capa 1"><path class="cls-1" d="M62.82,140.74c-2.46-.19-4.92-.37-7.38-.57-13.24-1-26.24-3-38.5-7.7a38.12,38.12,0,0,1-12.31-7.12c-6.33-5.78-6.15-13.5.41-19.09,4.27-3.64,9.45-6,14.94-7.83A126.65,126.65,0,0,1,42.7,93.19c.4-.06.81-.16,1.38-.27-.3-.47-.53-.85-.79-1.21-5.47-7.4-11-14.77-16.39-22.2a39.18,39.18,0,0,1-7.55-19.15c-1.62-15.89,4.51-29.23,18.41-39.58C49.59,2,63.51-1.38,79.05.51c19.88,2.41,37.37,15.67,42.61,32.34,4.29,13.67,2,26.41-7,38.28-5.24,6.93-10.31,14-15.46,20.92-.17.23-.31.47-.59.88,1.75.29,3.39.52,5,.81,9,1.6,17.76,3.61,25.88,7.39,4.14,1.92,7.95,4.24,10.61,7.66,4.07,5.22,3.44,11.33-1.56,16.14-3.91,3.76-8.9,6.16-14.19,8.07a127.59,127.59,0,0,1-31.55,6.62c-3.93.38-7.89.58-11.83.88a10.92,10.92,0,0,0-1.39.24ZM71.4,114.4l1.27-1.69C84.06,97.25,95.4,81.76,106.86,66.34c11-14.81,9.66-32.88-4-45.88C92.36,10.48,79.08,6.68,63.73,8.94a42.58,42.58,0,0,0-27,14.8,33.43,33.43,0,0,0-1.65,41.47Q52.64,89,70.14,112.75C70.5,113.24,70.88,113.72,71.4,114.4Zm-.16,18.39c7.68-.55,15.38-1,23-1.69a106.94,106.94,0,0,0,25.85-5.54c4.21-1.49,8.32-3.22,11.39-6.28,2.22-2.21,2.37-4.39,0-6.47a29.17,29.17,0,0,0-6.34-4.25c-9.56-4.61-20.11-6.39-30.79-7.73a2.16,2.16,0,0,0-2.38,1c-5.32,7.31-10.66,14.62-16.1,21.86a7.26,7.26,0,0,1-3.11,2.36c-2.2.82-4.28-.09-5.83-2.19q-8.14-11-16.24-22.11a2,2,0,0,0-2.27-.94c-2.06.37-4.17.55-6.25.87a94.9,94.9,0,0,0-22.33,5.79,25.85,25.85,0,0,0-8.51,5.16C9,115,9,117.08,11.35,119.35a19.79,19.79,0,0,0,3.32,2.53c5,3,10.66,4.78,16.45,6.21C44.22,131.31,57.66,132.34,71.24,132.79Z"/><path class="cls-1" d="M71.51,25c13.16,0,23.72,9.29,23.68,20.78,0,11.33-10.74,20.47-23.92,20.45S47.55,56.94,47.6,45.44C47.64,34.12,58.33,25,71.51,25ZM85.65,45.59C85.3,38.51,79.4,33.3,71.37,33.32c-8.18,0-14.19,5.35-14.17,12.31s6.17,12.29,14.21,12.28S85.34,52.56,85.65,45.59Z"/><polygon class="cls-1" points="86.99 44.37 88.94 41.6 91.45 47.15 86.99 44.37"/></g></g></svg>